<svg width="327" height="296" viewBox="0 0 327 296" fill="none" xmlns="http://www.w3.org/2000/svg">
    <g clip-path="url(#s3k3i6f0za)">
        <rect width="327" height="296" rx="16" fill="#F7F5F2"/>
        <g clip-path="url(#015zryglnb)">
            <path d="M270 151a1.874 1.874 0 0 0-1.875 1.875v2.25h-2.25a1.874 1.874 0 1 0 0 3.75h2.25v2.25a1.874 1.874 0 1 0 3.75 0v-2.25h2.25a1.874 1.874 0 1 0 0-3.75h-2.25v-2.25A1.874 1.874 0 0 0 270 151z" fill="#EAE3D8"/>
            <path d="M270 151a1.874 1.874 0 0 0-1.875 1.875v2.25h-2.25a1.874 1.874 0 1 0 0 3.75h2.25v2.25a1.874 1.874 0 1 0 3.75 0v-2.25h2.25a1.874 1.874 0 1 0 0-3.75h-2.25v-2.25A1.874 1.874 0 0 0 270 151z" fill="#EAE3D8"/>
            <path d="M270 151a1.874 1.874 0 0 0-1.875 1.875v2.25h-2.25a1.874 1.874 0 1 0 0 3.75h2.25v2.25a1.874 1.874 0 1 0 3.75 0v-2.25h2.25a1.874 1.874 0 1 0 0-3.75h-2.25v-2.25A1.874 1.874 0 0 0 270 151zM65 121a1.875 1.875 0 0 0-1.875 1.875v2.25h-2.25a1.875 1.875 0 1 0 0 3.75h2.25v2.25a1.875 1.875 0 1 0 3.75 0v-2.25h2.25a1.875 1.875 0 1 0 0-3.75h-2.25v-2.25c0-1.036-.84-1.875-1.875-1.875z" fill="#EAE3D8"/>
            <path d="M65 121a1.875 1.875 0 0 0-1.875 1.875v2.25h-2.25a1.875 1.875 0 1 0 0 3.75h2.25v2.25a1.875 1.875 0 1 0 3.75 0v-2.25h2.25a1.875 1.875 0 1 0 0-3.75h-2.25v-2.25c0-1.036-.84-1.875-1.875-1.875z" fill="#EAE3D8"/>
            <path d="M65 121a1.875 1.875 0 0 0-1.875 1.875v2.25h-2.25a1.875 1.875 0 1 0 0 3.75h2.25v2.25a1.875 1.875 0 1 0 3.75 0v-2.25h2.25a1.875 1.875 0 1 0 0-3.75h-2.25v-2.25c0-1.036-.84-1.875-1.875-1.875zM36 225a1.875 1.875 0 0 0-1.875 1.875v2.25h-2.25a1.875 1.875 0 1 0 0 3.75h2.25v2.25a1.875 1.875 0 1 0 3.75 0v-2.25h2.25a1.875 1.875 0 1 0 0-3.75h-2.25v-2.25c0-1.036-.84-1.875-1.875-1.875z" fill="#EAE3D8"/>
            <path d="M36 225a1.875 1.875 0 0 0-1.875 1.875v2.25h-2.25a1.875 1.875 0 1 0 0 3.75h2.25v2.25a1.875 1.875 0 1 0 3.75 0v-2.25h2.25a1.875 1.875 0 1 0 0-3.75h-2.25v-2.25c0-1.036-.84-1.875-1.875-1.875z" fill="#EAE3D8"/>
            <path d="M36 225a1.875 1.875 0 0 0-1.875 1.875v2.25h-2.25a1.875 1.875 0 1 0 0 3.75h2.25v2.25a1.875 1.875 0 1 0 3.75 0v-2.25h2.25a1.875 1.875 0 1 0 0-3.75h-2.25v-2.25c0-1.036-.84-1.875-1.875-1.875z" fill="#EAE3D8"/>
            <g opacity=".2" filter="url(#pm0wft11nc)">
                <rect x="141.626" y="124.506" width="87.052" height="115.716" rx="7.636" transform="rotate(12.4 141.626 124.506)" fill="#4F4F4F"/>
            </g>
            <rect x="139.626" y="122.506" width="87.052" height="115.716" rx="7.636" transform="rotate(12.4 139.626 122.506)" fill="#1967FF"/>
            <rect x="145.06" y="132.396" width="72.189" height="98.73" rx="3.818" transform="rotate(12.4 145.06 132.396)" fill="#FAFAFA"/>
            <path d="M184.407 203.675a.477.477 0 0 1 .792.174l1.323 3.754c.078.22.302.352.532.312l3.922-.677c.349-.06.64.267.539.607l-1.137 3.815a.477.477 0 0 0 .247.564l3.571 1.758a.477.477 0 0 1 .079.808l-3.162 2.418a.478.478 0 0 0-.132.602l1.856 3.521a.477.477 0 0 1-.41.7l-3.98.098a.477.477 0 0 0-.461.409l-.568 3.939a.477.477 0 0 1-.743.325l-3.277-2.26a.478.478 0 0 0-.613.06l-2.776 2.854a.477.477 0 0 1-.792-.174l-1.323-3.755a.477.477 0 0 0-.531-.312l-3.923.677a.477.477 0 0 1-.539-.606l1.137-3.815a.479.479 0 0 0-.247-.565l-3.571-1.758a.477.477 0 0 1-.079-.807l3.162-2.419a.476.476 0 0 0 .132-.601l-1.856-3.522a.477.477 0 0 1 .411-.699l3.979-.098a.479.479 0 0 0 .461-.409l.568-3.94a.477.477 0 0 1 .743-.325l3.277 2.26a.479.479 0 0 0 .614-.06l2.775-2.853z" fill="#FFCE1F"/>
            <path d="m207.124 146.043-13.333-2.932-4.672 21.25 7.766-3.534 5.118 6.362 5.121-21.146z" fill="#F60"/>
            <rect x="145.934" y="163.024" width="24.417" height="4.246" rx="2.123" transform="rotate(12.4 145.934 163.024)" fill="#D9D9D9"/>
            <rect x="143.654" y="173.392" width="36.095" height="4.246" rx="2.123" transform="rotate(12.4 143.654 173.392)" fill="#D9D9D9"/>
            <path d="M96.271 190.606c3.89-2.633 6.564-3.077 12.638-.481 5.959 2.544 10.252 5.064 14.145 7.375l1.446-5.536c-11.198-4.716-18.547-5.864-22.376-5.106l-.001-.005c-1.064.212-3.858.951-5.614 2.547-2.342 2.127-2.388 2.661-.238 1.206z" fill="#0785B5"/>
            <path d="m90.205 214.88-5.462 3.309s-.404-.049-.018-.453c2.309-2.4 3.825-4.597 4.409-11.644.495-5.956 1.256-10.308 3.493-13.484 3.788-5.384 9.496-5.755 9.496-5.755s-3.43.956-5.012 3.587c-2.203 3.663-2.239 6.534-2.724 13.728-.44 6.56-1.553 8.179-3.716 10.292-.232.225-.469.418-.469.418l.003.002z" fill="#2EB3E5"/>
            <path d="m90.205 214.88-5.462 3.309s-.404-.049-.018-.453c2.309-2.4 3.825-4.597 4.409-11.644.495-5.956 1.256-10.308 3.493-13.484 3.788-5.384 9.496-5.755 9.496-5.755s-3.43.956-5.012 3.587c-2.203 3.663-2.239 6.534-2.724 13.728-.44 6.56-1.553 8.179-3.716 10.292-.232.225-.469.418-.469.418l.003.002z" fill="#0785B5"/>
            <path d="m96.823 221.818-3.79-8.024a2.26 2.26 0 0 0-2.998-1.075l-9.505 4.489a2.26 2.26 0 0 0-1.075 2.998l3.787 8.022" stroke="#FCCB4F" stroke-width="3" stroke-miterlimit="10"/>
            <path d="M119.016 252.96c6.743-11.905 2.56-27.021-9.344-33.765-11.904-6.743-27.021-2.56-33.765 9.344-6.743 11.904-2.56 27.021 9.345 33.765 11.904 6.743 27.02 2.56 33.764-9.344z" fill="#FCCB4F"/>
            <path d="M119.016 252.96c6.743-11.905 2.56-27.021-9.344-33.765-11.904-6.743-27.021-2.56-33.765 9.344-6.743 11.904-2.56 27.021 9.345 33.765 11.904 6.743 27.02 2.56 33.764-9.344z" fill="url(#wkzugqlbxd)"/>
            <path d="M119.016 252.96c6.743-11.905 2.56-27.021-9.344-33.765-11.904-6.743-27.021-2.56-33.765 9.344-6.743 11.904-2.56 27.021 9.345 33.765 11.904 6.743 27.02 2.56 33.764-9.344z" fill="url(#n2v8w83vye)"/>
            <path d="M113.556 224.387c-9.036-8.89-23.569-8.771-32.458.266-8.89 9.036-8.77 23.568.266 32.458 9.036 8.89 23.568 8.771 32.458-.266 8.89-9.036 8.771-23.568-.266-32.458z" fill="url(#9wuima6bgf)"/>
            <path d="M113.556 224.387c-9.036-8.89-23.569-8.771-32.458.266-8.89 9.036-8.77 23.568.266 32.458 9.036 8.89 23.568 8.771 32.458-.266 8.89-9.036 8.771-23.568-.266-32.458z" fill="url(#th5icw6rpg)"/>
            <path d="M116.94 250.582c5.432-10.757 1.115-23.881-9.643-29.313-10.757-5.432-23.881-1.115-29.313 9.643-5.432 10.757-1.115 23.881 9.643 29.313 10.757 5.432 23.881 1.115 29.313-9.643z" fill="#FCCB4F"/>
            <path d="M116.94 250.582c5.432-10.757 1.115-23.881-9.643-29.313-10.757-5.432-23.881-1.115-29.313 9.643-5.432 10.757-1.115 23.881 9.643 29.313 10.757 5.432 23.881 1.115 29.313-9.643z" fill="url(#vhr039wlih)"/>
            <path d="m99.722 256.861-1.194-.998.677 2.408.517-1.41z" fill="#FBB000"/>
            <path d="m98.023 257.339.505-1.476.677 2.408-1.182-.932zM100.709 258.329l.579-1.445-2.083 1.387 1.504.058z" fill="#FBB000"/>
            <path d="m99.722 256.861 1.566.023-2.083 1.387.517-1.41zM99.614 259.718l1.558.105-1.967-1.552.409 1.447z" fill="#FBB000"/>
            <path d="m100.709 258.329.463 1.494-1.967-1.552 1.504.058zM97.955 259.097l.381 1.516.869-2.342-1.25.826zM99.614 259.718l-1.278.895.869-2.342.409 1.447zM98.023 257.339l-1.318.828 2.5.104-1.182-.932zM97.955 259.097l-1.25-.93 2.5.104-1.25.826z" fill="#FBB000"/>
            <path d="m99.722 256.861-1.194-.998.677 2.408.517-1.41z" fill="url(#0y1gkc6lki)"/>
            <path d="m100.709 258.328.579-1.444-2.083 1.387 1.504.057z" fill="url(#s2hma9ju9j)"/>
            <path d="m100.709 258.328.463 1.495-1.967-1.552 1.504.057z" fill="url(#osgat8lbjk)"/>
            <path d="m99.614 259.718-1.278.895.869-2.342.409 1.447z" fill="url(#y5160k60hl)"/>
            <path d="m97.955 259.097-1.25-.93 2.5.104-1.25.826z" fill="url(#5rq096hfpm)"/>
            <path d="m98.023 257.339.505-1.476.677 2.408-1.182-.932z" fill="url(#yx0ia4zbdn)"/>
            <path d="m99.722 256.861 1.566.023-2.083 1.387.517-1.41z" fill="url(#yypwqlu19o)"/>
            <path d="m99.614 259.718 1.558.105-1.967-1.552.409 1.447z" fill="url(#xcl1bay1yp)"/>
            <path d="m97.955 259.097.381 1.516.869-2.342-1.25.826z" fill="url(#g9zbtprn4q)"/>
            <path d="m103.448 255.541.251-1.545 1.065 2.268-1.316-.723z" fill="#FBB000"/>
            <path d="m105.044 254.788-1.345-.792 1.065 2.268.28-1.476zM103.672 257.297l-1.389-.716 2.481-.317-1.092 1.033zM103.448 255.541l-1.165 1.04 2.481-.317-1.316-.723zM105.409 257.622l-1.108 1.099.463-2.457.645 1.358z" fill="#FBB000"/>
            <path d="m103.672 257.297.629 1.424.463-2.457-1.092 1.033zM106.256 256.071l.709 1.392-2.201-1.199 1.492-.193zM105.409 257.622l1.556-.159-2.201-1.199.645 1.358zM105.044 254.788l1.547-.243-1.827 1.719.28-1.476zM106.256 256.071l.335-1.526-1.827 1.719 1.492-.193z" fill="#FBB000"/>
            <path d="m105.044 254.788-1.345-.792 1.065 2.268.28-1.476z" fill="url(#ort60qx1kr)"/>
            <path d="m103.672 257.297-1.389-.716 2.481-.317-1.092 1.033z" fill="url(#z0mvcofizs)"/>
            <path d="m105.409 257.622-1.108 1.099.463-2.457.645 1.358z" fill="url(#30hngeackt)"/>
            <path d="m106.256 256.071.709 1.392-2.201-1.199 1.492-.193z" fill="url(#rkw4rqw33u)"/>
            <path d="m106.256 256.071.335-1.526-1.827 1.719 1.492-.193z" fill="url(#i8ymyo9rmv)"/>
            <path d="m103.448 255.541.251-1.545 1.065 2.268-1.316-.723z" fill="url(#6qzanjzbdw)"/>
            <path d="m103.672 257.297.629 1.424.463-2.457-1.092 1.033z" fill="url(#cuwgmm7ujx)"/>
            <path d="m105.409 257.622 1.556-.159-2.201-1.199.645 1.358z" fill="url(#i6bvg03guy)"/>
            <path d="m105.044 254.788 1.547-.243-1.827 1.719.28-1.476z" fill="url(#subfk131xz)"/>
            <path d="m108.347 252.787-.01-1.56 1.427 2.053-1.417-.493zM109.799 251.78l-1.462-.553 1.427 2.053.035-1.5zM108.863 254.473l-1.493-.467 2.394-.726-.901 1.193z" fill="#FBB000"/>
            <path d="m108.347 252.787-.977 1.219 2.394-.726-1.417-.493z" fill="#FBB000"/>
            <path d="m110.633 254.51-.916 1.271.047-2.501.869 1.23z" fill="#FBB000"/>
            <path d="m108.863 254.473.854 1.308.047-2.501-.901 1.193zM111.205 252.838l.926 1.26-2.367-.818 1.441-.442zM110.633 254.51l1.498-.412-2.367-.818.869 1.23z" fill="#FBB000"/>
            <path d="m109.799 251.78 1.482-.501-1.517 2.001.035-1.5z" fill="#FBB000"/>
            <path d="m111.205 252.838.076-1.559-1.517 2.001 1.441-.442z" fill="#FBB000"/>
            <path d="m109.799 251.78-1.462-.553 1.427 2.053.035-1.5z" fill="url(#i40sfsp7zA)"/>
            <path d="m108.863 254.473-1.493-.467 2.394-.726-.901 1.193z" fill="url(#iqcd9i9o0B)"/>
            <path d="m110.633 254.51-.915 1.271.046-2.501.869 1.23z" fill="url(#r5eq9dovxC)"/>
            <path d="m111.205 252.838.926 1.26-2.367-.818 1.441-.442z" fill="url(#o21silbasD)"/>
            <path d="m111.205 252.838.076-1.559-1.517 2.001 1.441-.442z" fill="url(#0oipbsfodE)"/>
            <path d="m108.347 252.787-.01-1.56 1.427 2.053-1.417-.493z" fill="url(#kchg55mmcF)"/>
            <path d="m108.863 254.473.854 1.308.047-2.501-.901 1.193z" fill="url(#mu4hyrfoeG)"/>
            <path d="m110.633 254.51 1.498-.412-2.367-.818.869 1.23z" fill="url(#i782wf6mxH)"/>
            <path d="m108.347 252.787-.977 1.219 2.394-.726-1.417-.493z" fill="url(#u72gzog71I)"/>
            <path d="m109.799 251.78 1.482-.501-1.517 2.001.035-1.5z" fill="url(#ghc4bobdtJ)"/>
            <path d="m111.205 252.838.926 1.26-2.367-.818 1.441-.442z" fill="url(#zi1p8dw93K)"/>
            <path d="m90.663 236.841 1.216-7.568 5.248 11.111-6.464-3.543z" fill="#FCCB4F"/>
            <path d="m98.499 233.137-6.62-3.864 5.248 11.111 1.372-7.247zM91.76 245.436l-6.821-3.494 12.188-1.558-5.367 5.052zM90.663 236.84l-5.724 5.102 12.188-1.558-6.464-3.544z" fill="#FBB000"/>
            <path d="m100.277 247.05-5.432 5.408 2.282-12.074 3.15 6.666z" fill="#FBB000"/>
            <path d="m91.76 245.436 3.085 7.022 2.282-12.074-5.367 5.052z" fill="#FBB000"/>
            <path d="m91.76 245.436 3.085 7.022 2.282-12.074-5.367 5.052z" fill="url(#4rrhsxlhqL)"/>
            <path d="m104.442 239.447 3.463 6.839-10.778-5.902 7.315-.937z" fill="#FBB000"/>
            <path d="m100.277 247.05 7.628-.764-10.778-5.902 3.15 6.666zM90.663 236.84l1.216-7.567 5.248 11.111-6.464-3.544z" fill="#FBB000"/>
            <path d="m90.663 236.84 1.216-7.567 5.248 11.111-6.464-3.544z" fill="url(#a12s48o8iM)"/>
            <path d="m100.277 247.05 7.628-.764-10.778-5.902 3.15 6.666z" fill="url(#i1qtqbtrsN)"/>
            <path d="m98.499 233.137 7.575-1.179-8.947 8.426 1.372-7.247z" fill="#FBB000"/>
            <path d="m90.663 236.84-5.724 5.102 12.188-1.558-6.464-3.544z" fill="url(#amje9zuqfO)"/>
            <path d="m98.499 233.137 7.575-1.179-8.947 8.426 1.372-7.247z" fill="url(#qrfws5ul8P)"/>
            <path d="m104.442 239.447 1.632-7.489-8.947 8.426 7.315-.937z" fill="#FBB000"/>
            <path d="m98.499 233.137-6.62-3.864 5.248 11.111 1.372-7.247z" fill="url(#5jv0ia41yQ)"/>
            <path d="m91.76 245.436-6.821-3.494 12.188-1.558-5.367 5.052z" fill="url(#b7eu8vt4kR)"/>
            <path d="m100.277 247.05-5.432 5.408 2.282-12.074 3.15 6.666z" fill="url(#crdn4k4skS)"/>
            <path d="m104.442 239.447 3.463 6.839-10.778-5.902 7.315-.937z" fill="url(#0r0j3mshhT)"/>
            <path d="m104.442 239.447 1.632-7.489-8.947 8.426 7.315-.937z" fill="url(#f3pvlyyxhU)"/>
            <path d="M82.584 189.59c-1.091 3.057-1.502 5.611-1.502 5.611l-.005.001s.123-2.56 1.507-5.612c.975-2.733 2.495-5.868 4.75-7.939 5.38-4.942 16.418-10.046 27.104-1.634L124.7 190.5l-1.7 7.819c-9.455-8.869-14.625-20.158-26.4-18.541-8.371 1.15-12.237 5.887-14.016 9.812z" fill="#2EB3E5"/>
            <path d="m90.205 214.88-6.257 3.789s-.884.416-2.057-.948c-2.488-2.9-4.444-7.74-4.411-13.262.075-13.74 9.855-22.811 9.855-22.811s-6.741 7.45-4.351 21.386c.657 3.828 2.933 9.415 4.955 11.218 1.313 1.171 2.266.628 2.266.628z" fill="#2EB3E5"/>
            <path d="M230.315 216.719s16.111 26.512 34.516 26.255l-6.236-6.978 8.234-2.997s-22.461-3.415-33.308-18.039l-3.205 1.755-.001.004z" fill="#CC432D"/>
            <path d="M233.852 216.077s3.931 30.804 20.835 38.076l-2.855-8.92 8.733.623s-19.114-12.286-23.071-30.073l-3.64.298-.002-.004z" fill="#DF4A32"/>
            <path d="M286.699 202.87s-48.852 6.533-79.721 63.309c0 0-26.031-2.697-22.662-24.796l87.717-60.152 14.666 21.639z" fill="#D9D9D9"/>
            <path d="M283.32 178.773c-5.702-6.78-14.976-8.343-20.718-3.494-5.741 4.849-5.773 14.277-.071 21.056 5.702 6.779 14.975 8.342 20.717 3.493 5.741-4.849 5.774-14.276.072-21.055z" fill="#fff"/>
            <path d="M281.692 200.936s-43.163 12.08-71.377 56.48l-20.385-24.501s48.374-25.352 72.676-57.635l19.086 25.656z" fill="#fff"/>
            <path d="M209.342 237.361c-5.702-6.78-14.976-8.343-20.717-3.494-5.742 4.849-5.774 14.277-.071 21.053 5.699 6.778 14.976 8.342 20.717 3.493 5.742-4.849 5.774-14.276.071-21.052z" fill="#BFBFBF"/>
            <path d="M194.137 231.275s15.345 10.859 6.751 20.936l11.283-10.299s-5.346-13.045-18.034-10.637z" fill="#D9D9D9"/>
            <path d="M200.892 252.212s-5.983 2.05-9.23-5.664l10.359-6.465s5.101 7.275-1.129 12.129z" fill="#A9A9A9"/>
            <path d="M238.223 227.115s1.89-14.993-13.868-16.003l9.628-7.358s18.3 3.038 12.526 16.913l-8.287 6.451.001-.003z" fill="#F44040"/>
        </g>
        <path d="M82.516 38.281c-2.196.016-3.758 1.328-3.75 3.266-.008 1.75 1.265 2.984 3.125 3.21v2.415a112.3 112.3 0 0 1-3.844.047l.172 1.031c2.5-.008 5.914-.016 9.094-.61l-.094-.906c-1.313.203-2.719.32-4.094.391v-2.367c1.852-.219 3.117-1.461 3.125-3.211-.008-1.938-1.555-3.25-3.734-3.266zm-2.547 3.266c-.008-1.305 1.062-2.188 2.547-2.188 1.468 0 2.539.883 2.53 2.188.009 1.289-1.062 2.195-2.53 2.187-1.485.008-2.555-.898-2.547-2.187zm8.172 9.75h1.218V37.375h-1.218v13.922zm16.359-5.672H91.781v1H97.5v4.64h1.203v-4.64h5.797v-1zm-11.094-1.688h9.453v-5.984h-1.234v1.922h-7v-1.922h-1.219v5.984zm1.219-1v-2.062h7v2.063h-7zm21.984-4.265v-.797h-1.265v.797c0 1.992-2.539 3.648-5.047 4l.5 1c2.164-.36 4.297-1.54 5.187-3.258.891 1.703 3.032 2.898 5.188 3.258l.5-1c-2.508-.352-5.055-2.04-5.063-4zm-6.968 7.562h5.703v5.032h1.203v-5.032h5.75v-1.03h-12.656v1.03zm18.468-6.609v-1.531h-1.203v1.437c-.008 2.149-1.406 4.008-3.484 4.782l.656.984a5.94 5.94 0 0 0 3.461-3.555c.609 1.453 1.82 2.602 3.352 3.164l.671-.968c-2.015-.688-3.453-2.422-3.453-4.313zm-2.843 9.078c.007 1.617 1.75 2.531 4.609 2.531 2.852 0 4.578-.914 4.578-2.53 0-1.587-1.726-2.517-4.578-2.517-2.859 0-4.602.93-4.609 2.516zm1.234 0c-.016-.945 1.281-1.531 3.375-1.531 2.102 0 3.383.586 3.391 1.531-.008.984-1.289 1.555-3.391 1.563-2.094-.008-3.391-.578-3.375-1.563zm6.609-2.875h1.219v-3.797h2.094V41h-2.094v-3.625h-1.219v8.453zm10.516-8.203c-3.102 0-4.922.852-4.922 2.39 0 1.579 1.82 2.43 4.922 2.438 3.086-.008 4.898-.86 4.906-2.437-.008-1.54-1.82-2.391-4.906-2.391zm-6.328 6.766h12.656v-1h-12.656v1zm1.531 2.14h8.297v1.266h-8.266v3.312h9.891v-.968h-8.672v-1.438h8.25v-3.11h-9.5v.938zm1.156-6.515c-.015-.914 1.336-1.461 3.641-1.47 2.305.009 3.648.556 3.656 1.47-.008.968-1.351 1.5-3.656 1.5s-3.656-.532-3.641-1.5zm27.813 3.968h-12.656V45h12.656v-1.016zm-11.938-1.812.438.984c2.289-.289 4.406-1.312 5.172-2.851.765 1.539 2.898 2.562 5.172 2.851l.453-.984c-2.461-.281-4.774-1.492-4.828-3.063h4.406v-1.015h-10.375v1.015h4.375c-.055 1.586-2.391 2.782-4.813 3.063zm.813 6.562c-.008 1.61 1.797 2.5 4.797 2.5 2.976 0 4.765-.89 4.781-2.5-.016-1.593-1.805-2.515-4.781-2.515-3 0-4.805.922-4.797 2.515zm1.25 0c-.016-.976 1.32-1.53 3.547-1.547 2.203.016 3.539.57 3.547 1.547-.008.97-1.344 1.524-3.547 1.516-2.227.008-3.563-.547-3.547-1.516zm13-10.484h-1.219v6.438h6.531V38.25h-1.218v2.156h-4.094V38.25zm0 5.422v-2.297h4.094v2.297h-4.094zm.187 5c-.007 1.625 1.774 2.562 4.688 2.562 2.906 0 4.672-.937 4.687-2.562-.015-1.656-1.781-2.594-4.687-2.61-2.914.016-4.695.954-4.688 2.61zm1.235 0c0-1.04 1.289-1.633 3.453-1.64 2.156.007 3.469.6 3.469 1.64 0 .984-1.313 1.594-3.469 1.594-2.164 0-3.453-.61-3.453-1.594zm6.875-2.86h1.219v-8.421h-1.219v8.422zm14.437-8.484h-1.218v7.688h1.218v-3.297h2.11v-1.016h-2.11v-3.375zm-10.828 2.297h8.281v-.984h-3.531v-1.407h-1.219v1.407h-3.531v.984zm.797 2.906c-.008 1.414 1.32 2.274 3.344 2.282 2.015-.008 3.328-.868 3.343-2.282-.015-1.406-1.328-2.273-3.343-2.281-2.024.008-3.352.875-3.344 2.281zm1.172 4.125h7.641v1.25h-7.61v3.203h9.344v-.937h-8.141v-1.36h7.625v-3.078h-8.859v.922zm0-4.125c-.008-.828.851-1.367 2.172-1.375 1.312.008 2.172.547 2.187 1.375-.015.836-.875 1.36-2.187 1.36-1.321 0-2.18-.524-2.172-1.36zm22.812-3.86v-.796h-1.265v.797c0 1.992-2.539 3.648-5.047 4l.5 1c2.164-.36 4.297-1.54 5.187-3.258.891 1.703 3.032 2.898 5.188 3.258l.5-1c-2.508-.352-5.055-2.04-5.063-4zm-6.968 7.563h5.703v5.032h1.203v-5.032h5.75v-1.03h-12.656v1.03zm22.547.47v-.767H222v.766c-.016 1.328-1.07 2.813-2.828 3.469l.625.906a4.917 4.917 0 0 0 2.781-2.586c.414 1.164 1.274 2.18 2.625 2.696 1.281-.54 2.133-1.61 2.563-2.735.484 1.164 1.453 2.133 2.843 2.625l.61-.906c-1.781-.617-2.836-2.04-2.828-3.469v-.766h-1.203v.766c.007 1.07-.696 2.461-2.024 3.281-1.32-.75-1.984-2.054-1.976-3.28zm-4.376-5.25c-.007 1.905 1.532 3.218 3.641 3.218s3.633-1.313 3.641-3.219c-.008-1.937-1.532-3.258-3.641-3.25-2.109-.008-3.648 1.313-3.641 3.25zm1.204 0c-.016-1.298 1.007-2.22 2.437-2.204 1.414-.016 2.438.906 2.438 2.203 0 1.29-1.024 2.195-2.438 2.203-1.43-.008-2.453-.914-2.437-2.203zm8.718 3.874h1.219v-7.937h-1.219v7.937zm14.813-3.734h-8.297V37.89h-1.219v4.687h9.516v-.984zm-11.25 3.875h12.719v-1h-12.719v1zm1.656 5.453h9.672v-1.016h-8.453v-3.015h-1.219v4.03zM133.461 67.844h-12.875v1.406h12.875v-1.406zm-12.25-2 .594 1.375c2.562-.266 4.437-1.29 5.203-2.719.765 1.43 2.664 2.453 5.234 2.719l.61-1.375c-2.68-.258-4.368-1.32-4.625-2.485h4.078v-1.422h-10.547v1.422h4.039c-.266 1.18-1.969 2.227-4.586 2.485zm.875 6.937c0 1.664 1.852 2.594 4.922 2.594 3.047 0 4.883-.93 4.89-2.594-.007-1.64-1.843-2.594-4.89-2.594-3.07 0-4.922.954-4.922 2.594zm1.766 0c-.008-.82 1.101-1.234 3.156-1.234 2.023 0 3.14.414 3.156 1.234-.016.82-1.133 1.227-3.156 1.235-2.055-.008-3.164-.414-3.156-1.235zm13-10.64h-1.719v6.64h6.812v-6.64h-1.734v1.953h-3.359V62.14zm-.282 10.562c0 1.688 1.836 2.672 4.828 2.672 2.977 0 4.813-.984 4.813-2.672 0-1.719-1.836-2.703-4.813-2.703-2.992 0-4.828.984-4.828 2.703zm.282-5.312v-1.938h3.359v1.938h-3.359zm1.468 5.312c0-.906 1.086-1.367 3.078-1.375 1.985.008 3.102.469 3.11 1.375-.008.844-1.125 1.328-3.11 1.328-1.992 0-3.078-.484-3.078-1.328zm6.11-2.937h1.75V61.28h-1.75v8.485zm8.875-4.485v-1.187h2.953v-1.438h-7.766v1.438h3.078v1.187c-.008 2.352-1.375 4.992-3.625 6.063l1.016 1.36c1.625-.782 2.859-2.438 3.5-4.376.633 1.766 1.812 3.281 3.406 4.031l.969-1.375c-2.227-1.039-3.539-3.523-3.531-5.703zm4.265 10.11h1.735v-7.172h2.172v-1.453h-2.172v-5.5h-1.735V75.39zm17.407-3.079h-3.266v-2.328h2.062v-1.406h-8.437v-1.812h8.109v-4.532h-9.875v1.407h8.157v1.734h-8.125v4.61h1.89v2.328h-3.422v1.437h12.907v-1.438zm-7.797 0v-2.328h2.828v2.329h-2.828zm24.234-10.406h-10.547v1.39h4.063c-.164 1.329-1.868 2.602-4.594 2.923l.641 1.375c2.531-.305 4.382-1.43 5.14-2.946.758 1.524 2.625 2.641 5.156 2.946l.657-1.375c-2.727-.32-4.453-1.586-4.61-2.922h4.094v-1.39zm-11.734 7.875h5.734v2.578h1.719v-2.578h5.453v-1.406H179.68v1.406zm1.562 5.328h9.922v-1.406h-8.187v-2.64h-1.735v4.046zm24.031-13.843h-1.75v14.14h1.75v-14.14zm-11 10.812h6.875v-9.656h-1.718v3.531h-3.422v-3.531h-1.735v9.656zm1.735-1.422v-3.344h3.422v3.344h-3.422z" fill="#202020"/>
    </g>
    <defs>
        <linearGradient id="wkzugqlbxd" x1="64.999" y1="231.403" x2="86.798" y2="237.68" gradientUnits="userSpaceOnUse">
            <stop stop-color="#FFEA95"/>
            <stop offset="1" stop-color="#FFEA95" stop-opacity="0"/>
        </linearGradient>
        <linearGradient id="n2v8w83vye" x1="152.307" y1="248.438" x2="93.076" y2="240.134" gradientUnits="userSpaceOnUse">
            <stop stop-color="#F39601"/>
            <stop offset="1" stop-color="#F39601" stop-opacity="0"/>
        </linearGradient>
        <linearGradient id="9wuima6bgf" x1="78.998" y1="219.853" x2="98.419" y2="241.73" gradientUnits="userSpaceOnUse">
            <stop stop-color="#F39601"/>
            <stop offset="1" stop-color="#F39601" stop-opacity="0"/>
        </linearGradient>
        <linearGradient id="th5icw6rpg" x1="116.195" y1="254.404" x2="93.977" y2="238.141" gradientUnits="userSpaceOnUse">
            <stop stop-color="#F39601"/>
            <stop offset="1" stop-color="#F39601" stop-opacity="0"/>
        </linearGradient>
        <linearGradient id="vhr039wlih" x1="126.465" y1="244.528" x2="96.742" y2="240.658" gradientUnits="userSpaceOnUse">
            <stop stop-color="#FFEA95"/>
            <stop offset="1" stop-color="#FFEA95" stop-opacity="0"/>
        </linearGradient>
        <linearGradient id="0y1gkc6lki" x1="98.475" y1="257.108" x2="99.45" y2="256.647" gradientUnits="userSpaceOnUse">
            <stop stop-color="#F39601"/>
            <stop offset="1" stop-color="#F39601" stop-opacity="0"/>
        </linearGradient>
        <linearGradient id="s2hma9ju9j" x1="99.076" y1="258.379" x2="101.315" y2="257.321" gradientUnits="userSpaceOnUse">
            <stop stop-color="#F39601"/>
            <stop offset="1" stop-color="#F39601" stop-opacity="0"/>
        </linearGradient>
        <linearGradient id="osgat8lbjk" x1="99.482" y1="259.239" x2="100.688" y2="258.669" gradientUnits="userSpaceOnUse">
            <stop stop-color="#F39601"/>
            <stop offset="1" stop-color="#F39601" stop-opacity="0"/>
        </linearGradient>
        <linearGradient id="y5160k60hl" x1="97.761" y1="259.786" x2="99.379" y2="259.022" gradientUnits="userSpaceOnUse">
            <stop stop-color="#F39601"/>
            <stop offset="1" stop-color="#F39601" stop-opacity="0"/>
        </linearGradient>
        <linearGradient id="5rq096hfpm" x1="96.795" y1="258.749" x2="98.803" y2="257.801" gradientUnits="userSpaceOnUse">
            <stop stop-color="#F39601"/>
            <stop offset="1" stop-color="#F39601" stop-opacity="0"/>
        </linearGradient>
        <linearGradient id="yx0ia4zbdn" x1="97.876" y1="257.391" x2="98.851" y2="256.93" gradientUnits="userSpaceOnUse">
            <stop stop-color="#FFEA95" stop-opacity=".4"/>
            <stop offset="1" stop-color="#FFEA95" stop-opacity="0"/>
        </linearGradient>
        <linearGradient id="yypwqlu19o" x1="98.779" y1="257.75" x2="101.018" y2="256.693" gradientUnits="userSpaceOnUse">
            <stop stop-color="#FFEA95" stop-opacity=".4"/>
            <stop offset="1" stop-color="#FFEA95" stop-opacity="0"/>
        </linearGradient>
        <linearGradient id="xcl1bay1yp" x1="99.258" y1="259.344" x2="100.486" y2="258.764" gradientUnits="userSpaceOnUse">
            <stop stop-color="#FFEA95" stop-opacity=".4"/>
            <stop offset="1" stop-color="#FFEA95" stop-opacity="0"/>
        </linearGradient>
        <linearGradient id="g9zbtprn4q" x1="97.761" y1="259.786" x2="99.379" y2="259.022" gradientUnits="userSpaceOnUse">
            <stop stop-color="#FFEA95" stop-opacity=".4"/>
            <stop offset="1" stop-color="#FFEA95" stop-opacity="0"/>
        </linearGradient>
        <linearGradient id="ort60qx1kr" x1="104.034" y1="255.092" x2="104.829" y2="254.717" gradientUnits="userSpaceOnUse">
            <stop stop-color="#F39601"/>
            <stop offset="1" stop-color="#F39601" stop-opacity="0"/>
        </linearGradient>
        <linearGradient id="z0mvcofizs" x1="102.349" y1="257.098" x2="104.502" y2="256.081" gradientUnits="userSpaceOnUse">
            <stop stop-color="#F39601"/>
            <stop offset="1" stop-color="#F39601" stop-opacity="0"/>
        </linearGradient>
        <linearGradient id="30hngeackt" x1="103.671" y1="257.764" x2="105" y2="257.136" gradientUnits="userSpaceOnUse">
            <stop stop-color="#F39601"/>
            <stop offset="1" stop-color="#F39601" stop-opacity="0"/>
        </linearGradient>
        <linearGradient id="rkw4rqw33u" x1="105" y1="257.136" x2="106.329" y2="256.508" gradientUnits="userSpaceOnUse">
            <stop stop-color="#F39601"/>
            <stop offset="1" stop-color="#F39601" stop-opacity="0"/>
        </linearGradient>
        <linearGradient id="i8ymyo9rmv" x1="104.502" y1="256.081" x2="106.654" y2="255.065" gradientUnits="userSpaceOnUse">
            <stop stop-color="#F39601"/>
            <stop offset="1" stop-color="#F39601" stop-opacity="0"/>
        </linearGradient>
        <linearGradient id="6qzanjzbdw" x1="103.233" y1="255.47" x2="104.034" y2="255.092" gradientUnits="userSpaceOnUse">
            <stop stop-color="#FFEA95" stop-opacity=".4"/>
            <stop offset="1" stop-color="#FFEA95" stop-opacity="0"/>
        </linearGradient>
        <linearGradient id="cuwgmm7ujx" x1="103.671" y1="257.764" x2="105" y2="257.136" gradientUnits="userSpaceOnUse">
            <stop stop-color="#FFEA95" stop-opacity=".4"/>
            <stop offset="1" stop-color="#FFEA95" stop-opacity="0"/>
        </linearGradient>
        <linearGradient id="i6bvg03guy" x1="105" y1="257.136" x2="106.329" y2="256.508" gradientUnits="userSpaceOnUse">
            <stop stop-color="#FFEA95" stop-opacity=".4"/>
            <stop offset="1" stop-color="#FFEA95" stop-opacity="0"/>
        </linearGradient>
        <linearGradient id="subfk131xz" x1="104.307" y1="255.67" x2="106.46" y2="254.653" gradientUnits="userSpaceOnUse">
            <stop stop-color="#FFEA95" stop-opacity=".4"/>
            <stop offset="1" stop-color="#FFEA95" stop-opacity="0"/>
        </linearGradient>
        <linearGradient id="i40sfsp7zA" x1="108.661" y1="252.297" x2="109.643" y2="251.833" gradientUnits="userSpaceOnUse">
            <stop stop-color="#F39601"/>
            <stop offset="1" stop-color="#F39601" stop-opacity="0"/>
        </linearGradient>
        <linearGradient id="iqcd9i9o0B" x1="107.404" y1="254.446" x2="109.644" y2="253.388" gradientUnits="userSpaceOnUse">
            <stop stop-color="#F39601"/>
            <stop offset="1" stop-color="#F39601" stop-opacity="0"/>
        </linearGradient>
        <linearGradient id="r5eq9dovxC" x1="109.039" y1="254.725" x2="110.274" y2="254.142" gradientUnits="userSpaceOnUse">
            <stop stop-color="#F39601"/>
            <stop offset="1" stop-color="#F39601" stop-opacity="0"/>
        </linearGradient>
        <linearGradient id="o21silbasD" x1="109.944" y1="254.024" x2="111.562" y2="253.259" gradientUnits="userSpaceOnUse">
            <stop stop-color="#F39601"/>
            <stop offset="1" stop-color="#F39601" stop-opacity="0"/>
        </linearGradient>
        <linearGradient id="0oipbsfodE" x1="109.371" y1="252.81" x2="111.372" y2="251.865" gradientUnits="userSpaceOnUse">
            <stop stop-color="#F39601"/>
            <stop offset="1" stop-color="#F39601" stop-opacity="0"/>
        </linearGradient>
        <linearGradient id="kchg55mmcF" x1="108.068" y1="252.577" x2="109.043" y2="252.117" gradientUnits="userSpaceOnUse">
            <stop stop-color="#FFEA95" stop-opacity=".4"/>
            <stop offset="1" stop-color="#FFEA95" stop-opacity="0"/>
        </linearGradient>
        <linearGradient id="mu4hyrfoeG" x1="108.843" y1="254.817" x2="110.05" y2="254.248" gradientUnits="userSpaceOnUse">
            <stop stop-color="#FFEA95" stop-opacity=".4"/>
            <stop offset="1" stop-color="#FFEA95" stop-opacity="0"/>
        </linearGradient>
        <linearGradient id="i782wf6mxH" x1="109.944" y1="254.024" x2="111.562" y2="253.259" gradientUnits="userSpaceOnUse">
            <stop stop-color="#FFEA95" stop-opacity=".4"/>
            <stop offset="1" stop-color="#FFEA95" stop-opacity="0"/>
        </linearGradient>
        <linearGradient id="u72gzog71I" x1="107.108" y1="253.817" x2="109.347" y2="252.76" gradientUnits="userSpaceOnUse">
            <stop stop-color="#FFEA95" stop-opacity=".4"/>
            <stop offset="1" stop-color="#FFEA95" stop-opacity="0"/>
        </linearGradient>
        <linearGradient id="ghc4bobdtJ" x1="109.286" y1="252.63" x2="111.287" y2="251.685" gradientUnits="userSpaceOnUse">
            <stop stop-color="#FFEA95" stop-opacity=".4"/>
            <stop offset="1" stop-color="#FFEA95" stop-opacity="0"/>
        </linearGradient>
        <linearGradient id="zi1p8dw93K" x1="109.944" y1="254.024" x2="111.562" y2="253.259" gradientUnits="userSpaceOnUse">
            <stop stop-color="#FFEA95" stop-opacity=".4"/>
            <stop offset="1" stop-color="#FFEA95" stop-opacity="0"/>
        </linearGradient>
        <linearGradient id="4rrhsxlhqL" x1="92.611" y1="247.938" x2="99.14" y2="244.855" gradientUnits="userSpaceOnUse">
            <stop stop-color="#FFEA95" stop-opacity=".4"/>
            <stop offset="1" stop-color="#FFEA95" stop-opacity="0"/>
        </linearGradient>
        <linearGradient id="a12s48o8iM" x1="90.414" y1="236.682" x2="94.925" y2="234.551" gradientUnits="userSpaceOnUse">
            <stop stop-color="#FFEA95" stop-opacity=".4"/>
            <stop offset="1" stop-color="#FFEA95" stop-opacity="0"/>
        </linearGradient>
        <linearGradient id="i1qtqbtrsN" x1="99.138" y1="244.851" x2="105.671" y2="241.765" gradientUnits="userSpaceOnUse">
            <stop stop-color="#FFEA95" stop-opacity=".4"/>
            <stop offset="1" stop-color="#FFEA95" stop-opacity="0"/>
        </linearGradient>
        <linearGradient id="amje9zuqfO" x1="85.175" y1="242.654" x2="95.743" y2="237.663" gradientUnits="userSpaceOnUse">
            <stop stop-color="#FFEA95" stop-opacity=".4"/>
            <stop offset="1" stop-color="#FFEA95" stop-opacity="0"/>
        </linearGradient>
        <linearGradient id="qrfws5ul8P" x1="95.743" y1="237.663" x2="106.312" y2="232.672" gradientUnits="userSpaceOnUse">
            <stop stop-color="#FFEA95" stop-opacity=".4"/>
            <stop offset="1" stop-color="#FFEA95" stop-opacity="0"/>
        </linearGradient>
        <linearGradient id="5jv0ia41yQ" x1="94.393" y1="234.803" x2="98.31" y2="232.953" gradientUnits="userSpaceOnUse">
            <stop stop-color="#F39601"/>
            <stop offset="1" stop-color="#F39601" stop-opacity="0"/>
        </linearGradient>
        <linearGradient id="b7eu8vt4kR" x1="86.124" y1="244.663" x2="96.692" y2="239.672" gradientUnits="userSpaceOnUse">
            <stop stop-color="#F39601"/>
            <stop offset="1" stop-color="#F39601" stop-opacity="0"/>
        </linearGradient>
        <linearGradient id="crdn4k4skS" x1="92.611" y1="247.938" x2="99.14" y2="244.855" gradientUnits="userSpaceOnUse">
            <stop stop-color="#F39601"/>
            <stop offset="1" stop-color="#F39601" stop-opacity="0"/>
        </linearGradient>
        <linearGradient id="0r0j3mshhT" x1="99.138" y1="244.851" x2="105.671" y2="241.765" gradientUnits="userSpaceOnUse">
            <stop stop-color="#F39601"/>
            <stop offset="1" stop-color="#F39601" stop-opacity="0"/>
        </linearGradient>
        <linearGradient id="f3pvlyyxhU" x1="96.692" y1="239.672" x2="107.261" y2="234.681" gradientUnits="userSpaceOnUse">
            <stop stop-color="#F39601"/>
            <stop offset="1" stop-color="#F39601" stop-opacity="0"/>
        </linearGradient>
        <clipPath id="s3k3i6f0za">
            <rect width="327" height="296" rx="16" fill="#fff"/>
        </clipPath>
        <clipPath id="015zryglnb">
            <path fill="#fff" transform="translate(1 96)" d="M0 0h326v200H0z"/>
        </clipPath>
        <filter id="pm0wft11nc" x="114.236" y="121.966" width="114.95" height="136.79" filterUnits="userSpaceOnUse" color-interpolation-filters="sRGB">
            <feFlood flood-opacity="0" result="BackgroundImageFix"/>
            <feBlend in="SourceGraphic" in2="BackgroundImageFix" result="shape"/>
            <feGaussianBlur stdDeviation="2" result="effect1_foregroundBlur_8359_173465"/>
        </filter>
    </defs>
</svg>
