<svg width="327" height="296" viewBox="0 0 327 296" fill="none" xmlns="http://www.w3.org/2000/svg">
    <g clip-path="url(#d0js2clzta)">
        <rect width="327" height="296" rx="16" fill="#F7F5F2"/>
        <g filter="url(#ujpxefcfxb)">
            <path d="M86.082 129.992c0-12.146 9.846-21.992 21.992-21.992H220.04c12.146 0 21.992 9.846 21.992 21.992V284H86.082V129.992z" fill="#fff"/>
        </g>
        <mask id="b29tq4audc" style="mask-type:alpha" maskUnits="userSpaceOnUse" x="92" y="113" width="145" height="171">
            <path fill-rule="evenodd" clip-rule="evenodd" d="M109.674 113.714c-9.717 0-17.594 7.877-17.594 17.594v152.393h143.954V131.308c0-9.717-7.877-17.594-17.594-17.594H109.674zm26.792 1.122v-1.122h-2.399c1.325 0 2.399.503 2.399 1.122zm54.582-.327v.327c0-.619 1.075-1.122 2.4-1.122h-56.982v.795a5.499 5.499 0 0 0 5.498 5.498h43.586a5.498 5.498 0 0 0 5.498-5.498z" fill="#fff"/>
        </mask>
        <g filter="url(#q4si0nenbd)" mask="url(#b29tq4audc)">
            <path fill-rule="evenodd" clip-rule="evenodd" d="M109.674 113.714c-9.717 0-17.594 7.877-17.594 17.594V316h143.954V131.308c0-9.717-7.877-17.594-17.594-17.594H109.674zm26.792 1.143v-1.143h-2.399c1.325 0 2.399.512 2.399 1.143zm54.582-.231v.231c0-.631 1.075-1.143 2.4-1.143h-56.982v.912a5.499 5.499 0 0 0 5.498 5.498h43.586a5.498 5.498 0 0 0 5.498-5.498z" fill="#F9F7F4"/>
        </g>
        <g filter="url(#16ckpaghee)">
            <rect x="49" y="248" width="229" height="36" rx="9.355" fill="#F60"/>
            <path d="M123.529 271.649h1.41v-11.492h-1.41v11.492zm-3.721-5.31c1.445-.256 2.442-1.293 2.446-2.707-.004-1.63-1.333-2.765-3.151-2.77-1.805.005-3.156 1.14-3.151 2.77-.005 1.414 1.005 2.451 2.446 2.707v1.732a98.436 98.436 0 0 1-2.963.036l.171 1.15c2.029-.005 4.781-.023 7.348-.503l-.107-1.024c-.979.144-2.016.229-3.039.283v-1.674zm-2.456-2.707c-.009-.97.745-1.553 1.751-1.553 1.014 0 1.773.583 1.773 1.553 0 .947-.754 1.562-1.773 1.558-1.006.004-1.76-.611-1.751-1.558zm17.049-3.021v1.409h-5.136v-1.409h-1.391v5.023h7.941v-5.023h-1.414zm-5.136 3.887v-1.364h5.136v1.364h-5.136zm-2.662 2.335v1.117h4.516v3.672h1.396v-3.672h4.579v-1.117h-10.491zm19.573-3.906c.745 1.297 2.294 2.254 4.242 2.541l.557-1.14c-2.442-.315-4.063-1.778-4.063-3.219v-.588h-1.481v.588c0 1.45-1.616 2.904-4.045 3.219l.561 1.14c1.93-.287 3.475-1.244 4.229-2.541zm-5.239 3.537v1.163h4.503v3.995h1.396v-3.995h4.556v-1.163h-10.455zm20.29-6.307h-1.419v6.86h1.419v-2.9h1.602v-1.176h-1.602v-2.784zm-5.674 3.973c.494 1.064 1.387 1.903 2.626 2.321l.754-1.1c-1.764-.561-2.698-1.926-2.698-3.371v-1.217h-1.409v1.087c-.009 1.643-.934 3.169-2.784 3.811l.764 1.113c1.324-.471 2.248-1.427 2.747-2.644zm1.939 3.142c-2.397-.004-3.887.799-3.883 2.164-.004 1.387 1.486 2.182 3.883 2.177 2.37.005 3.838-.79 3.838-2.177 0-1.365-1.468-2.168-3.838-2.164zm0 3.232c-1.576-.004-2.478-.363-2.473-1.068-.005-.673.897-1.059 2.473-1.059 1.571 0 2.451.386 2.451 1.059 0 .705-.88 1.064-2.451 1.068zm11.69-7.065v-1.778h6.513v-1.144h-7.914v4.058h7.977v-1.136h-6.576zm-2.689 3.187h10.473v-1.154h-10.473v1.154zm5.212.795c-2.492 0-3.996.754-3.996 2.091 0 1.347 1.504 2.106 3.996 2.101 2.482.005 3.972-.754 3.977-2.101-.005-1.337-1.495-2.091-3.977-2.091zm0 3.106c-1.666 0-2.568-.341-2.559-1.015-.009-.65.893-1.005 2.559-1.01 1.647.005 2.558.36 2.567 1.01-.009.674-.92 1.015-2.567 1.015zm11.953-5.122h3.475v-1.095h-6.689v-.916h6.464v-2.99h-7.891v1.105h6.482v.857h-6.455v3.039h3.218v.956h-4.547v1.14h10.49v-1.14h-4.547v-.956zm1.894 3.941v2.209h1.419v-3.331h-8.085v1.122h6.666zm12.398-4.619v-4.57h-1.396v11.465h1.396v-5.732h1.769v-1.163h-1.769zm-6.338-4.408v1.594h-2.711v1.14h6.769v-1.14h-2.648v-1.594h-1.41zm.714 3.475c-1.675 0-2.905 1.117-2.896 2.702-.009 1.584 1.221 2.698 2.896 2.698 1.652 0 2.877-1.114 2.886-2.698-.009-1.585-1.234-2.702-2.886-2.702zm0 4.233c-.898.009-1.553-.588-1.544-1.531-.009-.929.646-1.544 1.544-1.544.884 0 1.526.615 1.535 1.544-.009.943-.651 1.54-1.535 1.531zm16.029 3.595h1.423v-11.465h-1.423v11.465zm-7.496-10.248v1.118h4.062c-.251 2.612-1.643 4.547-4.646 5.975l.741 1.131c4.013-1.908 5.337-4.808 5.342-8.224h-5.499z" fill="#fff"/>
        </g>
        <g opacity=".15" filter="url(#ytdcqqi2vf)" fill="#525252">
            <path d="M184.224 224.824c-.045-4.68-8.918-8.39-19.82-8.286-10.903.105-19.702 3.984-19.658 8.664l.022 2.26c.044 4.681 8.918 8.391 19.819 8.286 10.901-.104 19.703-3.983 19.659-8.663l-.022-2.261z"/>
            <path d="M183.028 224.765c.037 3.979-8.234 7.284-18.474 7.382-10.239.098-18.574-3.048-18.611-7.027-.038-3.978 8.233-7.283 18.473-7.381 10.239-.098 18.572 3.048 18.61 7.026h.002zM203.528 186.765c-.498 11.582-21.348 15.168-21.781 14.936-.433-.231 4.206-7.283 4.206-7.283s11.025-2.429 11.205-7.528c.18-5.098-6.526-4.291-6.526-4.291l.81-6.028s12.583-1.387 12.086 10.194zM135.968 175.714s-13.247-.807-12.133 11.294c1.114 12.101 23.127 14.78 23.568 14.514.442-.264-4.776-7.408-4.776-7.408s-11.667-1.974-12.117-7.303c-.45-5.329 6.613-4.829 6.613-4.829l-1.155-6.268z"/>
            <path d="m153.768 205.46 8.356-1.201-.001-.738 2.613.364 2.611-.376.002.738 8.362 1.162s-3.389.482-3.819 19.095c-2.17.786-3.492 1.223-7.105 1.231-3.613.009-4.936-.422-7.111-1.198-.518-18.609-3.908-19.077-3.908-19.077z"/>
            <path d="m193.349 172.773.014 6.03c.037 15.928-12.799 28.87-28.669 28.907-15.87.037-28.766-12.845-28.803-28.773l-.014-6.03 57.472-.134z"/>
            <path d="M196.646 169.821c-.031 2.136-1.848 4.15-4.062 4.446a234.007 234.007 0 0 1-57.342-.837c-2.204-.359-3.964-2.426-3.933-4.563.03-2.137 1.848-4.15 4.062-4.446a234 234 0 0 1 57.341.837c2.206.36 3.964 2.426 3.934 4.563z"/>
            <path d="M188.938 165.938a4.05 4.05 0 0 0 2.043-.919 234.143 234.143 0 0 0-53.873-.782 4.047 4.047 0 0 0 2.016.977 203.377 203.377 0 0 0 49.815.724h-.001z"/>
        </g>
        <path d="M183.224 223.824c-.045-4.68-8.918-8.39-19.82-8.286-10.903.105-19.702 3.984-19.658 8.664l.022 2.26c.044 4.681 8.918 8.391 19.819 8.286 10.901-.104 19.703-3.983 19.659-8.663l-.022-2.261z" fill="#FFCE1F"/>
        <path d="M182.028 223.765c.037 3.979-8.234 7.284-18.474 7.382-10.239.098-18.574-3.048-18.611-7.027-.038-3.978 8.233-7.283 18.473-7.381 10.239-.098 18.572 3.048 18.61 7.026h.002z" fill="#FFDE7B"/>
        <path d="M202.528 185.765c-.498 11.582-21.348 15.168-21.781 14.936-.433-.231 4.206-7.283 4.206-7.283s11.025-2.429 11.205-7.528c.18-5.098-6.526-4.291-6.526-4.291l.81-6.028s12.583-1.387 12.086 10.194zM134.968 174.714s-13.247-.807-12.133 11.294c1.114 12.101 23.127 14.78 23.568 14.514.442-.264-4.776-7.408-4.776-7.408s-11.667-1.974-12.117-7.303c-.45-5.329 6.613-4.829 6.613-4.829l-1.155-6.268z" fill="#FFCE1F"/>
        <path d="m152.768 204.46 8.356-1.201-.001-.738 2.613.364 2.611-.376.002.738 8.362 1.162s-3.389.482-3.819 19.095c-2.17.786-3.492 1.223-7.105 1.231-3.613.009-4.936-.422-7.111-1.198-.518-18.609-3.908-19.077-3.908-19.077z" fill="#F3C12D"/>
        <path d="m192.349 171.773.014 6.03c.037 15.928-12.799 28.87-28.669 28.907-15.87.037-28.766-12.845-28.803-28.773l-.014-6.03 57.472-.134z" fill="#FFD760"/>
        <path d="M195.646 168.821c-.031 2.136-1.848 4.15-4.062 4.446a234.007 234.007 0 0 1-57.342-.837c-2.204-.359-3.964-2.426-3.933-4.563.03-2.137 1.848-4.15 4.062-4.446a234 234 0 0 1 57.341.837c2.206.36 3.964 2.426 3.934 4.563z" fill="#FFE496"/>
        <path d="M187.938 164.938a4.05 4.05 0 0 0 2.043-.919 234.143 234.143 0 0 0-53.873-.782 4.047 4.047 0 0 0 2.016.977 203.377 203.377 0 0 0 49.815.724h-.001z" fill="#F3C12D"/>
        <circle cx="189.12" cy="160.354" r="16.709" fill="#1967FF"/>
        <path d="M187.108 153.63a2.02 2.02 0 0 1 4.04 0v13.466a2.02 2.02 0 0 1-4.04 0V153.63z" fill="#fff"/>
        <path d="M195.861 158.343a2.02 2.02 0 1 1 0 4.04h-13.466a2.02 2.02 0 0 1 0-4.04h13.466z" fill="#fff"/>
        <path d="M220.214 193.824c-.256.59-.45 1.33-.646 2.121-.015.037-.017.076-.032.113l3.752-.752s.016-.076.031-.113c.196-.778.391-1.531.646-2.121.234-.535.528-.907.875-.976l-3.751.752c-.348.07-.642.442-.875.976zM228.245 193.233c-.094.325-.184.671-.267 1.022-.196.791-.38 1.583-.621 2.244-.219.618-.487 1.099-.81 1.291l3.746-.759c.335-.191.591-.673.81-1.291.234-.668.424-1.453.621-2.244.083-.352.172-.697.267-1.022l-3.752.752.006.007z" fill="#FFDF87"/>
        <path d="M230.215 197.052c-.348.07-.761-.163-1.184-.568-.465-.44-.934-1.057-1.413-1.701-.492-.658-.965-1.308-1.445-1.831-.431-.482-.87-.824-1.25-.871-.553.109-3.198.643-3.751.753.379.046.811.395 1.249.871.468.522.953 1.173 1.445 1.83.486.651.954 1.268 1.414 1.701.422.406.836.638 1.183.569.554-.11 3.199-.643 3.752-.753z" fill="#FFC02E"/>
        <path d="M225.146 157.08a3.851 3.851 0 0 0-.574.394c-.83.745-1.097 2.023-1.267 3.078-.22 1.431-.234 2.887-.215 4.342.017 1.121.055 2.235.052 3.364.022.026.051.072.073.099.262.382 1.06 1.767 1.708 1.506a.805.805 0 0 0 .246-.256c.195-.363.213-.853.242-1.256.045-.662.035-1.314.025-1.967-.02-1.638-.089-3.28-.022-4.929.057-1.438.169-3.001.816-4.309.031-.069.055-.125.1-.188-.362-.045-.729-.041-1.07.09a.513.513 0 0 1-.134.04l.02-.008zM250.333 144.26l-.222.051c.734-.305 0 0 0 0-.271.162-.473.355-.575.51-.646.893-.937 2.11-1.194 3.176-.416 1.611-.722 3.236-1.042 4.856-.348 1.757-.696 3.514-1.119 5.254-.36 1.486-.775 2.981-1.419 4.357-.16.361-.368.717-.598 1.048.211.01.429.007.645-.03.128-.026.25-.039.37-.085.074-.017.12-.046.154-.048l.179-.103c.404-.236.734-.605.995-1.005.778-1.117 1.191-2.496 1.567-3.792.48-1.681.843-3.398 1.187-5.108.343-1.709.672-3.424 1.043-5.121.276-1.257.558-2.529 1.068-3.715-.167-.074-.32-.142-.499-.188a1.494 1.494 0 0 0-.54-.057z" fill="#FFB05C"/>
        <path d="m225.597 156.849-.458.245c.014.006.074-.017.135-.04.34-.131.707-.135 1.07-.09l.329.046c1.337.245 2.601.955 3.767 1.623 2.941 1.687 5.655 3.773 8.72 5.217 1.029.49 2.264 1.005 3.425.822.216-.037.41-.1.603-.197.04-.016.08-.031.106-.053a32.97 32.97 0 0 0 2.059-1.08c-.034.001-.074.017-.154.048a1.48 1.48 0 0 1-.37.085 2.92 2.92 0 0 1-.645.029c-.975-.05-1.968-.508-2.809-.898-3.066-1.444-5.788-3.55-8.728-5.238-1.167-.667-2.409-1.351-3.732-1.59-.46-.088-.943-.086-1.378.07l-.3.116c-.56.25-1.089.58-1.627.857l-.013.028zM256.59 145.892l-.815-.861c-.734-.741-1.584-1.634-2.612-1.941-.083-.037-.165-.04-.247-.043-.239.127-.578.292-1.051.497-.46.212-1.034.456-1.774.775a.536.536 0 0 1 .222-.051c.176-.021.361.011.54.057.165.04.332.114.498.188.807.392 1.522 1.141 2.114 1.753.357.358.707.729 1.051 1.115l2.062-1.462.012-.027z" fill="#FF7A21"/>
        <path d="M211.66 140.446c1.452-.988 2.716-2.369 3.66-3.995l2.893 2.544c-1.184 2.041-2.772 3.774-4.593 5.014l-1.959-3.562-.001-.001z" fill="#FF558E"/>
        <path d="m120.278 149.215-4.12 1.559 4.117 10.879 4.12-1.559-4.117-10.879z" fill="#5BCEC5"/>
        <path d="M92.311 199.998c-1.274-1.829-3.16-3.274-5.311-4.066L88.599 192c2.995 1.105 5.624 3.118 7.401 5.667L92.311 200v-.002z" fill="#86ABF3"/>
        <path d="M106.573 166.413s-.048.047-.065.071c-1.476 1.421-3.46 2.362-5.392 2.961-.479.144-.969.272-1.466.359-.691.126-1.39.21-2.08.241-2.72.105-5.423-.622-7.54-2.471a8.296 8.296 0 0 1-.614-.576c-.162-.173-.325-.345-.486-.53-.056-.076-.162-.172-.173-.188.382.501.763 1.016 1.158 1.519.443.55.9 1.089 1.422 1.557 1.788 1.626 4.027 2.485 6.34 2.669a12.889 12.889 0 0 0 4.605-.482c1.981-.565 4.024-1.457 5.567-2.868.047-.046.092-.08.14-.127-.47-.729-.865-1.501-1.428-2.15l.012.015z" fill="#FFC02E"/>
        <path d="M88.768 166.296a14.1 14.1 0 0 1-1.577-2.59 12.383 12.383 0 0 1-1.138-4.985c.54.161 1.09.27 1.657.342a12.125 12.125 0 0 0 .312 4.579 13.665 13.665 0 0 0 1.183 2.974 7.5 7.5 0 0 0 .225.384 16.797 16.797 0 0 1-.486-.53c-.056-.076-.163-.172-.174-.187l-.002.013zM80.325 153.843c-.908-1.306-1.302-2.992-.96-4.555.292-1.329.947-2.562 1.632-3.724 1.674-2.831 3.765-5.397 5.611-8.12.762-1.137 1.517-2.316 2.03-3.598.234-.57.426-1.227.427-1.86.131.02.246.064.373.11.102.042.201.097.285.164.073.051.158.117.23.169.036.032.072.064.118.111.094.095.172.201.24.292a.944.944 0 0 1 .085.147c.022.03.03.072.052.102.39.811.149 1.798-.146 2.601-.46 1.276-1.213 2.442-1.957 3.555-.905 1.371-1.882 2.691-2.848 4.026-.966 1.336-1.92 2.673-2.777 4.091-.713 1.172-1.383 2.417-1.73 3.75-.348 1.334-.14 2.737.458 3.956a5.409 5.409 0 0 1-.39-.367c-.093-.095-.184-.203-.276-.311-.147-.183-.296-.353-.429-.548l-.028.009zM99.017 146.493s.063.117.093.189c.06.13.109.259.157.387.016.07.046.141.065.198a3.367 3.367 0 0 0-.655-.3c-.858-.289-1.865.058-2.644.412-1.212.546-2.304 1.378-3.289 2.293-2.153 1.992-3.83 4.566-4.628 7.393-.653.05-1.312.046-1.987-.028.38-3.077 1.912-5.956 3.951-8.26a15.227 15.227 0 0 1 3.302-2.83c.876-.555 1.905-1.047 2.96-1.091 1.07-.042 1.87.629 2.535 1.401.022.031.043.074.076.119.02.044.043.074.077.119l-.013-.002z" fill="#FFDF87"/>
        <path d="M80.754 154.391c.091.108.185.202.276.31.13.127.258.254.39.368.035.032.083.066.119.098.395.328.824.607 1.272.849.91.486 1.899.795 2.91.96l.408.061a8.756 8.756 0 0 0 1.986.027c1.484-.114 2.935-.557 4.331-1.168 2.057-.89 4.035-2.155 5.466-3.905.924-1.14 1.637-2.58 1.524-4.077a4.692 4.692 0 0 0-.107-.634.803.803 0 0 0-.064-.198 4.95 4.95 0 0 0-.158-.387c-.031-.059-.061-.13-.093-.189a.67.67 0 0 0-.076-.119c-.034-.045-.054-.089-.076-.119.16.186.319.384.466.568.08.092.146.196.226.289.523.643 1.083 1.305 1.326 2.108.179.605.176 1.25.058 1.865-.303 1.663-1.442 3.08-2.669 4.174-1.8 1.614-4.145 2.811-6.462 3.46a10.5 10.5 0 0 1-4.109.315 10.324 10.324 0 0 1-1.657-.342 7.426 7.426 0 0 1-.552-.177c-1.43-.509-2.52-1.412-3.476-2.483-.011-.015-.035-.032-.047-.047a69.08 69.08 0 0 1-1.212-1.607zM88.648 130.727a1.59 1.59 0 0 0-.23-.263 1.936 1.936 0 0 0-1.041-.505c-.976-.133-1.966.284-2.834.693-1.26.605-2.44 1.384-3.608 2.178-.69.475-1.366.953-2.044 1.443l1.556 2.008c1.536-1.102 3.071-2.191 4.714-3.102.94-.532 1.992-1.088 3.083-1.194.26-.029.542-.027.804.026.131.019.246.063.373.109.102.042.201.098.285.164.073.051.157.118.23.169.036.032.072.064.118.112.023.03.058.062.08.092l-1.486-1.93z" fill="#FFC02E"/>
        <path d="M92.953 37.375h-1.219v13.89h1.22v-7.14h2.327v-1.016h-2.328v-5.734zm-10.828 3.25h8.266v-1.016h-3.47v-2.062h-1.218v2.062h-3.578v1.016zm.797 4.344c-.008 1.883 1.43 3.187 3.406 3.187 1.961 0 3.39-1.304 3.406-3.187-.015-1.875-1.445-3.188-3.406-3.188-1.976 0-3.414 1.313-3.406 3.188zm1.172 0c-.008-1.258.937-2.164 2.234-2.157 1.281-.007 2.219.899 2.234 2.157-.015 1.265-.953 2.156-2.234 2.14-1.297.016-2.242-.875-2.234-2.14zm22.797-7.594h-1.219v10.063h1.219v-4.891H109v-1.031h-2.109v-4.141zm-10.204 7.594h1.079c2.922 0 4.578-.094 6.531-.469l-.156-1.016c-1.86.375-3.446.461-6.235.453V39.61h4.969v-1.03h-6.188v6.39zm1.516 6h9.328v-1.032h-8.125v-3.515h-1.203v4.547zm16.203-12.578c-2.195.007-3.758 1.336-3.75 3.265-.008 1.938 1.555 3.258 3.75 3.266 2.18-.008 3.727-1.328 3.735-3.266-.008-1.93-1.555-3.258-3.735-3.265zm-4.468 8.797.171 1.046c2.5 0 5.914-.015 9.094-.609l-.094-.906c-3.07.453-6.609.476-9.171.468zm1.921-5.532c-.007-1.289 1.063-2.187 2.547-2.187 1.469 0 2.539.898 2.532 2.187.007 1.297-1.063 2.188-2.532 2.188-1.484 0-2.554-.89-2.547-2.188zm8.172 9.64h1.219V37.376h-1.219v13.922zm12.157-13.155c-2.219 0-3.883 1.398-3.876 3.406-.007 1.742 1.243 3.023 3.016 3.336v2.125c-1.32.039-2.578.039-3.656.039l.219 1.422c2.492 0 5.882-.024 9.047-.625l-.141-1.25a41.197 41.197 0 0 1-3.735.343v-2.062c1.782-.313 3-1.594 3.016-3.328-.016-2.008-1.648-3.406-3.89-3.406zm-2.157 3.406c-.008-1.188.922-1.914 2.157-1.906 1.25-.008 2.179.718 2.187 1.906-.008 1.164-.93 1.922-2.187 1.922-1.235 0-2.165-.758-2.157-1.922zm7.61 9.86h1.734V37.265h-1.734v14.14zm16.687-5.923h-12.906v1.375h5.562v4.532h1.719v-4.532h5.625v-1.375zm-11.344-1.468h9.782v-6.188h-1.75v1.734h-6.313v-1.734h-1.719v6.188zm1.719-1.407v-1.672h6.313v1.672h-6.313zm21.719-4.172v-.718h-1.828v.718c0 1.79-1.985 3.579-4.969 3.97l.687 1.406c2.376-.36 4.274-1.54 5.196-3.133.922 1.593 2.828 2.773 5.226 3.133l.688-1.407c-3.016-.39-5.008-2.195-5-3.968zm-7.36 8.032h5.547v4.922h1.719v-4.922h5.61V45.03h-12.876v1.438zm18.829-6.953v-1.5h-1.735v1.343c-.008 2.016-1.148 3.899-3.422 4.688l.938 1.36c1.625-.571 2.766-1.75 3.375-3.25.617 1.312 1.711 2.343 3.234 2.859l.938-1.36c-2.18-.687-3.328-2.367-3.328-4.14zm-3.235 9.172c0 1.71 1.836 2.687 4.782 2.687 2.921 0 4.726-.977 4.734-2.688-.008-1.671-1.813-2.664-4.734-2.656-2.946-.008-4.782.985-4.782 2.657zm1.735 0c0-.829 1.109-1.297 3.047-1.297 1.929 0 3.015.468 3.015 1.297 0 .874-1.086 1.312-3.015 1.312-1.938 0-3.047-.438-3.047-1.313zm5.906-2.97h1.734v-3.577H186v-1.438h-1.969v-3.437h-1.734v8.453zm21.109-1.906h-12.89v1.422h12.89v-1.422zm-11.39 4.97c0 1.663 1.851 2.593 4.922 2.593 3.046 0 4.882-.93 4.89-2.594-.008-1.64-1.844-2.57-4.89-2.562-3.071-.008-4.922.922-4.922 2.562zm.078-6.079h9.828v-1.39h-8.094v-2.188h8.016v-1.406h-9.75v4.984zm1.687 6.078c-.008-.797 1.102-1.234 3.157-1.234 2.023 0 3.14.437 3.156 1.234-.016.836-1.133 1.25-3.156 1.25-2.055 0-3.165-.414-3.157-1.25zm23.453-3.875h-5.593v-1.172h4.281v-1.359h-8.234V41.25h7.953v-3.672h-9.719v1.36h7.984v1.046h-7.937v3.75h3.953v1.172h-5.594v1.407h12.906v-1.407zm-11.468 3.672h8.203v2.719h1.75v-4.094h-9.953v1.375zm23.468-11.312h-1.718V51.39h1.718v-7.063h2.172v-1.437h-2.172v-5.625zm-11.14 3.562h8.328v-1.39h-3.25v-1.97h-1.734v1.97h-3.344v1.39zm.656 4.25c-.016 1.945 1.5 3.313 3.562 3.313 2.032 0 3.54-1.368 3.547-3.313-.007-1.953-1.515-3.336-3.547-3.328-2.062-.008-3.578 1.375-3.562 3.328zm1.656 0c-.008-1.148.797-1.906 1.906-1.906 1.086 0 1.876.758 1.891 1.906-.015 1.149-.805 1.883-1.891 1.875-1.109.008-1.914-.726-1.906-1.875zm23.391-7.812h-1.75V51.39h1.75V37.266zM232.094 47.5l.906 1.39c4.945-2.35 6.578-5.921 6.578-10.124h-6.766v1.375h5c-.312 3.21-2.015 5.601-5.718 7.359zm-86.18 13.875h-1.219v5.172h-3.328v-4.078h-1.203v3.625h-3.969v-3.625h-1.234v9.312h6.406v-4.219h3.328v7.735h1.219V61.375zm-9.719 9.39v-3.687h3.969v3.688h-3.969zm24.688-1.687h-12.672v1h12.672v-1zm-11.016 5.89h9.688v-1.03h-8.469v-2.844h-1.219v3.875zm.031-7.202h9.485v-.97h-8.25v-1.5h7.797v-.952h-7.797V62.89h8.172v-.985h-9.407v5.86zM170.82 64v-1.766h-1.203v1.72c-.008 2.132-1.445 4.077-3.531 4.843l.656 1a6.086 6.086 0 0 0 3.492-3.664 5.91 5.91 0 0 0 3.336 3.32l.688-.953c-2.031-.734-3.438-2.563-3.438-4.5zm-2.218 10.969h9.296v-1.031h-8.062v-3.329h-1.234v4.36zm4.656-9.281h3.094v6.109h1.234V61.39h-1.234v3.265h-3.094v1.031zm12.656-3.297h-5.391v6.687h.875c2.258-.008 3.571-.07 5.204-.39l-.125-1.016c-1.493.289-2.758.367-4.782.375v-1.922h4.063v-.969h-4.063v-1.734h4.219V62.39zm-3.578 9.14h8.156v3.735h1.203V70.53h-9.359v1zm5.094-1.812h1.14v-3.703h1.953v3.796h1.172v-8.421h-1.172v3.625h-1.953v-3.36h-1.14v8.063z" fill="#202020"/>
    </g>
    <defs>
        <filter id="ujpxefcfxb" x="81.684" y="101.402" width="164.746" height="184.797" filterUnits="userSpaceOnUse" color-interpolation-filters="sRGB">
            <feFlood flood-opacity="0" result="BackgroundImageFix"/>
            <feColorMatrix in="SourceAlpha" values="0 0 0 0 0 0 0 0 0 0 0 0 0 0 0 0 0 0 127 0" result="hardAlpha"/>
            <feOffset dy="-2.199"/>
            <feGaussianBlur stdDeviation="2.199"/>
            <feComposite in2="hardAlpha" operator="out"/>
            <feColorMatrix values="0 0 0 0 0.516667 0 0 0 0 0.405583 0 0 0 0 0.331528 0 0 0 0.1 0"/>
            <feBlend in2="BackgroundImageFix" result="effect1_dropShadow_8359_173804"/>
            <feBlend in="SourceGraphic" in2="effect1_dropShadow_8359_173804" result="shape"/>
        </filter>
        <filter id="q4si0nenbd" x="92.081" y="113.714" width="143.953" height="202.286" filterUnits="userSpaceOnUse" color-interpolation-filters="sRGB">
            <feFlood flood-opacity="0" result="BackgroundImageFix"/>
            <feBlend in="SourceGraphic" in2="BackgroundImageFix" result="shape"/>
            <feColorMatrix in="SourceAlpha" values="0 0 0 0 0 0 0 0 0 0 0 0 0 0 0 0 0 0 127 0" result="hardAlpha"/>
            <feOffset/>
            <feGaussianBlur stdDeviation=".825"/>
            <feComposite in2="hardAlpha" operator="arithmetic" k2="-1" k3="1"/>
            <feColorMatrix values="0 0 0 0 0 0 0 0 0 0 0 0 0 0 0 0 0 0 0.08 0"/>
            <feBlend in2="shape" result="effect1_innerShadow_8359_173804"/>
        </filter>
        <filter id="16ckpaghee" x="46.811" y="244.716" width="233.378" height="40.378" filterUnits="userSpaceOnUse" color-interpolation-filters="sRGB">
            <feFlood flood-opacity="0" result="BackgroundImageFix"/>
            <feColorMatrix in="SourceAlpha" values="0 0 0 0 0 0 0 0 0 0 0 0 0 0 0 0 0 0 127 0" result="hardAlpha"/>
            <feOffset dy="-1.095"/>
            <feGaussianBlur stdDeviation="1.095"/>
            <feComposite in2="hardAlpha" operator="out"/>
            <feColorMatrix values="0 0 0 0 0 0 0 0 0 0 0 0 0 0 0 0 0 0 0.06 0"/>
            <feBlend in2="BackgroundImageFix" result="effect1_dropShadow_8359_173804"/>
            <feBlend in="SourceGraphic" in2="effect1_dropShadow_8359_173804" result="shape"/>
        </filter>
        <filter id="ytdcqqi2vf" x="119.768" y="159.049" width="87.774" height="80.702" filterUnits="userSpaceOnUse" color-interpolation-filters="sRGB">
            <feFlood flood-opacity="0" result="BackgroundImageFix"/>
            <feBlend in="SourceGraphic" in2="BackgroundImageFix" result="shape"/>
            <feGaussianBlur stdDeviation="2" result="effect1_foregroundBlur_8359_173804"/>
        </filter>
        <clipPath id="d0js2clzta">
            <rect width="327" height="296" rx="16" fill="#fff"/>
        </clipPath>
    </defs>
</svg>
