<svg width="327" height="296" viewBox="0 0 327 296" fill="none" xmlns="http://www.w3.org/2000/svg">
    <g clip-path="url(#v97rkbnska)">
        <rect width="327" height="296" rx="16" fill="#F7F5F2"/>
        <g clip-path="url(#semcy2agfb)">
            <path d="M142 153c0 23.196-18.804 42-42 42s-42-18.804-42-42 18.804-42 42-42 42 18.804 42 42z" fill="#fff"/>
            <path d="M137.584 158.247a1 1 0 0 1 1.726-.151l7.447 10.644a1 1 0 0 1-.732 1.57l-12.942 1.127a1 1 0 0 1-.993-1.419l5.494-11.771z" fill="#fff"/>
            <g opacity=".2" filter="url(#ydd32f9cjc)">
                <path d="M88.943 137.117c1.14-1.71 3.72-2.707 4.512-2.707l-1.663 6.269c-2.058.158-5.889.38-4.749 0 1.425-.475.475-1.425 1.9-3.562z" fill="#4E4E4E"/>
                <path d="M91.555 138.067c-.19 1.52-1.504 2.375-2.137 2.612 1.14 1.33 6.965.237 9.736-.475 4.195-1.266 11.967-3.704 9.498-3.324-3.087.475-3.799-1.425-4.749-2.85-.76-1.14-2.691-1.108-3.562-.95-.633.079-2.66.38-5.7.95-3.799.713-2.849 2.137-3.086 4.037zM71.371 147.328c.475-.95 4.75-4.512 6.886-4.987l8.074 28.97c14.326-3.483 42.885-10.116 42.505-8.786-.475 1.662-5.462 4.987-7.124 5.462-11.714 2.612-35.856 7.883-38.706 8.073-2.849.19-4.353-2.295-4.749-3.562-1.979-6.094-6.079-18.806-6.648-20.896-.713-2.612-.81-3.131-.238-4.274z" fill="#4E4E4E"/>
                <path d="M76.412 145.359a2.375 2.375 0 0 1 1.845-3.022l40.719-7.461a2.374 2.374 0 0 1 2.679 1.579l7.998 23.794a2.374 2.374 0 0 1-1.746 3.077l-41.094 8.943a2.375 2.375 0 0 1-2.778-1.635l-7.623-25.275z" fill="#4E4E4E"/>
                <path d="M92.98 146.14c1.14-1.329 6.174-4.511 8.548-5.936 5.937 4.353 16.812 14.2 12.823 18.759-3.989 4.559-7.52 5.858-8.786 5.937-2.137.079-7.219-.76-10.448-4.75-4.037-4.986-3.562-12.347-2.137-14.01zM83.507 150.157c-.853.339-1.859-.176-2.246-1.151-.388-.975-.01-2.04.843-2.379.853-.34 1.859.176 2.246 1.151.388.975.01 2.04-.843 2.379z" fill="#4E4E4E"/>
                <path d="M111.356 160.63c-5.182 2.06-11.291-1.071-13.645-6.993-2.354-5.922-.061-12.393 5.12-14.453 5.182-2.059 11.291 1.072 13.645 6.994 2.354 5.922.062 12.392-5.12 14.452z" fill="#4E4E4E"/>
                <path d="M111.193 160.925c-5.182 2.06-11.29-1.071-13.645-6.993-2.354-5.922-.061-12.393 5.12-14.453 5.182-2.059 11.291 1.071 13.645 6.993 2.354 5.922.062 12.393-5.12 14.453z" fill="#4E4E4E"/>
                <path d="M109.879 157.62c-3.584 1.425-7.81-.741-9.439-4.838-1.628-4.097-.043-8.573 3.542-9.998 3.585-1.425 7.811.741 9.439 4.838 1.629 4.097.043 8.573-3.542 9.998z" fill="#4E4E4E"/>
                <mask id="oij0j5f7ud" style="mask-type:alpha" maskUnits="userSpaceOnUse" x="99" y="142" width="16" height="17">
                    <path d="M109.879 157.62c-3.584 1.425-7.81-.741-9.439-4.838-1.628-4.097-.043-8.573 3.542-9.998 3.585-1.425 7.811.741 9.439 4.838 1.629 4.097.043 8.573-3.542 9.998z" fill="#4E4E4E"/>
                </mask>
                <g mask="url(#oij0j5f7ud)">
                    <path d="M115.939 150.074 98.77 143c-2.601 11.789 1.561 16.505 9.885 20.435 6.66 3.144 7.631-7.598 7.284-13.361z" fill="#4E4E4E"/>
                </g>
            </g>
            <path d="M89.943 135.117c1.14-1.71 3.72-2.707 4.512-2.707l-1.663 6.269c-2.058.158-5.889.38-4.749 0 1.425-.475.475-1.425 1.9-3.562z" fill="#5E9800"/>
            <path d="M92.555 136.067c-.19 1.52-1.504 2.375-2.137 2.612 1.14 1.33 6.965.237 9.736-.475 4.195-1.266 11.967-3.704 9.498-3.324-3.087.475-3.799-1.425-4.749-2.85-.76-1.14-2.691-1.108-3.562-.95-.633.079-2.66.38-5.7.95-3.799.713-2.849 2.137-3.086 4.037z" fill="#B0CC29"/>
            <path d="M72.371 145.328c.475-.95 4.75-4.512 6.886-4.987l8.074 28.97c14.326-3.483 42.885-10.116 42.505-8.786-.475 1.662-5.462 4.987-7.124 5.462-11.714 2.612-35.856 7.883-38.706 8.073-2.849.19-4.353-2.295-4.749-3.562-1.979-6.094-6.079-18.806-6.648-20.896-.713-2.612-.81-3.131-.238-4.274z" fill="#5E9800"/>
            <path d="M77.412 143.359a2.375 2.375 0 0 1 1.845-3.022l40.719-7.461a2.374 2.374 0 0 1 2.679 1.579l7.998 23.794a2.374 2.374 0 0 1-1.746 3.077l-41.094 8.943a2.375 2.375 0 0 1-2.778-1.635l-7.623-25.275z" fill="#B0CC29"/>
            <path d="M93.98 144.14c1.14-1.329 6.174-4.511 8.548-5.936 5.937 4.353 16.812 14.2 12.823 18.759-3.989 4.559-7.52 5.858-8.786 5.937-2.137.079-7.219-.76-10.448-4.75-4.037-4.986-3.562-12.347-2.137-14.01z" fill="#9AB70E"/>
            <path d="M84.507 148.157c-.853.339-1.859-.176-2.246-1.151-.388-.975-.01-2.04.843-2.379.853-.34 1.859.176 2.246 1.151.388.975.01 2.04-.843 2.379z" fill="#fff"/>
            <path d="M112.356 158.63c-5.182 2.06-11.291-1.071-13.645-6.993-2.354-5.922-.061-12.393 5.12-14.453 5.182-2.059 11.291 1.072 13.645 6.994 2.354 5.922.062 12.392-5.12 14.452z" fill="#C1DD35"/>
            <path d="M112.193 158.925c-5.182 2.06-11.291-1.071-13.645-6.993-2.354-5.922-.061-12.393 5.12-14.453 5.182-2.059 11.291 1.071 13.645 6.993 2.354 5.922.062 12.393-5.12 14.453z" fill="#B0CC29"/>
            <path d="M110.879 155.62c-3.584 1.425-7.81-.741-9.439-4.838-1.628-4.097-.043-8.573 3.542-9.998 3.585-1.425 7.811.741 9.439 4.838 1.629 4.097.043 8.573-3.542 9.998z" fill="#fff"/>
            <mask id="ux8sk8meue" style="mask-type:alpha" maskUnits="userSpaceOnUse" x="100" y="140" width="16" height="17">
                <path d="M110.879 155.62c-3.584 1.425-7.81-.741-9.439-4.838-1.628-4.097-.043-8.573 3.542-9.998 3.585-1.425 7.811.741 9.439 4.838 1.629 4.097.043 8.573-3.542 9.998z" fill="#fff"/>
            </mask>
            <g mask="url(#ux8sk8meue)">
                <path d="M116.939 148.074 99.77 141c-2.601 11.789 1.561 16.505 9.885 20.435 6.66 3.144 7.631-7.598 7.284-13.361z" fill="#5E9800"/>
            </g>
            <path d="m85.5 284.886 37.5-46.95s-2-10.42 0-17.5 5.08-14.67 12.33-22.67c7.25-8 9.83-9.92 13.67-17.33 3.83-7.42 6.95-9.38 11.07-6.35 4.2 3.08 2.37 10.35-.88 18.29 0 0 16.31-4.19 37.56-8.06 0 0 31.58-9.29 34.5-7.54 2.92 1.75 5.5 6.75-1.42 10.42s-32.96 10.88-34.46 11.62c-1.5.74-2.37 32.184-27.87 49.684 0 0-23.5 44.19-27 48.5H75l10.5-12.114z" fill="#FFE4D6"/>
            <path d="M243.758 149.798c-.031-.037-.067-.07-.098-.104-.032-.037-.067-.071-.099-.104-.031-.037-.067-.071-.098-.104-.032-.038-.067-.071-.099-.105-.031-.037-.067-.07-.098-.104-.032-.037-.067-.071-.099-.104-.032-.037-.067-.071-.098-.105-.032-.037-.067-.07-.099-.104-.032-.037-.067-.071-.099-.104-.031-.037-.066-.071-.098-.104-.032-.038-.067-.071-.099-.105-.031-.037-.066-.07-.098-.104-.032-.037-.067-.071-.099-.104a4.331 4.331 0 0 0-.176-.183l-.126-.134c-.032-.037-.067-.071-.099-.104-.031-.037-.067-.071-.098-.105-.032-.037-.067-.07-.099-.104-.031-.037-.067-.071-.098-.104-.032-.037-.067-.071-.099-.104-.031-.038-.067-.071-.098-.105-.032-.037-.067-.07-.099-.104-.031-.037-.067-.071-.098-.104-.032-.037-.067-.071-.099-.104-.031-.038-.067-.071-.098-.105-.032-.037-.067-.071-.099-.104-.031-.037-.067-.071-.098-.104-.032-.037-.067-.071-.099-.105-.032-.037-.067-.07-.098-.104-.032-.037-.067-.071-.099-.104-.032-.037-.067-.071-.099-.104-.031-.038-.066-.071-.098-.105-.032-.037-.067-.071-.099-.104-.031-.037-.066-.071-.098-.104-.032-.037-.067-.071-.099-.105-.031-.037-.066-.07-.098-.104-.032-.037-.067-.071-.099-.104-.031-.037-.066-.071-.098-.104-.032-.038-.067-.071-.099-.105-.031-.037-.066-.071-.098-.104-.032-.037-.067-.071-.099-.104-.031-.037-.067-.071-.098-.105-.032-.037-.067-.07-.099-.104-.031-.037-.067-.071-.098-.104-.032-.037-.067-.071-.099-.104-.031-.038-.067-.071-.098-.105-.032-.037-.067-.07-.099-.104-.031-.037-.067-.071-.098-.104a9.334 9.334 0 0 0-2.933-2.139l-34.495-10.389c-4.603-2.154-10.245-.545-12.606 3.599l-47.679 82.881c-1.789 3.138-1.177 6.831 1.227 9.371.031.037.066.071.098.104.032.037.067.071.099.104.031.038.067.071.098.105.032.037.067.071.099.104.031.037.067.071.098.104.032.037.067.071.099.105.031.037.067.07.098.104.032.037.067.071.099.104.031.037.067.071.098.104.032.038.067.071.099.105.031.037.067.07.098.104.032.037.067.071.099.104.031.037.067.071.098.105.032.037.067.07.099.104.031.037.067.071.098.104.032.037.067.071.099.104.031.038.067.071.098.105.032.037.067.07.099.104.031.037.067.071.098.104.032.037.067.071.099.105.032.037.067.07.098.104.032.037.067.071.099.104.032.037.067.071.098.104.032.038.067.071.099.105.032.037.067.07.099.104.031.037.066.071.098.104.032.037.067.071.099.105.031.037.066.07.098.104.032.037.067.071.099.104.031.037.066.071.098.104.032.038.067.071.099.105.031.037.066.07.098.104.032.037.067.071.099.104.056.063.116.123.176.183.042.045.084.089.123.134.031.037.067.071.098.104.032.037.067.071.099.104.031.038.067.071.098.105.032.037.067.07.099.104.031.037.067.071.098.104.032.037.067.071.099.105.031.037.067.07.098.104.032.037.067.071.099.104.031.037.067.071.098.104.032.037.067.071.099.105.031.037.067.07.098.104.032.037.067.071.099.104.031.037.067.071.098.104a9.263 9.263 0 0 0 2.933 2.135l32.904 13.951c4.603 2.153 10.245.545 12.606-3.599l49.214-86.502c1.789-3.138 1.177-6.831-1.227-9.371l.06.063z" fill="#AEC1E6"/>
            <path d="m178.077 243.885-32.903-13.951c-4.604-2.153-6.419-7.261-4.062-11.402l47.68-82.88c2.361-4.145 8.003-5.753 12.606-3.6l34.438 10.33c4.603 2.154 6.419 7.261 4.061 11.402l-49.213 86.498c-2.362 4.144-8.003 5.752-12.607 3.599v.004z" fill="#C2D7FF"/>
            <path d="m177.405 240.245-29.222-12.393c-4.088-1.914-5.703-6.446-3.605-10.127l42.345-73.606c2.095-3.68 7.108-5.111 11.196-3.197l30.586 9.177c4.088 1.914 5.703 6.447 3.605 10.127l-43.709 76.822c-2.094 3.68-7.108 5.111-11.196 3.197zM220.481 144.381l-12.173-3.742c-.381-.123-.542-.675-.36-1.231.183-.557.638-.907 1.019-.783l12.173 3.742c.381.123.542.675.36 1.231-.183.557-.638.907-1.019.783z" fill="#fff"/>
            <path d="M187.286 155.329c1.087-1.923 3.673-2.935 5.776-2.259l27.174 8.722c2.11.677 2.932 2.795 1.831 4.721l-20.543 35.945c-1.111 1.945-3.751 2.943-5.856 2.213l-26.653-9.244c-2.042-.709-2.82-2.784-1.751-4.675l20.022-35.423z" fill="#1967FF"/>
            <path d="M188.994 158.518c.815-1.443 2.755-2.202 4.333-1.695l23.134 7.426c1.585.508 2.2 2.099 1.371 3.545l-17.829 31.086c-.829 1.444-2.784 2.192-4.357 1.666l-22.773-7.607c-1.554-.52-2.154-2.088-1.346-3.518l17.467-30.903z" fill="#FAFAFA"/>
            <path d="M198.874 185.445c.341-.215.778-.075.809.259l.078.843c.021.22.226.373.487.362l.998-.043c.396-.017.617.331.409.645l-.524.791c-.137.206-.093.447.104.571l.755.472c.3.187.22.61-.147.784l-.927.437c-.241.114-.376.352-.317.562l.223.807c.088.32-.261.656-.648.623l-.975-.083a.639.639 0 0 0-.618.338l-.394.834c-.156.33-.642.451-.9.225l-.652-.573c-.169-.149-.458-.155-.682-.014l-.861.542c-.341.214-.778.074-.809-.26l-.078-.843c-.021-.22-.226-.372-.487-.361l-.998.043c-.396.017-.617-.332-.409-.645l.524-.792c.137-.206.093-.447-.104-.57l-.756-.472c-.299-.188-.219-.611.148-.784l.927-.438c.241-.114.376-.351.317-.562l-.223-.807c-.088-.319.261-.656.648-.623l.975.083a.639.639 0 0 0 .618-.338l.394-.834c.156-.33.642-.451.9-.224l.651.572c.17.149.459.155.683.014l.861-.541z" fill="#FFCE1F"/>
            <path d="m215.881 164.062-5.459-1.752-4.496 7.955 3.787-.996 1.488 2.687 4.68-7.894z" fill="#F60"/>
            <rect width="10.254" height="1.783" rx=".892" transform="matrix(.95215 .30563 -.49206 .87056 187.299 167.727)" fill="#D9D9D9"/>
            <rect width="15.158" height="1.783" rx=".892" transform="matrix(.95215 .30563 -.49206 .87056 185.106 171.608)" fill="#D9D9D9"/>
            <path d="M208.437 207.2s-4.018-.58-3.937-5.107c.081-4.527 3.806-6.506 9.544-7.528 5.739-1.023 9.229-.259 8.938 4.493-.302 4.751-3.761 7.641-7.573 8.348 0 0 4.753 1.058 3.719 5.855-.951 4.395-4.815 6.98-9.748 7.159 0 0 5.258.741 4.49 5.743-.768 5.003-7.389 4.974-10.831 3.833-3.442-1.141-5.578-3.182-5.289-6.351.289-3.169 5.264-3.665 5.264-3.665s-3.135-1.101-3.214-4.388c-.079-3.288 2.153-6.901 8.649-8.401l-.012.009z" fill="#FFDBC7"/>
            <ellipse cx="172" cy="217.5" rx="8" ry="8.5" transform="rotate(22.375 172 217.5)" fill="#3F3F3F"/>
            <path d="M176.161 219.213c-1.069 2.596-3.807 3.84-6.064 2.911-2.258-.93-3.327-3.741-2.258-6.337 1.068-2.596 3.807-3.84 6.064-2.911 2.258.93 3.327 3.741 2.258 6.337z" fill="#3F3F3F" stroke="#fff"/>
            <path d="M174.593 219.932c-5.312 2.341-4.008 12.16-2.846 19.283.866 5.308 1.978 10.46 2.944 16.422C177 266 176 263.5 169.948 264.242c-.734.112-1.506.29-2.234.588-3.771 1.532-5.979 6.381-5.053 13.131.018.166.041.334.064.505.908 6.027 6.484 14.452 11.932 20.689 6.118 7.002 8.293 9.534 11.15 16.283 3.004 6.635 4.142 12.765 7.367 23.872 2.612 9.007 5.898 21.726 7.049 26.209.032.587.165 1.138.419 1.645 2.365 4.693 13.758 3.721 25.445-2.169 11.686-5.891 19.243-14.469 16.878-19.162a3.992 3.992 0 0 0-.577-.842c-6.579-9.791-18.473-32.997-21.296-41.052a14.486 14.486 0 0 0-1.111-2.415c.618-4.222.777-10.643.334-16.079-.55-6.741-1.209-14.356-3.718-18.455-1.348-2.203-2.7-3.151-3.626-3.56a3.563 3.563 0 0 1-1.725-1.648c-.555-1.074-1.601-2.533-3.431-3.347-.831-.37-1.544-.455-2.12-.409-1.215.1-2.373-.481-3.133-1.439-.663-.841-1.496-1.712-2.346-2.149-1.473-.761-2.723-.697-3.606-.443a3.815 3.815 0 0 1-2.878-.343c-1.506-.828-3.347-1.232-5.041-.681-.977-4.013-2.064-9.162-2.808-11.359-2.693-7.951-4.025-24.873-11.285-21.678l-.005-.002zm-1.633 51.176c-.11-.059-.221-.119-.335-.177l.021-.174c.103.118.205.236.314.351z" fill="#FFE4D6"/>
            <path d="M177 272.5c-1.2 2-5.5-.833-7.5-2.5 1.833 1 5.7 2.8 6.5 2 .8-.8-.467-11.167-1.3-16.5 1.333 5 3.5 15 2.3 17zM192.5 261c-1-1-3.2-5-4-9 0 4.8 2.667 8.333 4 9z" fill="#F4CBB3"/>
        </g>
        <path d="M98.633 30.672v-.797h-1.266v.797c0 1.992-2.539 3.648-5.047 4l.5 1c2.164-.36 4.297-1.54 5.188-3.258.89 1.703 3.031 2.898 5.187 3.258l.5-1c-2.507-.352-5.054-2.04-5.062-4zm-6.969 7.562h5.703v5.032h1.203v-5.032h5.75v-1.03H91.664v1.03zm18.469-6.609v-1.531h-1.203v1.437c-.008 2.149-1.407 4.008-3.485 4.782l.657.984a5.937 5.937 0 0 0 3.46-3.555c.61 1.453 1.821 2.602 3.352 3.164l.672-.968c-2.016-.688-3.453-2.422-3.453-4.313zm-2.844 9.078c.008 1.617 1.75 2.531 4.609 2.531 2.852 0 4.579-.914 4.579-2.53 0-1.587-1.727-2.517-4.579-2.517-2.859 0-4.601.93-4.609 2.516zm1.234 0c-.015-.945 1.282-1.531 3.375-1.531 2.102 0 3.383.586 3.391 1.531-.008.984-1.289 1.555-3.391 1.563-2.093-.008-3.39-.578-3.375-1.563zm6.61-2.875h1.219v-3.797h2.093V33h-2.093v-3.625h-1.219v8.453zm15.703-8.453h-1.234v2.266h-3.25v-1.203h-6.375v6.171h6.375v-1.187h3.25v2.187h1.234v-8.234zm-9.641 6.234v-4.172h3.953v4.172h-3.953zm.375 5.032c-.008 1.656 1.766 2.593 4.657 2.593 2.882 0 4.656-.937 4.656-2.593 0-1.672-1.774-2.633-4.656-2.625-2.891-.008-4.665.953-4.657 2.625zm1.219 0c-.008-1.047 1.305-1.657 3.438-1.672 2.125.015 3.437.625 3.437 1.672 0 1.007-1.312 1.625-3.437 1.625-2.133 0-3.446-.618-3.438-1.625zm3.563-6.25v-1.735h3.25v1.735h-3.25zm9.078 6.562h-1.516l-.859 4.25h1.156l1.219-4.25zm12.797-10.281v-.797h-1.266v.797c0 1.992-2.539 3.648-5.047 4l.5 1c2.164-.36 4.297-1.54 5.188-3.258.89 1.703 3.031 2.898 5.187 3.258l.5-1c-2.508-.352-5.055-2.04-5.062-4zm-6.969 7.562h5.703v5.032h1.203v-5.032h5.75v-1.03h-12.656v1.03zm18.469-6.609v-1.531h-1.204v1.437c-.007 2.149-1.406 4.008-3.484 4.782l.656.984a5.94 5.94 0 0 0 3.461-3.555c.61 1.453 1.821 2.602 3.352 3.164l.672-.968c-2.016-.688-3.453-2.422-3.453-4.313zm-2.844 9.078c.008 1.617 1.75 2.531 4.609 2.531 2.852 0 4.578-.914 4.578-2.53 0-1.587-1.726-2.517-4.578-2.517-2.859 0-4.601.93-4.609 2.516zm1.234 0c-.015-.945 1.281-1.531 3.375-1.531 2.102 0 3.383.586 3.391 1.531-.008.984-1.289 1.555-3.391 1.563-2.094-.008-3.39-.578-3.375-1.563zm6.61-2.875h1.218v-3.797h2.094V33h-2.094v-3.625h-1.218v8.453zm15.703-8.453h-1.235v5.594h-3.047v1.015h3.047v7.313h1.235V29.375zm-11.485 10.25.703.953c1.586-.766 2.875-2.383 3.477-4.32.617 1.828 1.922 3.351 3.508 4.07l.703-.953c-2.055-.922-3.625-3.18-3.625-5.469v-1.11h3.156v-1h-3.14v-2.155h-1.219v2.156h-3.188v1h3.188v1.11c0 2.39-1.524 4.765-3.563 5.718zm16.078 1.328h-1.515l-.86 4.25h1.157l1.218-4.25zm12.797-10.281v-.797h-1.265v.797c0 1.992-2.539 3.648-5.047 4l.5 1c2.164-.36 4.297-1.54 5.187-3.258.891 1.703 3.032 2.898 5.188 3.258l.5-1c-2.508-.352-5.055-2.04-5.063-4zm-6.968 7.562h5.703v5.032h1.203v-5.032h5.75v-1.03h-12.656v1.03zm18.468-6.609v-1.531h-1.203v1.437c-.008 2.149-1.406 4.008-3.484 4.782l.656.984a5.94 5.94 0 0 0 3.461-3.555c.609 1.453 1.82 2.602 3.352 3.164l.671-.968c-2.015-.688-3.453-2.422-3.453-4.313zm-2.843 9.078c.007 1.617 1.75 2.531 4.609 2.531 2.852 0 4.578-.914 4.578-2.53 0-1.587-1.726-2.517-4.578-2.517-2.859 0-4.602.93-4.609 2.516zm1.234 0c-.016-.945 1.281-1.531 3.375-1.531 2.102 0 3.383.586 3.391 1.531-.008.984-1.289 1.555-3.391 1.563-2.094-.008-3.391-.578-3.375-1.563zm6.609-2.875h1.219v-3.797h2.094V33h-2.094v-3.625h-1.219v8.453zm8.125-7.937c-2.101.007-3.617 1.273-3.609 3.078-.008 1.812 1.508 3.062 3.609 3.062 2.078 0 3.586-1.25 3.594-3.062-.008-1.805-1.516-3.07-3.594-3.078zm-2.406 3.078c-.016-1.203 1.008-2.055 2.406-2.047 1.375-.008 2.407.844 2.407 2.047 0 1.218-1.032 2.062-2.407 2.062-1.398 0-2.422-.843-2.406-2.062zm.906 5.203h7.813v1.437h-7.781v3.47h9.5v-.985h-8.297V40.53h7.797v-3.343h-9.032v.984zm7.813-1.656h1.219v-7.141h-1.219v7.14zm5.859 4.437h-1.515l-.86 4.25h1.156l1.219-4.25zm-141.75 18.89H79.992v1.407h12.875v-1.406zm-12.25-2 .594 1.376c2.562-.266 4.437-1.29 5.203-2.719.766 1.43 2.664 2.453 5.234 2.719l.61-1.375c-2.68-.258-4.367-1.32-4.625-2.485h4.078v-1.422H81.164v1.422h4.04c-.266 1.18-1.97 2.227-4.587 2.485zm.875 6.938c0 1.664 1.852 2.594 4.922 2.594 3.047 0 4.883-.93 4.89-2.594-.007-1.64-1.843-2.594-4.89-2.594-3.07 0-4.922.954-4.922 2.594zm1.766 0c-.008-.82 1.101-1.234 3.156-1.234 2.023 0 3.14.414 3.156 1.234-.015.82-1.132 1.227-3.156 1.235-2.055-.008-3.164-.414-3.156-1.235zm13-10.64h-1.719v6.64h6.813v-6.64h-1.735v1.953h-3.36V54.14zm-.281 10.562c0 1.688 1.835 2.672 4.828 2.672 2.976 0 4.812-.984 4.812-2.672 0-1.719-1.836-2.703-4.812-2.703-2.993 0-4.828.984-4.828 2.703zm.28-5.312v-1.938h3.36v1.938h-3.36zm1.47 5.312c0-.906 1.085-1.367 3.078-1.375 1.984.008 3.101.469 3.109 1.375-.008.844-1.125 1.328-3.109 1.328-1.993 0-3.078-.484-3.078-1.328zm6.109-2.937h1.75V53.28h-1.75v8.485zm8.875-4.485v-1.187h2.953v-1.438h-7.766v1.438h3.079v1.187c-.008 2.352-1.375 4.992-3.625 6.063l1.015 1.36c1.625-.782 2.86-2.438 3.5-4.376.633 1.766 1.813 3.281 3.406 4.031l.969-1.375c-2.226-1.039-3.539-3.523-3.531-5.703zm4.266 10.11h1.734v-7.172h2.172v-1.453h-2.172v-5.5h-1.734V67.39zm17.406-3.079h-3.266v-2.328h2.063v-1.406h-8.438v-1.812h8.11v-4.532h-9.875v1.407h8.156v1.734h-8.125v4.61h1.89v2.328h-3.421v1.437h12.906v-1.438zm-7.797 0v-2.328h2.828v2.328h-2.828zm24.281-11.046h-1.75v7.578h1.75v-7.578zm-11.515 3.937c0 1.93 1.625 3.29 3.812 3.281 2.18.008 3.805-1.351 3.797-3.28.008-1.962-1.617-3.321-3.797-3.313-2.187-.008-3.812 1.351-3.812 3.312zm1.703 0c-.008-1.133.875-1.867 2.109-1.86 1.211-.007 2.094.727 2.094 1.86s-.883 1.852-2.094 1.86c-1.234-.008-2.117-.727-2.109-1.86zm.468 10.016h9.344V61.5h-1.734v1.453h-5.891V61.5h-1.719v5.719zm1.719-1.406v-1.5h5.891v1.5h-5.891zm16.438-11.704h-6.203v1.375h4.468v1.578h-4.437v4.422h1.031c2.773 0 4.234-.039 5.922-.328l-.172-1.406c-1.5.281-2.789.344-5.062.344v-1.735h4.453v-4.25zm-4.578 9.922h7.921v3.36h1.735v-4.75h-9.656v1.39zm5.421-4.39h2.5v2.328h1.735V53.28h-1.735v2h-2.5v1.39h2.5v1.579h-2.5v1.39zm22.266-4.672h-5v-1.672h-1.203v1.672h-5.063v1.015h11.266V54.97zm-11.922 8.422h5.719v3.906h1.203V63.39h5.797v-1.016h-12.719v1.016zm1.797-4.282c-.016 1.47 1.688 2.297 4.531 2.313 2.821-.016 4.524-.844 4.532-2.313-.008-1.5-1.711-2.328-4.532-2.328-2.843 0-4.547.828-4.531 2.328zm1.266 0c-.016-.875 1.195-1.382 3.265-1.39 2.047.008 3.25.515 3.266 1.39-.016.86-1.219 1.368-3.266 1.36-2.07.008-3.281-.5-3.265-1.36zm21.75-4.859v-.64h-1.266v.64c0 1.813-2.508 3.352-4.969 3.672l.485.969c2.14-.328 4.25-1.43 5.125-3.024.883 1.57 2.992 2.696 5.109 3.024l.453-.97c-2.414-.32-4.945-1.898-4.937-3.671zm-6.969 6.766h12.656v-1h-12.656v1zm1.531 3.765c-.008 1.586 1.781 2.469 4.797 2.485 2.977-.016 4.766-.899 4.781-2.485-.015-1.586-1.804-2.46-4.781-2.453-3.016-.008-4.805.867-4.797 2.453zm1.25 0c-.015-.945 1.32-1.5 3.547-1.515 2.203.015 3.539.57 3.547 1.515-.008.961-1.344 1.508-3.547 1.5-2.227.008-3.562-.539-3.547-1.5zm22.516-11.39h-1.219v10.156h1.219V53.39zm-11.141 4.375c-.008 2.023 1.563 3.43 3.641 3.422 2.078.007 3.633-1.399 3.64-3.422-.007-2-1.562-3.399-3.64-3.407-2.078.008-3.649 1.407-3.641 3.407zm1.203 0c-.015-1.36 1.032-2.328 2.438-2.328 1.383 0 2.437.968 2.437 2.328 0 1.382-1.054 2.343-2.437 2.343-1.406 0-2.453-.96-2.438-2.343zm.969 9.203h9.406v-1.031h-8.187v-3.422h-1.219v4.453zm28.063-2.516h-3.157v-3.781c1.149-.617 1.844-1.602 1.844-2.844 0-2.148-2.109-3.562-5.078-3.578-2.969.016-5.078 1.43-5.078 3.578 0 1.266.719 2.266 1.906 2.883v3.742h-3.156v1.031h12.719v-1.03zm-10.282-6.625c-.008-1.555 1.61-2.578 3.891-2.562 2.258-.016 3.891 1.007 3.891 2.562s-1.633 2.594-3.891 2.594c-2.281 0-3.899-1.04-3.891-2.594zm1.922 6.625v-3.297a7.775 7.775 0 0 0 1.969.235c.727 0 1.398-.086 2-.243v3.305h-3.969zm14.203-8.094v-.297h3.141v-.984h-3.109v-1.766h-1.235v1.766h-3.14v.984h3.14v.297c-.008 1.883-1.445 3.578-3.484 4.266l.594.938c1.656-.547 2.929-1.743 3.523-3.258.633 1.367 1.914 2.414 3.523 2.898l.594-.953c-2.047-.602-3.539-2.164-3.547-3.89zm-2.484 8.344c-.008 1.61 1.766 2.531 4.656 2.531 2.883 0 4.656-.921 4.656-2.53 0-1.618-1.773-2.54-4.656-2.532-2.89-.008-4.664.914-4.656 2.531zm1.219 0c-.008-.992 1.304-1.562 3.437-1.578 2.133.016 3.438.586 3.438 1.578 0 .969-1.305 1.563-3.438 1.563s-3.445-.594-3.437-1.563zm3.968-6.328h2.844v3.422h1.235v-8.422h-1.235v3.984h-2.844v1.016z" fill="#202020"/>
        <path fill="#666" d="m24.813 82.607.459-.655 4.915 3.441-.459.655z"/>
        <path fill="#666" d="m25.272 86.048-.46-.655 4.916-3.441.459.655z"/>
        <path fill="#666" d="M27.1 87h.8v-6h-.8zM45.414 83.488h-9.492v.762h9.492v-.762zm-8.953-1.36.328.74c1.717-.218 3.305-.985 3.879-2.14.574 1.155 2.174 1.922 3.879 2.14l.34-.74c-1.846-.21-3.58-1.118-3.621-2.296h3.304v-.762h-7.78v.762h3.28c-.04 1.19-1.793 2.086-3.61 2.297zm.61 4.923c-.006 1.207 1.347 1.875 3.597 1.875 2.232 0 3.574-.668 3.586-1.875-.012-1.195-1.354-1.887-3.586-1.887-2.25 0-3.603.692-3.598 1.887zm.937 0c-.012-.733.99-1.149 2.66-1.16 1.652.011 2.654.427 2.66 1.16-.006.726-1.008 1.142-2.66 1.136-1.67.006-2.672-.41-2.66-1.136zm9.75-7.864h-.914v4.829h4.898v-4.829h-.914v1.618h-3.07v-1.618zm0 4.067V81.53h3.07v1.723h-3.07zm.14 3.75c-.005 1.219 1.33 1.922 3.516 1.922 2.18 0 3.504-.703 3.516-1.922-.012-1.242-1.336-1.945-3.516-1.957-2.186.012-3.521.715-3.516 1.957zm.926 0c0-.78.967-1.225 2.59-1.23 1.617.005 2.602.45 2.602 1.23 0 .738-.985 1.195-2.602 1.195-1.623 0-2.59-.457-2.59-1.195zm5.157-2.145h.913v-6.316h-.913v6.316zm6.21-3.128v-1.36h2.344v-.762h-5.672v.762h2.426v1.36c-.012 1.775-1.3 3.755-2.8 4.488l.562.726c1.166-.597 2.209-1.945 2.69-3.474.468 1.412 1.458 2.642 2.63 3.216l.527-.726c-1.511-.72-2.718-2.56-2.707-4.23zm3.621 7.218h.915v-5.414h1.746v-.785h-1.746v-4.219h-.915V88.95zm12.762-2.062h-2.59v-1.98h1.63v-.763h-6.47v-1.687h6.223v-3.152h-7.16v.761h6.258v1.63H68.23v3.21h1.488v1.98h-2.684v.774h9.54v-.773zm-5.953 0v-1.98h2.461v1.98h-2.46zm16.313-3.516h-9.54v.727h9.54v-.727zm-8.391 2.25h6.281v.89h-6.27v2.298h7.524v-.668h-6.597v-.997h6.257V84.93h-7.195v.691zm.059-6.105h6.175v.855h-6.14v2.215h7.254v-.668h-6.34v-.914h6.152v-2.156h-7.101v.668zm21.129.175h-3.75v-1.218h-.903v1.218h-3.797v.75h8.45v-.75zm-8.942 6.258h2.484v3.024h.926v-3.024h2.695v3.024h.915v-3.024h2.519v-.761h-9.539v.761zm1.348-3.187c-.012 1.101 1.265 1.722 3.398 1.722 2.115 0 3.393-.62 3.399-1.722-.006-1.108-1.284-1.723-3.399-1.723-2.133 0-3.41.615-3.398 1.723zm.949 0c-.012-.645.896-1.008 2.45-1.02 1.534.012 2.437.375 2.448 1.02-.011.638-.914 1.013-2.449 1.007-1.553.006-2.46-.369-2.45-1.007zm16.98-4.23h-.878v4.195h-1.536v-3.961h-.843v9.644h.843v-4.922h1.536v5.461h.878V78.531zm-8.519 7.84h.668c1.599-.007 2.66-.048 3.914-.306l-.082-.773c-1.16.234-2.151.287-3.586.293V80.57h2.988v-.761h-3.902v6.562zm18.574-7.36h-7.699v.761h1.605v2.391h-1.57v.738h3.363v1.278h-4.289v.75h9.492v-.75h-4.289v-1.278h3.352v-.738h-1.57v-2.39h1.605v-.762zm-7.359 9.715h7.207v-.774h-6.281v-2.11h-.926v2.884zm2.179-6.563v-2.39h2.661v2.39h-2.661zm11.707-2.953c-2.173.006-3.808 1.142-3.808 2.86 0 1.734 1.635 2.87 3.808 2.859 2.174.011 3.809-1.125 3.809-2.86 0-1.716-1.635-2.853-3.809-2.86zm-4.746 8.355h9.539v-.773h-9.539v.773zm1.817-5.496c-.012-1.248 1.248-2.115 2.929-2.11 1.67-.005 2.918.862 2.918 2.11 0 1.266-1.248 2.11-2.918 2.11-1.681 0-2.941-.844-2.929-2.11zm18.093 4.817h-4.347v-1.969h3.387v-.762h-6.469v-1.699h6.222v-3.152h-7.16v.761h6.258v1.641h-6.234v3.211h3.093v1.969h-4.289v.773h9.539v-.773zm11.907-8.356h-.914V88.95h.914v-5.52h1.746v-.796h-1.746V78.53zm-7.629 7.922h4.875v-7.031h-.914v2.754h-3.047v-2.754h-.914v7.031zm.914-.773v-2.766h3.047v2.766h-3.047zm18.562 1.207h-4.347v-1.969h3.386v-.762h-6.468v-1.699h6.222v-3.152h-7.16v.761h6.258v1.641h-6.234v3.211h3.093v1.969h-4.289v.773h9.539v-.773zm9.891-7.453h-2.32v-.926h-.903v.926h-2.308v.691h2.308c-.017.902-1.119 1.64-2.554 1.887l.328.668c1.26-.235 2.25-.82 2.689-1.623.446.761 1.43 1.306 2.678 1.517l.328-.68c-1.43-.228-2.543-.908-2.566-1.769h2.32v-.691zm-6.059 3.96.118.715c1.834.012 4.306-.011 6.504-.386l-.059-.645c-.897.123-1.863.194-2.824.24V82.2h-.903v1.154a82.123 82.123 0 0 1-2.836.041zm1.36 2.215h5.871v.88h-5.848v2.343h7.16v-.703h-6.246v-.973h5.848v-2.238h-6.785v.691zm5.859-1.148h.926v-2.648h1.559v-.762h-1.559v-2.52h-.926v5.93zm6.035-5.297c-1.558-.006-2.713 1.014-2.707 2.473-.006 1.447 1.149 2.466 2.707 2.46.879.007 1.629-.328 2.11-.878h2.73v1.488h.926v-6.176h-.926v1.512h-2.73c-.487-.55-1.231-.885-2.11-.879zm-1.828 2.473c0-.99.762-1.682 1.828-1.676 1.032-.006 1.805.686 1.805 1.676 0 .966-.773 1.681-1.805 1.675-1.066.006-1.828-.709-1.828-1.675zm.645 5.297c-.006 1.265 1.33 1.992 3.492 1.992 2.156 0 3.492-.727 3.492-1.992 0-1.254-1.336-1.98-3.492-1.98-2.162 0-3.498.726-3.492 1.98zm.902 0c-.006-.791.99-1.26 2.59-1.266 1.6.006 2.596.475 2.59 1.266.006.785-.99 1.26-2.59 1.254-1.6.005-2.596-.47-2.59-1.254zm2.83-6.141h2.291v1.664h-2.285a2.481 2.481 0 0 0-.006-1.664zm10.154-.457h-2.144v-1.488h-.914v1.488h-2.168v.75h5.226v-.75zm-4.851 3.82c0 1.4.943 2.385 2.238 2.39 1.313-.005 2.25-.99 2.262-2.39-.012-1.383-.949-2.361-2.262-2.367-1.295.006-2.238.984-2.238 2.367zm.82 0c0-.914.592-1.582 1.418-1.594.832.012 1.442.68 1.442 1.594 0 .926-.61 1.588-1.442 1.582-.826.006-1.418-.656-1.418-1.582zm4.571 4.278h.867v-4.746h1.383v5.261h.878V78.531h-.878v4.395h-1.383v-4.137h-.867v9.645zm16.078-.48h-6.282v-2.227h-.925v3h7.207v-.774zm-8.438-3.06h9.527v-.773h-4.335v-1.77h-.903v1.77h-4.289v.773zm.621-2.59.375.727c1.571-.293 3.106-1.183 3.75-2.449.645 1.266 2.18 2.15 3.75 2.45l.364-.727c-1.823-.287-3.657-1.547-3.657-3.024v-.469h-.926v.47c0 1.464-1.833 2.718-3.656 3.023zm12.328 2.72h-.914v3.785h6.868v-3.786h-.903v1.137h-5.051v-1.137zm-2.566-1.922.129.761c.902 0 1.939 0 3.035-.04v1.517h.914v-1.565a27.73 27.73 0 0 0 2.871-.31l-.058-.656c-2.291.293-4.911.293-6.891.293zm.469-1.371.422.726c1.236-.316 2.191-1.02 2.63-1.951.457.873 1.413 1.512 2.631 1.787l.399-.703c-1.5-.328-2.567-1.207-2.567-2.274v-.527h-.937v.527c-.006 1.12-1.061 2.063-2.578 2.415zm2.097 6.328v-1.172h5.051v1.172h-5.051zm5.039-3.54h.915v-5.976h-.915v5.976zm11.672-5.988h-.879V88.95h.879V78.531zm-8.906 7.5.539.668c1.453-.855 2.461-1.927 3.088-3.14h2.209v4.863h.879v-9.61h-.879v3.997h-1.869c.357-.926.521-1.916.521-2.942h-4.043v.762h3.129c-.175 2.18-1.312 4.06-3.574 5.402zm22.875-2.543h-9.504v.774h9.504v-.774zm-8.355 3.563c-.006 1.207 1.347 1.875 3.597 1.875 2.233 0 3.574-.668 3.586-1.875-.012-1.195-1.353-1.875-3.586-1.875-2.25 0-3.603.68-3.597 1.875zm.058-4.559h7.184v-.75h-6.281v-2.015h6.21v-.774h-7.113v3.54zm.879 4.559c-.012-.727.99-1.149 2.66-1.16 1.653.011 2.655.433 2.66 1.16-.005.732-1.007 1.148-2.66 1.148-1.67 0-2.672-.416-2.66-1.148zm17.813-2.778h-4.325v-1.101h3.317v-.738h-6.375V81.32h6.152V78.8h-7.101v.75h6.175v1.079h-6.14v2.543h3.07v1.101h-4.312v.762h9.539v-.762zm-8.473 2.309h6.375v2.274h.926v-3.024h-7.301v.75zm14.519-6.246h-2.144v-1.488h-.914v1.488h-2.168v.75h5.226v-.75zm-4.851 3.82c0 1.4.943 2.385 2.238 2.39 1.313-.005 2.25-.99 2.262-2.39-.012-1.383-.949-2.361-2.262-2.367-1.295.006-2.238.984-2.238 2.367zm.82 0c0-.914.592-1.582 1.418-1.594.832.012 1.442.68 1.442 1.594 0 .926-.61 1.588-1.442 1.582-.826.006-1.418-.656-1.418-1.582zm4.571 4.278h.867v-4.746h1.383v5.261h.878V78.531h-.878v4.395h-1.383v-4.137h-.867v9.645zm14.167-1.582h-4.347v-2.25h3.176v-5.333h-.903v1.887h-5.414V79.27h-.926v5.333h3.164v2.25h-4.289v.761h9.539v-.761zm-7.488-3v-1.946h5.414v1.946h-5.414zm11.414-2.356v-1.98h-.89v2.015c0 1.787-.879 3.633-2.321 4.477l.586.691c1.043-.633 1.817-1.828 2.198-3.217.363 1.272 1.084 2.385 2.091 2.995l.528-.715c-1.383-.82-2.192-2.608-2.192-4.266zm1.043 1.559h1.77v5.367h.867v-9.668h-.867v3.515h-1.77v.786zm3.903 5.894h.89V78.531h-.89V88.95zm11.871-2.11h-2.367v-2.835c.861-.463 1.382-1.201 1.382-2.133 0-1.611-1.582-2.672-3.808-2.683-2.227.011-3.809 1.072-3.809 2.683 0 .95.539 1.7 1.43 2.162v2.807h-2.367v.773h9.539v-.773zm-7.711-4.968c-.006-1.166 1.207-1.933 2.918-1.922 1.693-.011 2.918.756 2.918 1.922s-1.225 1.945-2.918 1.945c-1.711 0-2.924-.779-2.918-1.945zm1.441 4.969v-2.473c.445.117.944.176 1.477.176.545 0 1.049-.065 1.5-.182v2.479h-2.977zm8.203 1.23a.758.758 0 0 0 .75-.761.748.748 0 0 0-.75-.75c-.41 0-.761.34-.75.75-.011.416.34.755.75.761z"/>
    </g>
    <defs>
        <clipPath id="v97rkbnska">
            <rect width="327" height="296" rx="16" fill="#fff"/>
        </clipPath>
        <clipPath id="semcy2agfb">
            <rect y="96" width="327" height="200" rx="16" fill="#fff"/>
        </clipPath>
        <filter id="ydd32f9cjc" x="67" y="129" width="66.778" height="51.07" filterUnits="userSpaceOnUse" color-interpolation-filters="sRGB">
            <feFlood flood-opacity="0" result="BackgroundImageFix"/>
            <feBlend in="SourceGraphic" in2="BackgroundImageFix" result="shape"/>
            <feGaussianBlur stdDeviation="2" result="effect1_foregroundBlur_8359_173892"/>
        </filter>
    </defs>
</svg>
