<svg width="240" height="160" viewBox="0 0 240 160" fill="none" xmlns="http://www.w3.org/2000/svg">
    <path d="M99.817 53.119c.802.495-.52-.204-2.927-.955-1.737-.543-2.984-.464-3.997-.283-3.638.652-11.216 6.483-10.125 15.427.75 6.151 5.566 13.935 9.503 17.697 2.67 2.552 5.283 4.014 8.604 5.168 8.217 2.856 6.41 3.135-.994-.672-5.785-2.977-13.97-17.18-11.002-27.248 3.586-12.156 9.48-10.033 10.935-9.133l.003-.001z" fill="#2EB3E5"/>
    <path d="M99.817 53.119c.802.495-.52-.204-2.927-.955-1.737-.543-2.984-.464-3.997-.283-3.638.652-11.216 6.483-10.125 15.427.75 6.151 5.566 13.935 9.503 17.697 2.67 2.552 5.283 4.014 8.604 5.168 8.217 2.856 6.41 3.135-.994-.672-5.785-2.977-13.97-17.18-11.002-27.248 3.586-12.156 9.48-10.033 10.935-9.133l.003-.001z" fill="#2EB3E5"/>
    <path d="M161.005 73.682c-4.742-.985-14.935.916-31.236 8.872-18.746 9.151-24.808 7.582-31.127 5.923-3.539-.929-6.365-3.475-6.365-3.475s5.988 5.175 9.229 6.64c3.242 1.465 10.298 5.201 27.721-1.915 8.146-3.327 13.488-8.067 24.964-12.841 6.098-2.54 8.768-2.07 12.633.599 2.136 1.475 2.095.94-.227-1.208-1.741-1.613-4.528-2.377-5.59-2.6l-.002.005z" fill="#2EB3E5"/>
    <path d="M161.005 73.682c-4.742-.985-14.935.916-31.236 8.872-18.746 9.151-24.808 7.582-31.127 5.923-3.539-.929-6.365-3.475-6.365-3.475s5.988 5.175 9.229 6.64c3.242 1.465 10.298 5.201 27.721-1.915 8.146-3.327 13.488-8.067 24.964-12.841 6.098-2.54 8.768-2.07 12.633.599 2.136 1.475 2.095.94-.227-1.208-1.741-1.613-4.528-2.377-5.59-2.6l-.002.005z" fill="#2EB3E5"/>
    <path d="M161.005 73.682c-4.742-.985-14.935.916-31.236 8.872-18.746 9.151-24.808 7.582-31.127 5.923-3.539-.929-6.365-3.475-6.365-3.475s5.988 5.175 9.229 6.64c3.242 1.465 10.298 5.201 27.721-1.915 8.146-3.327 13.488-8.067 24.964-12.841 6.098-2.54 8.768-2.07 12.633.599 2.136 1.475 2.095.94-.227-1.208-1.741-1.613-4.528-2.377-5.59-2.6l-.002.005z" fill="#0785B5"/>
    <path d="m172.663 101.814 5.432 3.36s.404-.045.022-.453c-2.287-2.421-3.782-4.633-4.301-11.685-.439-5.96-1.16-10.319-3.367-13.516-3.737-5.418-9.442-5.842-9.442-5.842s3.421.987 4.978 3.633c2.17 3.683 2.178 6.554 2.596 13.753.38 6.563 1.477 8.193 3.62 10.326.23.227.465.422.465.422l-.003.002z" fill="#2EB3E5"/>
    <path d="m172.663 101.814 5.432 3.36s.404-.045.022-.453c-2.287-2.421-3.782-4.633-4.301-11.685-.439-5.96-1.16-10.319-3.367-13.516-3.737-5.418-9.442-5.842-9.442-5.842s3.421.987 4.978 3.633c2.17 3.683 2.178 6.554 2.596 13.753.38 6.563 1.477 8.193 3.62 10.326.23.227.465.422.465.422l-.003.002z" fill="#0785B5"/>
    <path d="M115.281 89.66s-4.153-1.267-8.472-4.604c-8.602-6.644-1.1-20.5-4.386-27.432-3.313-6.99-9.606-5.732-9.606-5.732s5.595-1.142 9.972 2.052c2.375 1.732 6.479 5.319 6.162 13.48-.286 7.353-2.939 15.412 6.352 21.777 2.921 2-.023.457-.023.457l.001.003z" fill="#2EB3E5"/>
    <path d="m166.923 106.934 3.889-7.221a2.088 2.088 0 0 1 2.82-.846l8.556 4.609a2.088 2.088 0 0 1 .846 2.819l-3.89 7.221" stroke="#CCC" stroke-width="5.079" stroke-miterlimit="10"/>
    <path d="M177.843 143.615c10.622-6.865 13.668-21.041 6.803-31.664-6.865-10.622-21.042-13.668-31.664-6.802-10.623 6.865-13.668 21.041-6.803 31.663 6.865 10.623 21.041 13.669 31.664 6.803z" fill="#CCC"/>
    <path d="M177.843 143.615c10.622-6.865 13.668-21.041 6.803-31.664-6.865-10.622-21.042-13.668-31.664-6.802-10.623 6.865-13.668 21.041-6.803 31.663 6.865 10.623 21.041 13.669 31.664 6.803z" fill="url(#xvnx85zyda)"/>
    <path d="M177.843 143.615c10.622-6.865 13.668-21.041 6.803-31.664-6.865-10.622-21.042-13.668-31.664-6.802-10.623 6.865-13.668 21.041-6.803 31.663 6.865 10.623 21.041 13.669 31.664 6.803z" fill="url(#nxh8ldm3ab)"/>
    <path d="M176.929 142.202c9.842-6.361 12.664-19.495 6.304-29.337-6.361-9.842-19.496-12.664-29.338-6.303-9.842 6.36-12.664 19.495-6.303 29.337 6.361 9.842 19.496 12.664 29.337 6.303z" fill="url(#lzqc6llvbc)"/>
    <path d="M176.929 142.202c9.842-6.361 12.664-19.495 6.304-29.337-6.361-9.842-19.496-12.664-29.338-6.303-9.842 6.36-12.664 19.495-6.303 29.337 6.361 9.842 19.496 12.664 29.337 6.303z" fill="url(#o3oaih3vpd)"/>
    <path d="M176.362 141.324c9.356-6.048 12.039-18.535 5.992-27.891-6.047-9.357-18.534-12.04-27.891-5.993-9.356 6.047-12.039 18.535-5.992 27.891 6.047 9.357 18.534 12.04 27.891 5.993z" fill="#CCC"/>
    <path d="M176.362 141.324c9.356-6.048 12.039-18.535 5.992-27.891-6.047-9.357-18.534-12.04-27.891-5.993-9.356 6.047-12.039 18.535-5.992 27.891 6.047 9.357 18.534 12.04 27.891 5.993z" fill="url(#fvnaukl5ye)"/>
    <path d="m165.299 137.188 1.559-1.176-1.003 2.96-.556-1.784zM167.394 137.893l-.536-1.881-1.003 2.96 1.539-1.079zM163.979 138.957l-.633-1.852 2.509 1.867-1.876-.015z" fill="#B3B3B3"/>
    <path d="m165.299 137.188-1.953-.083 2.509 1.867-.556-1.784zM165.258 140.753l-1.957.029 2.554-1.81-.597 1.781z" fill="#B3B3B3"/>
    <path d="m163.979 138.957-.678 1.825 2.554-1.81-1.876-.015zM167.358 140.101l-.573 1.858-.93-2.987 1.503 1.129z" fill="#B3B3B3"/>
    <path d="m165.258 140.753 1.527 1.206-.93-2.987-.597 1.781zM167.394 137.893l1.597 1.119-3.136-.04 1.539-1.079zM167.358 140.101l1.633-1.089-3.136-.04 1.503 1.129z" fill="#B3B3B3"/>
    <path d="m165.299 137.188 1.559-1.176-1.003 2.96-.556-1.784z" fill="url(#5mj98oqdrf)"/>
    <path d="m163.979 138.957-.633-1.852 2.509 1.867-1.876-.015z" fill="url(#quw0wr0bdg)"/>
    <path d="m163.979 138.957-.678 1.825 2.554-1.81-1.876-.015z" fill="url(#h3k05uak5h)"/>
    <path d="m165.258 140.753 1.527 1.206-.93-2.987-.597 1.781z" fill="url(#mktuteopmi)"/>
    <path d="m167.358 140.101 1.633-1.089-3.136-.04 1.503 1.129z" fill="url(#e1388zxd2j)"/>
    <path d="m167.394 137.893-.536-1.881-1.003 2.96 1.539-1.079z" fill="url(#valxmbj7ak)"/>
    <path d="m165.299 137.188-1.953-.083 2.509 1.867-.556-1.784z" fill="url(#nn5ldhnk4l)"/>
    <path d="m165.258 140.753-1.957.029 2.554-1.81-.597 1.781z" fill="url(#pwrc02phim)"/>
    <path d="m167.358 140.101-.573 1.858-.93-2.987 1.503 1.129z" fill="url(#c4va1dz25n)"/>
    <path d="m160.742 135.3-.205-1.943-1.49 2.753 1.695-.81z" fill="#B3B3B3"/>
    <path d="m158.793 134.248 1.744-.891-1.49 2.753-.254-1.862z" fill="#B3B3B3"/>
    <path d="m160.349 137.462 1.773-.793-3.075-.559 1.302 1.352z" fill="#B3B3B3"/>
    <path d="m160.742 135.3 1.381 1.369-3.076-.559 1.695-.81zM158.162 137.758l1.301 1.454-.416-3.102-.885 1.648z" fill="#B3B3B3"/>
    <path d="m160.349 137.462-.886 1.75-.416-3.102 1.302 1.352zM157.199 135.774l-.966 1.692 2.814-1.356-1.848-.336zM158.162 137.758l-1.929-.292 2.814-1.356-.885 1.648zM158.793 134.248l-1.905-.399 2.159 2.261-.254-1.862zM157.199 135.774l-.311-1.925 2.159 2.261-1.848-.336z" fill="#B3B3B3"/>
    <path d="m158.793 134.248 1.744-.891-1.49 2.753-.254-1.862z" fill="url(#eykocozbuo)"/>
    <path d="m160.349 137.462 1.774-.793-3.076-.559 1.302 1.352z" fill="url(#jr5unwuqzp)"/>
    <path d="m158.162 137.758 1.301 1.454-.416-3.102-.885 1.648z" fill="url(#mbmyzte90q)"/>
    <path d="m157.199 135.774-.966 1.692 2.814-1.356-1.848-.336z" fill="url(#sjo5y0y3pr)"/>
    <path d="m157.199 135.774-.311-1.925 2.159 2.261-1.848-.336z" fill="url(#65vu18dars)"/>
    <path d="m160.742 135.3-.205-1.943-1.49 2.753 1.695-.81z" fill="url(#vqayqmcbdt)"/>
    <path d="m160.349 137.462-.886 1.75-.416-3.102 1.302 1.352z" fill="url(#lre5kk908u)"/>
    <path d="m158.162 137.758-1.929-.292 2.814-1.356-.885 1.648z" fill="url(#du5qzsdcgv)"/>
    <path d="m158.793 134.248-1.905-.399 2.159 2.261-.254-1.862z" fill="url(#0tsajbm6yw)"/>
    <path d="m154.812 131.535.112-1.947-1.919 2.467 1.807-.52z" fill="#B3B3B3"/>
    <path d="m153.071 130.181 1.853-.593-1.919 2.467.066-1.874zM154.06 133.609l1.883-.494-2.938-1.06 1.055 1.554z" fill="#B3B3B3"/>
    <path d="m154.812 131.535 1.131 1.58-2.938-1.06 1.807-.52zM151.851 133.533l1.045 1.644.109-3.122-1.154 1.478zM154.06 133.609l-1.164 1.568.109-3.122 1.055 1.554zM151.245 131.412l-1.244 1.509 3.004-.866-1.76-.643zM151.851 133.533l-1.85-.612 3.004-.866-1.154 1.478z" fill="#B3B3B3"/>
    <path d="m153.071 130.181-1.816-.717 1.75 2.591.066-1.874z" fill="#B3B3B3"/>
    <path d="m151.245 131.412.01-1.948 1.75 2.591-1.76-.643z" fill="#B3B3B3"/>
    <path d="m153.071 130.181 1.853-.593-1.919 2.467.066-1.874z" fill="url(#deeisc39ax)"/>
    <path d="m154.06 133.609 1.883-.494-2.938-1.06 1.055 1.554z" fill="url(#k1ojguznky)"/>
    <path d="m151.851 133.533 1.045 1.644.109-3.122-1.154 1.478z" fill="url(#8rkr2o6lhz)"/>
    <path d="m151.245 131.412-1.244 1.509 3.004-.866-1.76-.643z" fill="url(#bc883ehktA)"/>
    <path d="m151.245 131.412.01-1.948 1.75 2.591-1.76-.643z" fill="url(#f361d95j7B)"/>
    <path d="m154.812 131.535.112-1.947-1.919 2.467 1.807-.52z" fill="url(#fehkktrrgC)"/>
    <path d="m154.06 133.609-1.164 1.568.109-3.122 1.055 1.554z" fill="url(#ll6ok43wlD)"/>
    <path d="m151.851 133.533-1.85-.612 3.004-.866-1.154 1.478z" fill="url(#yqux7v5f6E)"/>
    <path d="m154.812 131.535 1.131 1.58-2.938-1.06 1.807-.52z" fill="url(#bdivgmtrnF)"/>
    <path d="m153.071 130.181-1.816-.717 1.75 2.591.066-1.874z" fill="url(#wrluiyfesG)"/>
    <path d="m151.245 131.412-1.244 1.509 3.004-.866-1.76-.643z" fill="url(#uq4sy01dmH)"/>
    <path d="m173.266 118.502-.804-7.483-5.716 10.615 6.52-3.132z" fill="#CCC"/>
    <path d="m165.775 114.468 6.687-3.449-5.716 10.615-.971-7.166zM171.744 126.866l6.863-3.072-11.861-2.16 4.998 5.232z" fill="#B3B3B3"/>
    <path d="m173.266 118.502 5.341 5.292-11.861-2.16 6.52-3.132zM163.314 128.003l5.045 5.581-1.613-11.95-3.432 6.369zM171.744 126.866l-3.385 6.718-1.613-11.95 4.998 5.232z" fill="#B3B3B3"/>
    <path d="m171.744 126.866-3.385 6.718-1.613-11.95 4.998 5.232z" fill="url(#vv23uo7h7I)"/>
    <path d="m159.629 120.339-3.749 6.523 10.866-5.228-7.117-1.295z" fill="#B3B3B3"/>
    <path d="m163.314 128.003-7.434-1.141 10.866-5.228-3.432 6.369zM173.266 118.502l-.804-7.483-5.716 10.615 6.52-3.132z" fill="#B3B3B3"/>
    <path d="m173.266 118.502-.804-7.483-5.716 10.615 6.52-3.132z" fill="url(#pyd2oohxwJ)"/>
    <path d="m163.314 128.003-7.434-1.141 10.866-5.228-3.432 6.369z" fill="url(#shzou0kgiK)"/>
    <path d="m165.775 114.468-7.36-1.55 8.331 8.716-.971-7.166z" fill="#B3B3B3"/>
    <path d="m173.266 118.502 5.341 5.292-11.861-2.16 6.52-3.132z" fill="url(#s5llcpgfuL)"/>
    <path d="m165.775 114.468-7.36-1.55 8.331 8.716-.971-7.166z" fill="url(#3dxb1iqjwM)"/>
    <path d="m159.629 120.339-1.214-7.421 8.331 8.716-7.117-1.295z" fill="#B3B3B3"/>
    <path d="m165.775 114.468 6.687-3.449-5.716 10.615-.971-7.166z" fill="url(#1xewu5uyyN)"/>
    <path d="m171.744 126.866 6.863-3.072-11.861-2.16 4.998 5.232z" fill="url(#s73gyuk85O)"/>
    <path d="m163.314 128.003 5.045 5.581-1.613-11.95-3.432 6.369z" fill="url(#343hf48igP)"/>
    <path d="m159.629 120.339-3.749 6.523 10.866-5.228-7.117-1.295z" fill="url(#8nek5zdb1Q)"/>
    <path d="m159.629 120.339-1.214-7.421 8.331 8.716-7.117-1.295z" fill="url(#qshojgnfxR)"/>
    <path d="M115.281 89.66s-4.153-1.267-8.472-4.604c-8.602-6.644-1.1-20.5-4.386-27.432-3.313-6.99-9.606-5.732-9.606-5.732s5.595-1.142 9.972 2.052c2.375 1.732 6.479 5.319 6.162 13.48-.286 7.353-2.939 15.412 6.352 21.777 2.921 2-.023.457-.023.457l.001.003z" fill="#2EB3E5"/>
    <path d="M181.97 82.22s-1.39-9.175-6.126-13.607c-5.334-4.992-16.324-10.199-27.087-1.886-10.766 8.314-16.556 22.133-32.744 22.048-4.856-.024-9.2-3.717-9.2-3.717s5.043 4.102 9.065 5.653c5.758 2.225 12.808 2.738 19.797-2.217 12.519-8.873 17.492-23.812 30.921-21.84 14.861 2.182 15.378 15.568 15.378 15.568l-.004-.001z" fill="#2EB3E5"/>
    <path d="M181.97 82.22s-1.39-9.175-6.126-13.607c-5.334-4.992-16.324-10.199-27.087-1.886-10.766 8.314-16.556 22.133-32.744 22.048-4.856-.024-9.2-3.717-9.2-3.717s5.043 4.102 9.065 5.653c5.758 2.225 12.808 2.738 19.797-2.217 12.519-8.873 17.492-23.812 30.921-21.84 14.861 2.182 15.378 15.568 15.378 15.568l-.004-.001z" fill="#2EB3E5"/>
    <path d="m172.663 101.814 6.222 3.847s.88.424 2.066-.929c2.515-2.876 4.515-7.698 4.534-13.22.053-13.74-9.642-22.902-9.642-22.902s6.671 7.512 4.152 21.426c-.693 3.822-3.021 9.387-5.06 11.172-1.324 1.158-2.272.606-2.272.606z" fill="#2EB3E5"/>
    <g opacity=".15" filter="url(#lg5734iviS)">
        <path d="M134.056 105.051c-1.166-5.655-12.827-8.03-26.047-5.302-13.22 2.727-22.988 9.521-21.822 15.176l.564 2.731c1.166 5.654 12.827 8.028 26.045 5.302 13.218-2.727 22.99-9.522 21.823-15.176l-.563-2.731z" fill="#3F3F3F"/>
        <path d="M132.588 105.265c.991 4.806-8.272 10.78-20.688 13.341-12.416 2.561-23.288.741-24.28-4.066-.991-4.806 8.272-10.78 20.688-13.341 12.416-2.56 23.287-.74 24.278 4.066h.002zM148.463 54.379c2.148 14.138-22.33 23.45-22.911 23.273-.58-.177 3.379-9.819 3.379-9.819s12.816-5.57 11.824-11.784c-.993-6.214-8.949-3.637-8.949-3.637l-.448-7.49s14.957-4.681 17.105 9.457zM63.763 57.116S47.478 59.3 51.707 73.682c4.229 14.38 31.607 12.373 32.08 11.946.474-.425-7.563-7.828-7.563-7.828s-14.642.393-16.455-5.95c-1.812-6.342 6.887-7.422 6.887-7.422l-2.894-7.312z" fill="#3F3F3F"/>
        <path d="m92.455 88.876 9.867-3.446-.178-.893 3.261-.183 3.083-1.078.178.893 10.435-.589s-4.004 1.393-.102 24.024c-2.45 1.47-3.952 2.314-8.339 3.186-4.387.872-6.097.666-8.924.245-5.05-22.4-9.281-22.159-9.281-22.159z" fill="#3F3F3F"/>
        <path d="m132.771 39.87 1.45 7.296c3.83 19.27-8.687 37.998-27.958 41.828-19.27 3.83-37.998-8.687-41.828-27.958l-1.45-7.296 69.786-13.87z" fill="#3F3F3F"/>
        <g filter="url(#864bqui8hT)">
            <path d="M105.268 74.957a.887.887 0 0 0-.84.177l-5.205 4.504a.886.886 0 0 1-1.465-.629l-.34-7.27a.887.887 0 0 0-.392-.697l-5.953-3.975a.886.886 0 0 1 .18-1.567l6.463-2.429a.886.886 0 0 0 .55-.627l1.626-6.925a.886.886 0 0 1 1.57-.332l4.288 5.675a.888.888 0 0 0 .758.35l6.893-.393a.886.886 0 0 1 .799 1.36l-3.835 6.044a.885.885 0 0 0-.078.796l2.631 6.784a.886.886 0 0 1-1.086 1.168l-6.564-2.014z" fill="#3F3F3F"/>
        </g>
        <path d="M136.073 35.502c.47 2.593-1.259 5.465-3.879 6.351a290.817 290.817 0 0 1-69.857 12.672c-2.764.09-5.392-1.99-5.862-4.584-.471-2.595 1.259-5.466 3.878-6.352a290.827 290.827 0 0 1 69.858-12.672c2.765-.09 5.391 1.991 5.862 4.585z" fill="#3F3F3F"/>
        <path d="M125.788 32.646a5.022 5.022 0 0 0 2.264-1.599A290.859 290.859 0 0 0 62.42 42.953a5.019 5.019 0 0 0 2.681.701 252.655 252.655 0 0 0 60.689-11.009h-.002z" fill="#3F3F3F"/>
    </g>
    <path d="M134.056 104.051c-1.166-5.655-12.827-8.03-26.047-5.302-13.22 2.727-22.988 9.521-21.822 15.176l.564 2.731c1.166 5.654 12.827 8.028 26.045 5.302 13.218-2.727 22.99-9.522 21.823-15.176l-.563-2.731z" fill="#FFCE1F"/>
    <path d="M132.588 104.265c.991 4.806-8.272 10.78-20.688 13.341-12.416 2.561-23.288.741-24.28-4.066-.991-4.806 8.272-10.78 20.688-13.341 12.416-2.56 23.287-.74 24.278 4.066h.002z" fill="#FFDE7B"/>
    <path d="M148.463 53.379c2.148 14.138-22.33 23.45-22.911 23.273-.58-.177 3.379-9.819 3.379-9.819s12.816-5.57 11.824-11.784c-.993-6.214-8.949-3.637-8.949-3.637l-.448-7.49s14.957-4.681 17.105 9.457zM63.763 56.116S47.478 58.3 51.707 72.682c4.229 14.38 31.607 12.373 32.08 11.946.474-.425-7.563-7.828-7.563-7.828s-14.642.393-16.455-5.95c-1.812-6.342 6.887-7.422 6.887-7.422l-2.894-7.312z" fill="#FFCE1F"/>
    <path d="m92.455 87.876 9.867-3.446-.178-.893 3.261-.183 3.083-1.078.178.893 10.435-.589s-4.004 1.393-.102 24.024c-2.45 1.47-3.952 2.314-8.339 3.186-4.387.872-6.097.666-8.924.245-5.05-22.4-9.281-22.159-9.281-22.159z" fill="#F3C12D"/>
    <path d="m132.771 38.87 1.45 7.296c3.83 19.27-8.687 37.998-27.958 41.828-19.27 3.83-37.998-8.687-41.828-27.958l-1.45-7.296 69.786-13.87z" fill="#FFD760"/>
    <g filter="url(#w6f3qzlk0U)">
        <path d="M105.268 73.957a.887.887 0 0 0-.84.177l-5.205 4.504a.886.886 0 0 1-1.465-.629l-.34-7.27a.887.887 0 0 0-.392-.697l-5.953-3.975a.886.886 0 0 1 .18-1.567l6.463-2.429a.886.886 0 0 0 .55-.627l1.626-6.925a.886.886 0 0 1 1.57-.332l4.288 5.675a.888.888 0 0 0 .758.35l6.893-.393a.886.886 0 0 1 .799 1.36l-3.835 6.044a.885.885 0 0 0-.078.796l2.631 6.784a.886.886 0 0 1-1.086 1.168l-6.564-2.014z" fill="#FFEFBE"/>
    </g>
    <path d="M136.073 34.502c.47 2.593-1.259 5.465-3.879 6.351a290.817 290.817 0 0 1-69.857 12.672c-2.764.09-5.392-1.99-5.862-4.584-.471-2.595 1.259-5.466 3.878-6.352a290.832 290.832 0 0 1 69.858-12.672c2.765-.09 5.391 1.991 5.862 4.585z" fill="#FFE496"/>
    <path d="M125.788 31.646a5.022 5.022 0 0 0 2.264-1.599A290.859 290.859 0 0 0 62.42 41.953a5.019 5.019 0 0 0 2.681.701 252.655 252.655 0 0 0 60.689-11.009h-.002z" fill="#F3C12D"/>
    <path d="M211.124 25.523c.56.49 1.306.965 2.108 1.46.036.03.077.046.113.075l.496-4.397s-.077-.045-.113-.075c-.787-.49-1.548-.97-2.108-1.46-.506-.446-.811-.902-.765-1.31l-.497 4.399c-.046.407.26.862.766 1.308zM213.31 16.469c.325.219.674.439 1.032.655.801.496 1.608.978 2.251 1.476.603.46 1.039.925 1.136 1.348l.487-4.393c-.092-.437-.533-.889-1.136-1.348-.653-.494-1.45-.98-2.251-1.477a24.327 24.327 0 0 1-1.032-.655l-.497 4.398.01-.004z" fill="#FFDF87"/>
    <path d="M218.212 15.648c-.046.408-.448.78-1.044 1.103-.648.358-1.494.655-2.373.956-.897.31-1.78.6-2.526.945-.683.305-1.216.667-1.401 1.068-.075.648-.421 3.75-.496 4.398.185-.401.722-.754 1.401-1.069.74-.33 1.628-.635 2.526-.944.888-.305 1.734-.603 2.372-.956.596-.323.999-.696 1.045-1.103.075-.648.421-3.75.496-4.398z" fill="#FFC02E"/>
    <path d="M186.386 49.24c.075.26.176.517.302.77.64 1.16 2.047 1.811 3.223 2.29 1.598.637 3.279 1.044 4.967 1.411 1.303.28 2.602.535 3.908.84.036-.018.097-.04.134-.058.512-.201 2.329-.754 2.2-1.574a.955.955 0 0 0-.23-.354c-.368-.321-.931-.474-1.389-.615-.754-.229-1.512-.393-2.269-.556-1.902-.414-3.821-.775-5.712-1.294-1.648-.45-3.427-.998-4.768-2.097-.072-.054-.13-.098-.191-.166-.149.407-.243.833-.182 1.263.01.075.018.126.01.166l-.003-.026zM178.29 16.658l-.001.271c-.157-.931 0 0 0 0 .115.358.284.643.436.802.861.987 2.191 1.65 3.356 2.232 1.753.912 3.553 1.702 5.342 2.506 1.94.873 3.881 1.745 5.781 2.701 1.623.815 3.242 1.694 4.663 2.808a7.71 7.71 0 0 1 1.052.973c.069-.242.123-.495.138-.754.004-.155.022-.3.001-.451 0-.09-.022-.152-.014-.192-.025-.086-.047-.148-.072-.234-.165-.531-.504-1.012-.897-1.42-1.084-1.2-2.57-2.047-3.969-2.829-1.817-1.006-3.707-1.886-5.594-2.74-1.886-.855-3.783-1.696-5.648-2.58-1.381-.655-2.777-1.32-4.013-2.229-.13.173-.25.332-.351.527a1.74 1.74 0 0 0-.21.61z" fill="#FFB05C"/>
    <path d="m186.238 48.656.162.595c.011-.014 0-.09-.011-.166-.061-.43.034-.855.183-1.263l.141-.367c.641-1.483 1.802-2.755 2.886-3.926 2.741-2.952 5.881-5.535 8.373-8.697.842-1.06 1.768-2.35 1.868-3.743a2.486 2.486 0 0 0-.068-.75c-.007-.051-.014-.102-.032-.138a38.882 38.882 0 0 0-.7-2.672c-.007.04 0 .09.014.191.022.152.018.307 0 .452-.015.26-.07.512-.139.754-.319 1.114-1.114 2.142-1.791 3.01-2.491 3.162-5.657 5.748-8.397 8.7-1.085 1.171-2.209 2.426-2.84 3.894-.224.508-.351 1.067-.287 1.613l.053.379c.14.715.381 1.415.556 2.112l.029.022zM181.852 9.854l-1.214.712c-1.055.652-2.316 1.397-2.945 2.504a.751.751 0 0 0-.116.274c.082.31.183.748.294 1.35.122.589.25 1.318.422 2.26a.618.618 0 0 1 .001-.27 1.74 1.74 0 0 1 .21-.61c.09-.18.221-.353.351-.526.669-.83 1.727-1.456 2.594-1.978.51-.316 1.033-.622 1.572-.918l-1.14-2.777-.029-.021z" fill="#FF7A21"/>
    <path d="M25.952 13.271a29.818 29.818 0 0 1 7.66 4.682l-2.864 4.206s-5.158-5.07-7.068-5.433c.58-2.252 2.272-3.455 2.272-3.455z" fill="#FF558E"/>
    <path d="M226.216 93s5.371.464 5.784 4.639L229.108 100s-3.081-4.806-5.108-5.312L226.216 93z" fill="#5BCEC5"/>
    <path d="M54.926 138s-7.259 2.488-6.914 5.552l3.45 3.448s3.118-7.023 5.538-7.342L54.926 138z" fill="#FFC02E"/>
    <path d="m8.011 55-1.947-2.977c-.042.031-.063.054-.064.054.183-.194.814-1.232 1.593-3.197.78-1.966 1.04-3.176 1.044-3.454 0 0 0 .033.007.087L11.976 45c.134 1.032-.299 2.821-1.291 5.323-.992 2.5-1.893 4.073-2.675 4.677h.001zM162.418 22c-.448-1.51-1.285-2.97-2.418-4.22l2.965-1.78c1.423 1.57 2.471 3.4 3.035 5.296l-3.58.704h-.002z" fill="#FF558E"/>
    <path d="M14.606 94 14 97.501l9.245 1.6.606-3.5L14.606 94zM72.724 127 70 129.282l3.763 4.491 2.723-2.282L72.723 127z" fill="#5BCEC5"/>
    <path d="m213.487 50.688-3.523 5.193 2.94 1.995 3.523-5.192-2.94-1.995z" fill="#86ABF3"/>
    <path d="M24.227 43c-.409 0-.818-.013-1.227-.039l.181-3.495c1.716.107 3.435-.05 5.111-.466L29 42.413a19.83 19.83 0 0 1-4.774.586l.001.001z" fill="#FFC02E"/>
    <path d="M20.721 131.998c-1.133-1.6-2.81-2.864-4.721-3.558l1.421-3.44c2.662.967 5 2.728 6.579 4.959L20.721 132v-.002zM143.497 11 142 7.491c2.269-1.276 4.036-3.702 4.725-6.491L150 2.067c-.949 3.838-3.38 7.177-6.503 8.933z" fill="#86ABF3"/>
    <path d="M203.202 78.23s5.26-3.126 7.798.59L209.513 83s-5.357-2.547-7.513-1.683l1.202-3.087z" fill="#FF558E"/>
    <path d="M49.797 121.815s-.04-.006-.058-.006c-1.232-.207-2.413-.837-3.408-1.566a7.722 7.722 0 0 1-.708-.587 9.545 9.545 0 0 1-.873-.932c-1.039-1.293-1.664-2.881-1.528-4.59.01-.17.032-.338.06-.509.025-.142.05-.284.083-.43.017-.055.025-.143.029-.154-.107.37-.22.743-.323 1.119a7.927 7.927 0 0 0-.247 1.262c-.147 1.466.245 2.874.995 4.074a7.884 7.884 0 0 0 1.908 2.08c.996.765 2.175 1.442 3.426 1.685.04.006.073.016.113.023.187-.495.42-.969.535-1.48l-.004.011z" fill="#FFC02E"/>
    <path d="M43.39 113.053c.177-.6.398-1.168.696-1.713a7.54 7.54 0 0 1 2.028-2.367c.117.323.263.631.435.935a7.398 7.398 0 0 0-2.13 1.815 8.345 8.345 0 0 0-1.027 1.66 4.915 4.915 0 0 0-.106.249c.025-.142.05-.284.083-.43.017-.055.025-.142.029-.153l-.008.004zM46.423 104.396c.31-.919.993-1.724 1.882-2.124.757-.339 1.6-.466 2.417-.553 1.994-.208 4.01-.115 6.014-.2.834-.04 1.685-.098 2.5-.312.363-.093.755-.237 1.065-.467.038.072.058.144.081.223a.744.744 0 0 1 .024.199v.174c-.002.029-.005.059-.011.099-.013.08-.036.157-.056.222a.582.582 0 0 1-.041.096c-.007.022-.025.04-.031.062-.256.486-.827.726-1.327.873-.792.238-1.636.293-2.451.332-1 .055-2.002.056-3.007.068-1.004.011-2.005.03-3.011.125-.833.076-1.686.2-2.465.514-.78.314-1.391.925-1.771 1.661a3.149 3.149 0 0 1 .09-.572c.036-.139.066-.274.113-.409l-.015-.011zM56.81 110.882s-.035.073-.06.114c-.04.077-.086.147-.132.217-.028.034-.052.074-.073.104a2.057 2.057 0 0 0-.091-.43c-.17-.525-.705-.892-1.162-1.145-.707-.395-1.511-.628-2.317-.778-1.757-.331-3.627-.218-5.3.417a6.422 6.422 0 0 1-.708-.983c1.644-.931 3.61-1.226 5.48-1.064.876.075 1.759.267 2.584.59.59.227 1.204.553 1.61 1.054.408.508.37 1.144.233 1.75-.006.022-.02.047-.03.08-.014.026-.02.048-.03.081l-.005-.007z" fill="#FFDF87"/>
    <path d="M46.31 104.805c-.019.084-.031.164-.051.248-.015.109-.03.219-.039.324-.003.029-.002.065-.005.095a4.7 4.7 0 0 0 .046.931c.093.621.3 1.218.587 1.773l.119.222c.201.361.438.685.707.983.595.685 1.339 1.235 2.145 1.697 1.183.684 2.52 1.193 3.897 1.259.894.038 1.858-.135 2.55-.734.1-.09.187-.183.272-.283a.5.5 0 0 0 .073-.103c.046-.07.091-.141.133-.218.017-.037.041-.077.058-.114.014-.026.02-.048.03-.08.01-.033.025-.059.031-.081-.032.146-.072.296-.108.435-.016.072-.044.142-.06.215-.125.49-.246 1.004-.55 1.415-.232.307-.549.54-.893.705-.924.456-2.032.412-3.013.209-1.445-.296-2.882-1.009-4.041-1.908a6.402 6.402 0 0 1-2.194-3.169c-.27-.885-.223-1.746-.046-2.604.003-.011.003-.029.006-.04.033-.127.146-.519.347-1.177zM60.766 100.079a1.181 1.181 0 0 0-.085-.901c-.29-.526-.853-.86-1.369-1.137-.754-.397-1.563-.692-2.376-.975a67.418 67.418 0 0 0-1.45-.478l-.418 1.491c1.098.353 2.189.709 3.231 1.183.602.267 1.256.58 1.705 1.076.108.117.21.256.279.403.038.072.058.144.081.223a.739.739 0 0 1 .024.199v.174a1.574 1.574 0 0 1-.011.098c-.007.022-.01.051-.017.073l.406-1.429z" fill="#FFC02E"/>
    <defs>
        <linearGradient id="xvnx85zyda" x1="195.836" y1="117.339" x2="175.404" y2="122.067" gradientUnits="userSpaceOnUse">
            <stop stop-color="#E7E7E7"/>
            <stop offset="1" stop-color="#E7E7E7" stop-opacity="0"/>
        </linearGradient>
        <linearGradient id="nxh8ldm3ab" x1="114.405" y1="128.804" x2="169.489" y2="124.026" gradientUnits="userSpaceOnUse">
            <stop stop-color="#A2A2A2"/>
            <stop offset="1" stop-color="#A2A2A2" stop-opacity="0"/>
        </linearGradient>
        <linearGradient id="lzqc6llvbc" x1="183.596" y1="105.968" x2="164.602" y2="125.22" gradientUnits="userSpaceOnUse">
            <stop stop-color="#A2A2A2"/>
            <stop offset="1" stop-color="#A2A2A2" stop-opacity="0"/>
        </linearGradient>
        <linearGradient id="o3oaih3vpd" x1="147.576" y1="136.055" x2="168.881" y2="122.124" gradientUnits="userSpaceOnUse">
            <stop stop-color="#A2A2A2"/>
            <stop offset="1" stop-color="#A2A2A2" stop-opacity="0"/>
        </linearGradient>
        <linearGradient id="fvnaukl5ye" x1="138.452" y1="126.449" x2="166.078" y2="124.331" gradientUnits="userSpaceOnUse">
            <stop stop-color="#E7E7E7"/>
            <stop offset="1" stop-color="#E7E7E7" stop-opacity="0"/>
        </linearGradient>
        <linearGradient id="5mj98oqdrf" x1="166.669" y1="137.602" x2="165.491" y2="136.968" gradientUnits="userSpaceOnUse">
            <stop stop-color="#A2A2A2"/>
            <stop offset="1" stop-color="#A2A2A2" stop-opacity="0"/>
        </linearGradient>
        <linearGradient id="quw0wr0bdg" x1="165.84" y1="139.14" x2="163.116" y2="137.673" gradientUnits="userSpaceOnUse">
            <stop stop-color="#A2A2A2"/>
            <stop offset="1" stop-color="#A2A2A2" stop-opacity="0"/>
        </linearGradient>
        <linearGradient id="h3k05uak5h" x1="165.272" y1="140.195" x2="163.813" y2="139.409" gradientUnits="userSpaceOnUse">
            <stop stop-color="#A2A2A2"/>
            <stop offset="1" stop-color="#A2A2A2" stop-opacity="0"/>
        </linearGradient>
        <linearGradient id="mktuteopmi" x1="167.388" y1="140.983" x2="165.419" y2="139.923" gradientUnits="userSpaceOnUse">
            <stop stop-color="#A2A2A2"/>
            <stop offset="1" stop-color="#A2A2A2" stop-opacity="0"/>
        </linearGradient>
        <linearGradient id="e1388zxd2j" x1="168.657" y1="139.762" x2="166.214" y2="138.446" gradientUnits="userSpaceOnUse">
            <stop stop-color="#A2A2A2"/>
            <stop offset="1" stop-color="#A2A2A2" stop-opacity="0"/>
        </linearGradient>
        <linearGradient id="valxmbj7ak" x1="167.407" y1="138" x2="166.211" y2="137.356" gradientUnits="userSpaceOnUse">
            <stop stop-color="#E7E7E7" stop-opacity=".4"/>
            <stop offset="1" stop-color="#E7E7E7" stop-opacity="0"/>
        </linearGradient>
        <linearGradient id="nn5ldhnk4l" x1="166.247" y1="138.385" x2="163.523" y2="136.917" gradientUnits="userSpaceOnUse">
            <stop stop-color="#E7E7E7" stop-opacity=".4"/>
            <stop offset="1" stop-color="#E7E7E7" stop-opacity="0"/>
        </linearGradient>
        <linearGradient id="pwrc02phim" x1="165.553" y1="140.347" x2="164.05" y2="139.537" gradientUnits="userSpaceOnUse">
            <stop stop-color="#E7E7E7" stop-opacity=".4"/>
            <stop offset="1" stop-color="#E7E7E7" stop-opacity="0"/>
        </linearGradient>
        <linearGradient id="c4va1dz25n" x1="167.388" y1="140.983" x2="165.419" y2="139.923" gradientUnits="userSpaceOnUse">
            <stop stop-color="#E7E7E7" stop-opacity=".4"/>
            <stop offset="1" stop-color="#E7E7E7" stop-opacity="0"/>
        </linearGradient>
        <linearGradient id="eykocozbuo" x1="159.878" y1="134.716" x2="158.902" y2="134.191" gradientUnits="userSpaceOnUse">
            <stop stop-color="#A2A2A2"/>
            <stop offset="1" stop-color="#A2A2A2" stop-opacity="0"/>
        </linearGradient>
        <linearGradient id="jr5unwuqzp" x1="161.844" y1="137.34" x2="159.225" y2="135.929" gradientUnits="userSpaceOnUse">
            <stop stop-color="#A2A2A2"/>
            <stop offset="1" stop-color="#A2A2A2" stop-opacity="0"/>
        </linearGradient>
        <linearGradient id="mbmyzte90q" x1="160.151" y1="138.083" x2="158.534" y2="137.212" gradientUnits="userSpaceOnUse">
            <stop stop-color="#A2A2A2"/>
            <stop offset="1" stop-color="#A2A2A2" stop-opacity="0"/>
        </linearGradient>
        <linearGradient id="sjo5y0y3pr" x1="158.534" y1="137.212" x2="156.908" y2="136.337" gradientUnits="userSpaceOnUse">
            <stop stop-color="#A2A2A2"/>
            <stop offset="1" stop-color="#A2A2A2" stop-opacity="0"/>
        </linearGradient>
        <linearGradient id="65vu18dars" x1="159.225" y1="135.929" x2="156.606" y2="134.518" gradientUnits="userSpaceOnUse">
            <stop stop-color="#A2A2A2"/>
            <stop offset="1" stop-color="#A2A2A2" stop-opacity="0"/>
        </linearGradient>
        <linearGradient id="vqayqmcbdt" x1="160.845" y1="135.237" x2="159.878" y2="134.716" gradientUnits="userSpaceOnUse">
            <stop stop-color="#E7E7E7" stop-opacity=".4"/>
            <stop offset="1" stop-color="#E7E7E7" stop-opacity="0"/>
        </linearGradient>
        <linearGradient id="lre5kk908u" x1="160.151" y1="138.083" x2="158.534" y2="137.212" gradientUnits="userSpaceOnUse">
            <stop stop-color="#E7E7E7" stop-opacity=".4"/>
            <stop offset="1" stop-color="#E7E7E7" stop-opacity="0"/>
        </linearGradient>
        <linearGradient id="du5qzsdcgv" x1="158.534" y1="137.212" x2="156.908" y2="136.337" gradientUnits="userSpaceOnUse">
            <stop stop-color="#E7E7E7" stop-opacity=".4"/>
            <stop offset="1" stop-color="#E7E7E7" stop-opacity="0"/>
        </linearGradient>
        <linearGradient id="0tsajbm6yw" x1="159.495" y1="135.428" x2="156.875" y2="134.018" gradientUnits="userSpaceOnUse">
            <stop stop-color="#E7E7E7" stop-opacity=".4"/>
            <stop offset="1" stop-color="#E7E7E7" stop-opacity="0"/>
        </linearGradient>
        <linearGradient id="deeisc39ax" x1="154.276" y1="130.928" x2="153.081" y2="130.284" gradientUnits="userSpaceOnUse">
            <stop stop-color="#A2A2A2"/>
            <stop offset="1" stop-color="#A2A2A2" stop-opacity="0"/>
        </linearGradient>
        <linearGradient id="k1ojguznky" x1="155.715" y1="133.687" x2="152.991" y2="132.22" gradientUnits="userSpaceOnUse">
            <stop stop-color="#A2A2A2"/>
            <stop offset="1" stop-color="#A2A2A2" stop-opacity="0"/>
        </linearGradient>
        <linearGradient id="8rkr2o6lhz" x1="153.644" y1="133.933" x2="152.15" y2="133.128" gradientUnits="userSpaceOnUse">
            <stop stop-color="#A2A2A2"/>
            <stop offset="1" stop-color="#A2A2A2" stop-opacity="0"/>
        </linearGradient>
        <linearGradient id="bc883ehktA" x1="152.569" y1="133.002" x2="150.601" y2="131.942" gradientUnits="userSpaceOnUse">
            <stop stop-color="#A2A2A2"/>
            <stop offset="1" stop-color="#A2A2A2" stop-opacity="0"/>
        </linearGradient>
        <linearGradient id="f361d95j7B" x1="153.365" y1="131.526" x2="150.921" y2="130.21" gradientUnits="userSpaceOnUse">
            <stop stop-color="#A2A2A2"/>
            <stop offset="1" stop-color="#A2A2A2" stop-opacity="0"/>
        </linearGradient>
        <linearGradient id="fehkktrrgC" x1="154.997" y1="131.316" x2="153.819" y2="130.682" gradientUnits="userSpaceOnUse">
            <stop stop-color="#E7E7E7" stop-opacity=".4"/>
            <stop offset="1" stop-color="#E7E7E7" stop-opacity="0"/>
        </linearGradient>
        <linearGradient id="ll6ok43wlD" x1="153.89" y1="134.065" x2="152.423" y2="133.275" gradientUnits="userSpaceOnUse">
            <stop stop-color="#E7E7E7" stop-opacity=".4"/>
            <stop offset="1" stop-color="#E7E7E7" stop-opacity="0"/>
        </linearGradient>
        <linearGradient id="yqux7v5f6E" x1="152.569" y1="133.002" x2="150.601" y2="131.942" gradientUnits="userSpaceOnUse">
            <stop stop-color="#E7E7E7" stop-opacity=".4"/>
            <stop offset="1" stop-color="#E7E7E7" stop-opacity="0"/>
        </linearGradient>
        <linearGradient id="bdivgmtrnF" x1="156.122" y1="132.932" x2="153.398" y2="131.464" gradientUnits="userSpaceOnUse">
            <stop stop-color="#E7E7E7" stop-opacity=".4"/>
            <stop offset="1" stop-color="#E7E7E7" stop-opacity="0"/>
        </linearGradient>
        <linearGradient id="wrluiyfesG" x1="153.488" y1="131.297" x2="151.044" y2="129.981" gradientUnits="userSpaceOnUse">
            <stop stop-color="#E7E7E7" stop-opacity=".4"/>
            <stop offset="1" stop-color="#E7E7E7" stop-opacity="0"/>
        </linearGradient>
        <linearGradient id="uq4sy01dmH" x1="152.569" y1="133.002" x2="150.601" y2="131.942" gradientUnits="userSpaceOnUse">
            <stop stop-color="#E7E7E7" stop-opacity=".4"/>
            <stop offset="1" stop-color="#E7E7E7" stop-opacity="0"/>
        </linearGradient>
        <linearGradient id="vv23uo7h7I" x1="170.708" y1="129.283" x2="164.467" y2="125.922" gradientUnits="userSpaceOnUse">
            <stop stop-color="#E7E7E7" stop-opacity=".4"/>
            <stop offset="1" stop-color="#E7E7E7" stop-opacity="0"/>
        </linearGradient>
        <linearGradient id="pyd2oohxwJ" x1="173.438" y1="118.369" x2="169.132" y2="116.05" gradientUnits="userSpaceOnUse">
            <stop stop-color="#E7E7E7" stop-opacity=".4"/>
            <stop offset="1" stop-color="#E7E7E7" stop-opacity="0"/>
        </linearGradient>
        <linearGradient id="shzou0kgiK" x1="164.467" y1="125.922" x2="158.229" y2="122.562" gradientUnits="userSpaceOnUse">
            <stop stop-color="#E7E7E7" stop-opacity=".4"/>
            <stop offset="1" stop-color="#E7E7E7" stop-opacity="0"/>
        </linearGradient>
        <linearGradient id="s5llcpgfuL" x1="178.264" y1="124.488" x2="168.167" y2="119.05" gradientUnits="userSpaceOnUse">
            <stop stop-color="#E7E7E7" stop-opacity=".4"/>
            <stop offset="1" stop-color="#E7E7E7" stop-opacity="0"/>
        </linearGradient>
        <linearGradient id="3dxb1iqjwM" x1="168.167" y1="119.05" x2="158.075" y2="113.615" gradientUnits="userSpaceOnUse">
            <stop stop-color="#E7E7E7" stop-opacity=".4"/>
            <stop offset="1" stop-color="#E7E7E7" stop-opacity="0"/>
        </linearGradient>
        <linearGradient id="1xewu5uyyN" x1="169.641" y1="116.324" x2="165.894" y2="114.307" gradientUnits="userSpaceOnUse">
            <stop stop-color="#A2A2A2"/>
            <stop offset="1" stop-color="#A2A2A2" stop-opacity="0"/>
        </linearGradient>
        <linearGradient id="s73gyuk85O" x1="177.228" y1="126.412" x2="167.131" y2="120.974" gradientUnits="userSpaceOnUse">
            <stop stop-color="#A2A2A2"/>
            <stop offset="1" stop-color="#A2A2A2" stop-opacity="0"/>
        </linearGradient>
        <linearGradient id="343hf48igP" x1="170.708" y1="129.283" x2="164.467" y2="125.922" gradientUnits="userSpaceOnUse">
            <stop stop-color="#A2A2A2"/>
            <stop offset="1" stop-color="#A2A2A2" stop-opacity="0"/>
        </linearGradient>
        <linearGradient id="8nek5zdb1Q" x1="164.467" y1="125.922" x2="158.229" y2="122.562" gradientUnits="userSpaceOnUse">
            <stop stop-color="#A2A2A2"/>
            <stop offset="1" stop-color="#A2A2A2" stop-opacity="0"/>
        </linearGradient>
        <linearGradient id="qshojgnfxR" x1="167.133" y1="120.97" x2="157.041" y2="115.535" gradientUnits="userSpaceOnUse">
            <stop stop-color="#A2A2A2"/>
            <stop offset="1" stop-color="#A2A2A2" stop-opacity="0"/>
        </linearGradient>
        <filter id="lg5734iviS" x="47.006" y="26.914" width="105.591" height="101.174" filterUnits="userSpaceOnUse" color-interpolation-filters="sRGB">
            <feFlood flood-opacity="0" result="BackgroundImageFix"/>
            <feBlend in="SourceGraphic" in2="BackgroundImageFix" result="shape"/>
            <feGaussianBlur stdDeviation="2" result="effect1_foregroundBlur_8359_174205"/>
        </filter>
        <filter id="864bqui8hT" x="87.132" y="52.175" width="30.753" height="32.113" filterUnits="userSpaceOnUse" color-interpolation-filters="sRGB">
            <feFlood flood-opacity="0" result="BackgroundImageFix"/>
            <feColorMatrix in="SourceAlpha" values="0 0 0 0 0 0 0 0 0 0 0 0 0 0 0 0 0 0 127 0" result="hardAlpha"/>
            <feOffset dy=".886"/>
            <feGaussianBlur stdDeviation="1.773"/>
            <feComposite in2="hardAlpha" operator="out"/>
            <feColorMatrix values="0 0 0 0 0.995833 0 0 0 0 0.773493 0 0 0 0 0.112031 0 0 0 1 0"/>
            <feBlend in2="BackgroundImageFix" result="effect1_dropShadow_8359_174205"/>
            <feBlend in="SourceGraphic" in2="effect1_dropShadow_8359_174205" result="shape"/>
        </filter>
        <filter id="w6f3qzlk0U" x="87.132" y="51.175" width="30.753" height="32.113" filterUnits="userSpaceOnUse" color-interpolation-filters="sRGB">
            <feFlood flood-opacity="0" result="BackgroundImageFix"/>
            <feColorMatrix in="SourceAlpha" values="0 0 0 0 0 0 0 0 0 0 0 0 0 0 0 0 0 0 127 0" result="hardAlpha"/>
            <feOffset dy=".886"/>
            <feGaussianBlur stdDeviation="1.773"/>
            <feComposite in2="hardAlpha" operator="out"/>
            <feColorMatrix values="0 0 0 0 0.995833 0 0 0 0 0.773493 0 0 0 0 0.112031 0 0 0 1 0"/>
            <feBlend in2="BackgroundImageFix" result="effect1_dropShadow_8359_174205"/>
            <feBlend in="SourceGraphic" in2="effect1_dropShadow_8359_174205" result="shape"/>
        </filter>
    </defs>
</svg>
