<svg width="327" height="296" viewBox="0 0 327 296" fill="none" xmlns="http://www.w3.org/2000/svg">
    <g clip-path="url(#y9yt1dqvya)">
        <rect width="327" height="296" rx="16" fill="#F7F5F2"/>
        <g clip-path="url(#gkd7eqtv7b)">
            <g filter="url(#keiwp0a13c)">
                <path d="M94 147.492c0-11.87 9.622-21.492 21.492-21.492h97.016c11.87 0 21.492 9.622 21.492 21.492V296H94V147.492z" fill="#fff"/>
            </g>
            <mask id="l10t1sejgd" style="mask-type:alpha" maskUnits="userSpaceOnUse" x="99" y="131" width="130" height="165">
                <path fill-rule="evenodd" clip-rule="evenodd" d="M116.578 131.421c-9.496 0-17.194 7.698-17.194 17.194v147.069h129.231V148.615c0-9.496-7.698-17.194-17.193-17.194h-23.191 2.154c-1.19 0-2.154.486-2.154 1.085v-.356a5.374 5.374 0 0 1-5.373 5.352h-38.254a5.373 5.373 0 0 1-5.373-5.373v.377c0-.599-.965-1.085-2.154-1.085h-20.499z" fill="#fff"/>
            </mask>
            <g filter="url(#a7dxvo7lje)" mask="url(#l10t1sejgd)">
                <path fill-rule="evenodd" clip-rule="evenodd" d="M116.578 131.421c-9.496 0-17.194 7.698-17.194 17.194v174.717h129.231V148.615c0-9.496-7.698-17.194-17.193-17.194h-23.191 2.154c-1.19 0-2.154.486-2.154 1.085v-.356a5.374 5.374 0 0 1-5.373 5.352h-38.254a5.373 5.373 0 0 1-5.373-5.373v.377c0-.599-.965-1.085-2.154-1.085h-20.499z" fill="#F9F7F4"/>
            </g>
            <g filter="url(#7chfsbb8vf)">
                <rect x="109" y="150" width="110" height="54" rx="4" fill="#fff"/>
                <rect x="164" y="170" width="22" height="4" rx="2" fill="#ECECEC"/>
                <rect x="138.338" y="164.686" width="12.079" height="12.079" rx="6.04" fill="#ECECEC"/>
                <path d="M144.434 176.199c-8.031 0-10.861 5.403-11.926 9.666-.363 1.451.813 2.768 2.309 2.768h18.867c1.617 0 2.834-1.529 2.33-3.066-1.382-4.212-4.225-9.368-11.58-9.368z" fill="#ECECEC"/>
                <rect x="164" y="180" width="33" height="4" rx="2" fill="#ECECEC"/>
            </g>
            <path d="M130.694 274.065c-.015-1.622-3.101-2.907-6.893-2.871-3.792.036-6.852 1.38-6.837 3.002l.007.784c.016 1.622 3.102 2.907 6.893 2.871 3.792-.036 6.853-1.381 6.838-3.003l-.008-.783z" fill="#ECECEC"/>
            <path d="M130.278 274.045c.013 1.378-2.864 2.524-6.425 2.558-3.562.034-6.46-1.056-6.473-2.435-.014-1.379 2.863-2.524 6.425-2.558 3.561-.034 6.459 1.056 6.472 2.435h.001zM137.408 260.876c-.173 4.014-7.425 5.256-7.576 5.176-.15-.08 1.463-2.524 1.463-2.524s3.835-.842 3.897-2.608c.063-1.767-2.27-1.487-2.27-1.487l.282-2.089s4.377-.481 4.204 3.532zM113.911 257.047s-4.607-.28-4.22 3.914c.387 4.193 8.043 5.121 8.197 5.029.153-.091-1.661-2.567-1.661-2.567s-4.058-.684-4.214-2.531c-.157-1.846 2.3-1.673 2.3-1.673l-.402-2.172z" fill="#ECECEC"/>
            <path d="m120.101 267.355 2.907-.416-.001-.256.909.126.908-.13.001.256 2.908.402s-1.179.167-1.328 6.617c-.755.273-1.215.424-2.471.427-1.257.003-1.717-.146-2.473-.415-.18-6.449-1.36-6.611-1.36-6.611z" fill="#ECECEC"/>
            <path d="m133.868 256.027.005 2.09c.012 5.52-4.452 10.005-9.971 10.018-5.52.013-10.005-4.452-10.018-9.971l-.005-2.09 19.989-.047z" fill="#ECECEC"/>
            <mask id="vz9hrciwjg" style="mask-type:alpha" maskUnits="userSpaceOnUse" x="113" y="254" width="21" height="15">
                <path d="m133.868 254.027.005 4.09c.012 5.52-4.452 10.005-9.971 10.018-5.52.013-10.005-4.452-10.018-9.971l-.005-4.09 19.989-.047z" fill="#F3F3F3"/>
            </mask>
            <g filter="url(#ze1uco4zuh)" mask="url(#vz9hrciwjg)">
                <path d="M135.014 255.002c-.01.74-.643 1.438-1.413 1.541a81.698 81.698 0 0 1-19.943-.288c-.767-.124-1.378-.84-1.368-1.581.011-.74.643-1.438 1.413-1.541a81.698 81.698 0 0 1 19.943.288c.768.125 1.379.841 1.368 1.581z" fill="#DFDFDF"/>
            </g>
            <path d="M135.014 255.002c-.011.74-.643 1.438-1.413 1.541a81.698 81.698 0 0 1-19.943-.288c-.767-.124-1.378-.84-1.368-1.581.011-.74.643-1.438 1.413-1.541a81.698 81.698 0 0 1 19.943.288c.767.125 1.379.841 1.368 1.581z" fill="#ECECEC"/>
            <path d="M132.333 253.658c.265-.035.51-.151.711-.318a81.715 81.715 0 0 0-18.737-.27c.196.172.438.296.701.338a70.939 70.939 0 0 0 17.326.25h-.001zM210.694 274.065c-.015-1.622-3.101-2.907-6.893-2.871-3.792.036-6.853 1.38-6.837 3.002l.007.784c.016 1.622 3.102 2.907 6.893 2.871 3.792-.036 6.853-1.381 6.838-3.003l-.008-.783z" fill="#ECECEC"/>
            <path d="M210.278 274.045c.013 1.378-2.864 2.524-6.425 2.558-3.562.034-6.46-1.056-6.474-2.435-.013-1.379 2.864-2.524 6.425-2.558 3.562-.034 6.46 1.056 6.473 2.435h.001zM217.408 260.876c-.173 4.014-7.425 5.256-7.576 5.176-.15-.08 1.463-2.524 1.463-2.524s3.835-.842 3.897-2.608c.063-1.767-2.27-1.487-2.27-1.487l.282-2.089s4.377-.481 4.204 3.532zM193.911 257.047s-4.607-.28-4.22 3.914c.387 4.193 8.043 5.121 8.197 5.029.153-.091-1.661-2.567-1.661-2.567s-4.058-.684-4.215-2.531c-.156-1.846 2.301-1.673 2.301-1.673l-.402-2.172z" fill="#ECECEC"/>
            <path d="m200.101 267.355 2.907-.416-.001-.256.909.126.908-.13.001.256 2.908.402s-1.179.167-1.328 6.617c-.755.273-1.215.424-2.471.427-1.257.003-1.717-.146-2.474-.415-.179-6.449-1.359-6.611-1.359-6.611z" fill="#ECECEC"/>
            <path d="m213.868 256.027.004 2.09c.013 5.52-4.451 10.005-9.97 10.018-5.52.013-10.005-4.452-10.018-9.971l-.005-2.09 19.989-.047z" fill="#ECECEC"/>
            <mask id="pzi3kqgl3i" style="mask-type:alpha" maskUnits="userSpaceOnUse" x="193" y="254" width="21" height="15">
                <path d="m213.868 254.027.005 4.09c.012 5.52-4.452 10.005-9.971 10.018-5.52.013-10.005-4.452-10.018-9.971l-.005-4.09 19.989-.047z" fill="#F3F3F3"/>
            </mask>
            <g filter="url(#rtyfw67l3j)" mask="url(#pzi3kqgl3i)">
                <path d="M215.014 255.002c-.011.74-.643 1.438-1.413 1.541a81.698 81.698 0 0 1-19.943-.288c-.767-.124-1.378-.84-1.368-1.581.011-.74.643-1.438 1.413-1.541a81.698 81.698 0 0 1 19.943.288c.767.125 1.379.841 1.368 1.581z" fill="#DFDFDF"/>
            </g>
            <path d="M215.014 255.002c-.011.74-.643 1.438-1.413 1.541a81.698 81.698 0 0 1-19.943-.288c-.767-.124-1.378-.84-1.368-1.581.011-.74.643-1.438 1.413-1.541a81.698 81.698 0 0 1 19.943.288c.767.125 1.379.841 1.368 1.581z" fill="#ECECEC"/>
            <path d="M212.333 253.658c.265-.035.51-.151.711-.318a81.715 81.715 0 0 0-18.737-.27c.196.172.438.296.701.338a70.939 70.939 0 0 0 17.326.25h-.001z" fill="#ECECEC"/>
            <g opacity=".2" filter="url(#w9455jm0uk)">
                <path d="M180.462 271.556c-.039-4.093-7.826-7.336-17.394-7.245-9.567.091-17.29 3.483-17.251 7.576l.019 1.977c.039 4.092 7.826 7.336 17.393 7.245 9.566-.092 17.291-3.484 17.252-7.576l-.019-1.977z" fill="#3A3A3A"/>
                <path d="M179.411 271.505c.034 3.479-7.225 6.368-16.211 6.454-8.987.086-16.301-2.665-16.334-6.143-.033-3.479 7.226-6.369 16.212-6.455 8.986-.086 16.299 2.665 16.332 6.144h.001zM197.403 238.277c-.437 10.128-18.735 13.263-19.115 13.06-.38-.202 3.691-6.368 3.691-6.368s9.676-2.124 9.834-6.582c.158-4.459-5.728-3.752-5.728-3.752l.711-5.272s11.043-1.213 10.607 8.914zM138.113 228.614s-11.625-.705-10.648 9.876c.978 10.581 20.296 12.924 20.683 12.691.388-.231-4.191-6.477-4.191-6.477s-10.239-1.727-10.634-6.386c-.394-4.66 5.804-4.223 5.804-4.223l-1.014-5.481z" fill="#3A3A3A"/>
                <path d="m153.734 254.625 7.334-1.05-.002-.646 2.293.318 2.292-.328.002.645 7.338 1.016s-2.975.421-3.351 16.696c-1.905.688-3.065 1.07-6.236 1.077-3.171.008-4.332-.369-6.241-1.048-.454-16.271-3.429-16.68-3.429-16.68z" fill="#3A3A3A"/>
                <path d="m188.47 226.042.012 5.273c.033 13.927-11.231 25.244-25.159 25.277-13.927.032-25.244-11.232-25.277-25.159l-.012-5.273 50.436-.118z" fill="#3A3A3A"/>
                <mask id="vcxdzf9cul" style="mask-type:alpha" maskUnits="userSpaceOnUse" x="138" y="220" width="51" height="37">
                    <path d="m188.47 220.456.012 10.859c.033 13.927-11.231 25.244-25.159 25.277-13.927.032-25.244-11.232-25.277-25.159l-.012-10.859 50.436-.118z" fill="#3A3A3A"/>
                </mask>
                <g filter="url(#fsrlub9kem)" mask="url(#vcxdzf9cul)">
                    <path d="M191.363 223.455c-.027 1.868-1.622 3.629-3.565 3.888a206.17 206.17 0 0 1-50.322-.725c-1.935-.315-3.478-2.122-3.451-3.99.027-1.869 1.622-3.63 3.565-3.888a206.17 206.17 0 0 1 50.322.725c1.935.315 3.478 2.122 3.451 3.99z" fill="#3A3A3A"/>
                </g>
                <path d="M191.363 223.455c-.027 1.868-1.622 3.629-3.565 3.888a206.17 206.17 0 0 1-50.322-.725c-1.935-.315-3.478-2.122-3.451-3.99.026-1.869 1.622-3.63 3.565-3.888a206.17 206.17 0 0 1 50.322.725c1.935.315 3.478 2.122 3.451 3.99z" fill="#3A3A3A"/>
                <path d="M184.599 220.064a3.561 3.561 0 0 0 1.793-.803 206.237 206.237 0 0 0-47.278-.682 3.554 3.554 0 0 0 1.769.855 179.135 179.135 0 0 0 43.717.63h-.001z" fill="#3A3A3A"/>
            </g>
            <path d="M181.462 270.556c-.039-4.093-7.826-7.336-17.394-7.245-9.567.091-17.29 3.483-17.251 7.576l.019 1.977c.039 4.092 7.826 7.336 17.393 7.245 9.566-.092 17.291-3.484 17.252-7.576l-.019-1.977z" fill="#B0CC29"/>
            <path d="M180.411 270.505c.034 3.479-7.225 6.368-16.211 6.454-8.987.086-16.301-2.665-16.334-6.143-.033-3.479 7.226-6.369 16.212-6.455 8.986-.086 16.299 2.665 16.332 6.144h.001z" fill="#D8E694"/>
            <path d="M198.403 237.277c-.437 10.128-18.735 13.263-19.115 13.06-.38-.202 3.691-6.368 3.691-6.368s9.676-2.124 9.834-6.582c.158-4.459-5.728-3.752-5.728-3.752l.711-5.272s11.043-1.213 10.607 8.914zM139.113 227.614s-11.625-.705-10.648 9.876c.978 10.581 20.296 12.924 20.683 12.691.388-.231-4.191-6.477-4.191-6.477s-10.239-1.727-10.634-6.386c-.394-4.66 5.804-4.223 5.804-4.223l-1.014-5.481zM154.734 253.625l7.334-1.05-.002-.646 2.293.318 2.292-.328.002.645 7.338 1.016s-2.975.421-3.351 16.696c-1.905.688-3.065 1.07-6.236 1.077-3.171.008-4.332-.369-6.241-1.048-.454-16.271-3.429-16.68-3.429-16.68z" fill="#B0CC29"/>
            <path d="m189.47 225.042.012 5.273c.033 13.927-11.231 25.244-25.159 25.277-13.927.032-25.244-11.232-25.277-25.159l-.012-5.273 50.436-.118z" fill="#D8E694"/>
            <mask id="p9c0tlghln" style="mask-type:alpha" maskUnits="userSpaceOnUse" x="139" y="219" width="51" height="37">
                <path d="m189.47 219.456.012 10.859c.033 13.927-11.231 25.244-25.159 25.277-13.927.032-25.244-11.232-25.277-25.159l-.012-10.859 50.436-.118z" fill="#D8E694"/>
            </mask>
            <g filter="url(#6lqri24oro)" mask="url(#p9c0tlghln)">
                <path d="M192.363 222.455c-.027 1.868-1.622 3.629-3.565 3.888a206.17 206.17 0 0 1-50.322-.725c-1.935-.315-3.478-2.122-3.451-3.99.027-1.869 1.622-3.63 3.565-3.888a206.17 206.17 0 0 1 50.322.725c1.935.315 3.478 2.122 3.451 3.99z" fill="#D2DC9B"/>
            </g>
            <path d="M192.363 222.455c-.027 1.868-1.622 3.629-3.565 3.888a206.17 206.17 0 0 1-50.322-.725c-1.935-.315-3.478-2.122-3.451-3.99.026-1.869 1.622-3.63 3.565-3.888a206.17 206.17 0 0 1 50.322.725c1.935.315 3.478 2.122 3.451 3.99z" fill="#E3ECB3"/>
            <path d="M185.599 219.064a3.561 3.561 0 0 0 1.793-.803 206.237 206.237 0 0 0-47.278-.682 3.554 3.554 0 0 0 1.769.855 179.135 179.135 0 0 0 43.717.63h-.001z" fill="#B0CC29"/>
            <circle cx="164.5" cy="240.5" r="9.5" fill="#5E9800"/>
            <path fill-rule="evenodd" clip-rule="evenodd" d="M169.675 236.278a1.294 1.294 0 0 0-1.744.132l-5.198 5.677-1.897-1.919a1.29 1.29 0 0 0-1.744-.064 1.11 1.11 0 0 0-.06 1.638l2.8 2.833a1.293 1.293 0 0 0 1.795.116c.103-.09.186-.193.249-.304l5.923-6.469a1.115 1.115 0 0 0-.124-1.64z" fill="#fff"/>
            <path fill-rule="evenodd" clip-rule="evenodd" d="M169.675 236.278a1.294 1.294 0 0 0-1.744.132l-5.198 5.677-1.897-1.919a1.29 1.29 0 0 0-1.744-.064 1.11 1.11 0 0 0-.06 1.638l2.8 2.833a1.293 1.293 0 0 0 1.795.116c.103-.09.186-.193.249-.304l5.923-6.469a1.115 1.115 0 0 0-.124-1.64z" fill="#fff"/>
            <g opacity=".15" filter="url(#hryn10nopp)" fill="#333">
                <path d="M231.531 127.162a3.674 3.674 0 1 0-1.948-4.816 3.672 3.672 0 0 0 1.948 4.816z"/>
                <path d="m205.983 143.079 6.124-13.529c4.465-7.472 12.545-9.932 21.259-6.238 8.713 3.694 12.089 11.848 10.289 19.612l-5.763 13.281-31.909-13.126z"/>
                <path d="M215.325 165.569c12.287 5.209 24.246 4.723 26.71-1.085 2.465-5.808-5.498-14.739-17.785-19.947-12.287-5.209-24.246-4.723-26.71 1.085-2.465 5.808 5.498 14.738 17.785 19.947z"/>
                <path d="M216.026 163.917c8.601 3.646 16.539 4.327 17.73 1.521 1.19-2.806-4.817-8.036-13.418-11.682-8.601-3.646-16.539-4.328-17.729-1.522-1.191 2.806 4.816 8.037 13.417 11.683z"/>
                <path d="M214.255 151.626a6.566 6.566 0 0 0-1.478 2.161 6.597 6.597 0 0 0 3.502 8.655 6.602 6.602 0 0 0 9.184-6.121s-2.177-1.441-5.45-2.843c0 0-2.924-1.267-5.49-1.823l-.261-.012-.007-.017z"/>
            </g>
            <path d="M231.531 125.162a3.673 3.673 0 1 0 2.87-6.764 3.673 3.673 0 1 0-2.87 6.764z" fill="#FFD760"/>
            <path d="m205.983 141.079 6.124-13.529c4.464-7.472 12.545-9.932 21.258-6.238 8.714 3.694 12.09 11.848 10.29 19.612l-5.763 13.281-31.909-13.126z" fill="#FFE496"/>
            <path d="M215.325 163.569c12.287 5.209 24.246 4.723 26.71-1.085 2.465-5.808-5.498-14.739-17.785-19.947-12.288-5.209-24.246-4.723-26.71 1.085-2.465 5.808 5.498 14.738 17.785 19.947z" fill="#FFD760"/>
            <path d="M216.026 161.917c8.601 3.646 16.539 4.327 17.729 1.521 1.191-2.806-4.816-8.036-13.417-11.682-8.601-3.646-16.539-4.328-17.729-1.522-1.191 2.806 4.816 8.037 13.417 11.683z" fill="#F3C12D"/>
            <path d="M214.255 149.626a6.566 6.566 0 0 0-1.478 2.161 6.597 6.597 0 0 0 3.502 8.655 6.602 6.602 0 0 0 9.184-6.121s-2.177-1.441-5.45-2.843c0 0-2.924-1.267-5.491-1.823l-.261-.012-.006-.017z" fill="#FFDE7B"/>
            <path d="M247.395 144.176c6.628 0 12-5.372 11.999-12-.001-6.627-5.374-12-12.001-12-6.628 0-12 5.373-11.999 12 .001 6.628 5.374 12 12.001 12z" fill="#EF2111"/>
            <path d="M246.855 127.267c.188-.578.537-.867 1.042-.867.356 0 .645.124.867.38.222.256.336.628.336 1.123v9.01c0 .818-.538 1.487-1.21 1.487-.666 0-1.21-.661-1.21-1.487V131h-1.136c-.336 0-.632-.107-.874-.314-.249-.206-.37-.52-.37-.933 0-.347.087-.619.256-.834a.965.965 0 0 1 .618-.372 2.814 2.814 0 0 0 1.035-.363c.303-.182.511-.537.639-.925l.007.008z" fill="#fff"/>
        </g>
        <path d="M44.297 29.938h-1.219v5.546h4.031v1.485h-5.718v1.015h12.656V36.97h-5.719v-1.485h4.063v-5.547h-1.22v1.766h-6.874v-1.765zm-1.266 13.03h9.61v-1.03h-8.375v-2.844H43.03v3.875zm1.266-8.468v-1.828h6.875V34.5h-6.875zm15.578-1.39v-2.532h-1.203v2.531c-.016 2.54-1.625 5.203-3.656 6.203l.78.985c1.563-.836 2.876-2.594 3.493-4.64.617 1.929 1.898 3.577 3.43 4.374l.75-.984c-1.977-.969-3.594-3.492-3.594-5.938zm4.875 10.156h1.219v-7.188h2.328v-1.062h-2.328v-5.641H64.75v13.89zm16.016-12.813h-6.922v1.031h5.71c-.015.883-.046 2.063-.382 3.72l1.234.093c.352-1.813.352-3.195.36-4.11v-.734zm-7.782 6.14.125 1.016c2.477-.007 5.82-.062 8.735-.562l-.078-.906c-1.446.203-3.04.312-4.579.375V33.53H75.97v3.024c-1.07.03-2.086.039-2.985.039zm2.141 6.376h9.281v-1.032H76.36v-3.046h-1.234v4.078zm7.578-3.14h1.25v-4.876h2.031v-1.047h-2.03v-4.531h-1.25v10.453zM98.36 29.374h-1.218v13.922h1.218V29.375zm-10.687 2.313h5.234v2.921h-5.203v5.313h1.156c2.399 0 4.508-.102 7.063-.5l-.125-1.031c-2.484.398-4.54.507-6.844.5v-3.282h5.188v-4.937h-6.47v1.015zm17.75 1.953v-1.813h3.125v-1.015h-7.563v1.015h3.235v1.813c-.016 2.367-1.735 5.007-3.735 5.984l.75.969c1.555-.797 2.946-2.594 3.586-4.633.625 1.883 1.946 3.523 3.508 4.289l.703-.969c-2.015-.96-3.625-3.414-3.609-5.64zm4.828 9.625h1.219v-7.22h2.328V35h-2.328v-5.625h-1.219v13.89zm20.016-7.438h-3.797v-4.125h3.625v-1h-4.86v6.125h5.032v-1zm-11.704 5.656h12.719V40.47h-5.812V37.53h-1.203v2.938h-5.704v1.015zm1.11-4.656h.766c1.382.008 2.664-.031 4.187-.375l-.109-1.031c-1.289.297-2.454.383-3.625.39V31.72h3.5v-1.016h-4.719v6.125zm23.953-3.234h-8.297V29.89h-1.219v4.687h9.516v-.984zm-11.25 3.875h12.719v-1h-12.719v1zm1.656 5.453h9.672v-1.016h-8.453v-3.015h-1.219v4.03zm21.172-9.281v-1.813h3.313v-1.015h-7.828v1.015h3.281v1.813c-.008 2.406-1.742 5.03-3.735 5.984l.735.969c1.586-.797 2.992-2.563 3.64-4.602.649 1.922 2.047 3.524 3.672 4.258l.688-.969c-2.047-.883-3.758-3.281-3.766-5.64zm5.25 9.625h1.235V29.375h-1.235v13.89zm15.125-13.891h-1.234v3.484h-2.813v1.032h2.813v3.625h1.234v-8.141zm-11.453 7.031.641.969a5.921 5.921 0 0 0 3.531-3.484c.601 1.437 1.812 2.601 3.375 3.172l.64-.97c-2.031-.726-3.421-2.46-3.421-4.25v-.546H172V30.28h-7.484v1.016h3.14v.547c0 1.976-1.484 3.836-3.531 4.562zm2.375 6.672h9.078v-4.875H166.5v4.875zm1.219-1v-2.89h6.656v2.89h-6.656zm14.875-10.062v-.594h3.125v-1.016h-7.5v1.016h3.172v.594c-.016 2.007-1.469 3.797-3.547 4.5l.625.984c1.664-.602 2.945-1.844 3.539-3.438.601 1.399 1.812 2.5 3.414 3.032l.578-.969c-2.039-.664-3.398-2.29-3.406-4.11zm-2.906 8.656c.007 1.625 1.75 2.562 4.609 2.562 2.851 0 4.578-.937 4.578-2.562 0-1.602-1.727-2.531-4.578-2.531-2.859 0-4.602.93-4.609 2.53zm1.234 0c-.016-.969 1.281-1.547 3.375-1.547 2.101 0 3.383.578 3.391 1.547-.008 1-1.29 1.586-3.391 1.578-2.094.008-3.391-.578-3.375-1.578zm6.609-2.906h1.219v-3.813h2.094v-1.031h-2.094v-3.547h-1.219v8.39zm15.641-8.391h-1.234v13.922h1.234V29.375zm-10.938 5.922c.008 2.96 1.477 4.836 3.547 4.828 2.063.008 3.555-1.867 3.547-4.828.008-2.953-1.484-4.836-3.547-4.844-2.07.008-3.539 1.89-3.547 4.844zm1.188 0c0-2.258.969-3.742 2.359-3.75 1.399.008 2.36 1.492 2.36 3.75s-.961 3.742-2.36 3.734c-1.39.008-2.359-1.476-2.359-3.734zm23.109-5.047v-.64h-1.265v.64c0 1.813-2.508 3.352-4.969 3.672l.484.969c2.141-.328 4.25-1.43 5.125-3.024.883 1.57 2.992 2.695 5.11 3.024l.453-.97c-2.414-.32-4.946-1.898-4.938-3.671zm-6.969 6.766h12.657v-1h-12.657v1zm1.532 3.765c-.008 1.586 1.781 2.469 4.797 2.485 2.976-.016 4.765-.899 4.781-2.485-.016-1.586-1.805-2.46-4.781-2.453-3.016-.008-4.805.867-4.797 2.453zm1.25 0c-.016-.945 1.32-1.5 3.547-1.515 2.203.015 3.539.57 3.547 1.515-.008.961-1.344 1.508-3.547 1.5-2.227.008-3.563-.539-3.547-1.5zm22.515-11.39h-1.218v10.156h1.218V29.39zm-11.14 4.375c-.008 2.023 1.562 3.43 3.64 3.422 2.079.007 3.633-1.399 3.641-3.422-.008-2-1.562-3.399-3.641-3.407-2.078.008-3.648 1.407-3.64 3.407zm1.203 0c-.016-1.36 1.031-2.328 2.437-2.328 1.383 0 2.438.968 2.438 2.328 0 1.382-1.055 2.343-2.438 2.343-1.406 0-2.453-.96-2.437-2.343zm.969 9.203h9.406v-1.032h-8.188v-3.421h-1.218v4.453zm19.578-12.938c-2.031 0-3.446 1.094-3.438 2.75-.008 1.461 1.141 2.5 2.86 2.688v1.406a87.083 87.083 0 0 1-3.672.047l.156 1.016c2.398.007 5.727-.04 8.672-.563l-.094-.922c-1.211.18-2.531.297-3.828.367v-1.36c1.672-.21 2.789-1.241 2.797-2.679-.008-1.656-1.422-2.75-3.453-2.75zm-2.281 2.75c-.016-1.078.929-1.797 2.281-1.797 1.359 0 2.289.72 2.297 1.797-.008 1.055-.938 1.774-2.297 1.782-1.352-.008-2.297-.727-2.281-1.782zm.062 10.172h9.328v-1.031h-8.094v-2.828h-1.234v3.86zm7.594-2.937h1.234V35.14h2.078v-1.047h-2.078V29.39h-1.234v10.625zm16.937.5h-3.453v-2.641h2.172v-1.016h-8.625v-2.25h8.297v-4.203h-9.547v1.016h8.344v2.172h-8.313v4.281h1.985v2.64h-3.579v1.032h12.719v-1.031zm-7.937 0v-2.641h3.281v2.64h-3.281zm18-7.407v-2.53h-1.219v2.53c-.016 2.633-1.727 5.29-3.797 6.235l.781 1.031c1.625-.82 2.993-2.578 3.633-4.672.664 1.977 2.031 3.625 3.617 4.39l.75-.968c-2.047-.93-3.773-3.477-3.765-6.016zm5.281 10.188h1.234V29.375h-1.234v13.922zm-188.89 9.969h-1.672v5.562H91v-5.297h-1.625v13.14H91V60.25h1.563v7.14h1.671V53.267zM82.718 63.875h.937c1.492 0 3.11-.102 5.016-.438l-.172-1.515a23.142 23.142 0 0 1-4.031.422V54.89h-1.75v8.984zm28.843-10.594h-1.734v3.735h-2.5v1.406h2.5v5.172h1.734V53.28zm-11.859 7.266.891 1.406a5.702 5.702 0 0 0 3.468-3.25c.618 1.336 1.735 2.414 3.313 2.953l.875-1.39c-2.188-.72-3.328-2.477-3.328-4.172v-.39h2.922v-1.407h-7.625v1.406h2.937v.375c0 1.883-1.203 3.727-3.453 4.469zm2.594 6.562h9.625v-1.406h-7.891v-3.016h-1.734v4.422zm16.328-9.828v-1.187h2.953v-1.438h-7.766v1.438h3.079v1.187c-.008 2.352-1.375 4.992-3.625 6.063l1.015 1.36c1.625-.782 2.86-2.438 3.5-4.376.633 1.766 1.813 3.281 3.407 4.031l.968-1.375c-2.226-1.039-3.539-3.523-3.531-5.703zm4.266 10.11h1.734v-7.172h2.172v-1.453h-2.172v-5.5h-1.734V67.39zm16.328-14.125h-1.735v2.156h-2.843v-1.094H128v6.39h6.641v-1.093h2.843v1.953h1.735v-8.312zm-9.578 11.406c-.016 1.719 1.82 2.703 4.797 2.703 2.992 0 4.82-.984 4.828-2.703-.008-1.719-1.836-2.727-4.828-2.719-2.977-.008-4.813 1-4.797 2.719zm.093-5.344v-3.625h3.188v3.625h-3.188zm1.625 5.344c-.007-.914 1.118-1.383 3.079-1.39 1.976.007 3.093.476 3.093 1.39 0 .875-1.117 1.36-3.093 1.36-1.961 0-3.086-.485-3.079-1.36zm3.282-6.453v-1.422h2.843v1.422h-2.843zm17.718-4.953h-1.734v8.515h1.734v-3.484h1.969v-1.453h-1.969v-3.578zm-11.125 2.75h8.375v-1.391h-3.312v-1.453h-1.735v1.453h-3.328v1.39zm.719 3.047c0 1.523 1.406 2.53 3.469 2.53 2.039 0 3.445-1.007 3.453-2.53-.008-1.508-1.406-2.532-3.453-2.532-2.063 0-3.469 1.024-3.469 2.532zm1.281 8.156h9.125v-4.766h-9.125v4.766zm.407-8.156c-.008-.766.711-1.22 1.781-1.22 1.07 0 1.797.454 1.797 1.22 0 .789-.727 1.234-1.797 1.234-1.07 0-1.789-.445-1.781-1.234zm1.312 6.75v-1.985h5.688v1.984h-5.688zm22.281-12.547h-1.672V67.39h1.672V53.266zm-12.046 6.109c0 3.117 1.203 5.055 3.046 5.047 1.75.008 2.93-1.68 3.094-4.438h1.344v6.72h1.656V53.515h-1.656v5.062h-1.36c-.203-2.64-1.367-4.242-3.078-4.234-1.843-.008-3.046 1.922-3.046 5.031zm1.609 0c-.008-2.203.539-3.398 1.437-3.39.938-.008 1.493 1.187 1.5 3.39-.007 2.21-.562 3.398-1.5 3.39-.898.008-1.445-1.18-1.437-3.39zm17.297-2.719v-2.25h-1.766v2.25c-.008 2.64-1.289 5.36-3.594 6.438l1.094 1.406c1.625-.82 2.781-2.445 3.399-4.398.601 1.851 1.726 3.351 3.32 4.132l1.047-1.39c-2.25-.985-3.508-3.563-3.5-6.188zm1.937 2.578H179v8.172h1.719v-14.14H179v4.562h-2.969v1.406zm21.657-5.953h-1.735v9.547h1.735v-4h1.906v-1.437h-1.906v-4.11zm-11.313 7.86.187 1.359c2.485 0 5.79-.031 8.797-.563l-.14-1.203a46.142 46.142 0 0 1-3.547.305v-.812c1.547-.204 2.516-.954 2.516-2.055 0-1.305-1.352-2.102-3.407-2.094-2.047-.008-3.414.79-3.406 2.094-.008 1.11.992 1.867 2.563 2.062v.868c-1.274.03-2.5.039-3.563.039zm.359-5.47h8.11v-1.28h-3.172v-1.235h-1.734v1.235h-3.204v1.28zm1.422 9.126h7.797v2.594h1.735v-3.954h-9.532v1.36zm.891-6.625c-.016-.617.641-.93 1.734-.922 1.094-.008 1.75.305 1.75.922 0 .586-.656.953-1.75.937-1.093.016-1.75-.351-1.734-.937zm23.047-4.89h-1.75v10.202h1.75V53.281zm-11.516 4.452c0 2.086 1.664 3.547 3.813 3.547 2.148 0 3.804-1.46 3.797-3.547.007-2.054-1.649-3.523-3.797-3.53-2.149.007-3.813 1.476-3.813 3.53zm1.703 0c-.008-1.218.899-2.015 2.11-2.015 1.179 0 2.093.797 2.093 2.015 0 1.25-.914 2.032-2.093 2.032-1.211 0-2.118-.782-2.11-2.032zm.469 9.375h9.734v-1.406H204.5v-3.25h-1.75v4.656zm26.266-13.734h-1.219v13.89h1.219v-7.203h2.25v-1.03h-2.25v-5.657zm-10.657 10.281.688.969c4.523-2.234 6.367-5.82 6.375-9.75H219v1.031h5.18c-.282 3.29-2.235 5.969-5.821 7.75zm24.953-6.39h-8.265v-3.61h-1.219v4.625h9.484v-1.015zm-11.218 3.656h12.672v-1.016h-12.672v1.016zm1.531 3.766c-.008 1.609 1.797 2.515 4.797 2.515 2.976 0 4.766-.906 4.781-2.516-.015-1.617-1.805-2.523-4.781-2.515-3-.008-4.805.898-4.797 2.516zm1.25 0c-.016-.985 1.32-1.54 3.547-1.547 2.203.007 3.539.562 3.547 1.547-.008.968-1.344 1.554-3.547 1.562-2.227-.008-3.563-.594-3.547-1.563z" fill="#202020"/>
        <path fill="#666" d="m78.313 82.607.459-.655 4.915 3.441-.459.655z"/>
        <path fill="#666" d="m78.772 86.048-.46-.655 4.916-3.441.459.655z"/>
        <path fill="#666" d="M80.6 87h.8v-6h-.8zM94.648 79.188v-.481H93.7v.48c0 1.36-1.88 2.514-3.726 2.754l.363.727c1.605-.246 3.187-1.072 3.844-2.268.662 1.178 2.244 2.022 3.832 2.268l.34-.727c-1.811-.24-3.71-1.423-3.704-2.754zm-5.226 5.074h9.492v-.75h-9.492v.75zm1.148 2.824c-.005 1.19 1.336 1.852 3.598 1.863 2.232-.011 3.574-.674 3.586-1.863-.012-1.19-1.354-1.846-3.586-1.84-2.262-.006-3.604.65-3.598 1.84zm.938 0c-.012-.709.99-1.125 2.66-1.137 1.652.012 2.654.428 2.66 1.137-.006.72-1.008 1.13-2.66 1.125-1.67.006-2.672-.404-2.66-1.125zm16.887-8.543h-.915v7.617h.915v-7.617zm-8.356 3.281c-.006 1.518 1.172 2.573 2.731 2.567 1.558.005 2.724-1.05 2.73-2.567-.006-1.5-1.172-2.549-2.73-2.555-1.559.006-2.737 1.055-2.731 2.555zm.902 0c-.011-1.02.774-1.746 1.829-1.746 1.037 0 1.828.727 1.828 1.746 0 1.037-.791 1.758-1.828 1.758-1.055 0-1.84-.72-1.829-1.758zm.727 6.903h7.055v-.774h-6.141v-2.566h-.914v3.34zm14.684-9.704c-1.524 0-2.584.82-2.579 2.063-.005 1.096.856 1.875 2.145 2.016v1.054c-.996.035-1.945.041-2.754.035l.117.762c1.799.006 4.295-.03 6.504-.422l-.07-.691c-.908.135-1.899.222-2.871.275v-1.02c1.254-.157 2.092-.93 2.097-2.01-.005-1.241-1.066-2.062-2.589-2.062zm-1.711 2.063c-.012-.809.697-1.348 1.711-1.348 1.019 0 1.716.54 1.722 1.348-.006.791-.703 1.33-1.722 1.336-1.014-.006-1.723-.545-1.711-1.336zm.047 7.629h6.996v-.774h-6.071v-2.12h-.925v2.894zm5.695-2.203h.926v-3.656h1.558v-.786h-1.558v-3.527h-.926v7.969zm12.703.375h-2.59v-1.98h1.629v-.763h-6.469v-1.687h6.223v-3.152h-7.16v.761h6.258v1.63h-6.235v3.21h1.488v1.98h-2.683v.774h9.539v-.773zm-5.953 0v-1.98h2.461v1.98h-2.461zm13.5-5.555v-1.898h-.914v1.898c-.012 1.975-1.295 3.967-2.848 4.676l.586.773c1.219-.615 2.244-1.933 2.725-3.504.498 1.483 1.523 2.72 2.713 3.293l.562-.726c-1.535-.697-2.83-2.608-2.824-4.512zm3.961 7.64h.926v-10.44h-.926v10.44zm13.863-10.44h-.914v5.308h.914v-2.274h1.57v-.773h-1.57v-2.262zm-7.945 2.695c-.006 1.37 1.142 2.314 2.707 2.32 1.57-.006 2.707-.95 2.707-2.32 0-1.366-1.137-2.303-2.707-2.309-1.565.006-2.713.943-2.707 2.309zm.902 0c-.006-.903.762-1.547 1.805-1.536 1.037-.011 1.81.633 1.804 1.536.006.914-.767 1.57-1.804 1.57-1.043 0-1.811-.656-1.805-1.57zm.398 3.843h5.731v1.102h-5.707v2.637h7.008v-.739h-6.106v-1.195h5.719v-2.543h-6.645v.738zm17.473-6.527h-.914v6.176h.914v-6.176zm-8.074 1.371h3.844v1.36h-3.821v2.94h.844c1.922 0 3.346-.058 5.098-.327l-.106-.774c-1.693.281-3.082.34-4.945.328V82h3.844v-2.824h-4.758v.738zm1.301 8.895h6.773V85.28h-6.773v3.528zm.902-.75V86.03h4.969v2.028h-4.969zm12.387-8.848c-2.174.006-3.809 1.142-3.809 2.86 0 1.734 1.635 2.87 3.809 2.859 2.174.011 3.808-1.125 3.808-2.86 0-1.716-1.634-2.853-3.808-2.86zm-4.746 8.355h9.539v-.773h-9.539v.773zm1.816-5.496c-.012-1.248 1.248-2.115 2.93-2.11 1.67-.005 2.918.862 2.918 2.11 0 1.266-1.248 2.11-2.918 2.11-1.682 0-2.942-.844-2.93-2.11zm18.094 4.817h-4.348v-1.969h3.387v-.762h-6.469v-1.699h6.223v-3.152h-7.16v.761h6.257v1.641h-6.234v3.211h3.094v1.969h-4.289v.773h9.539v-.773zm11.988-8.356h-.914v5.309h.914v-2.274h1.57v-.773h-1.57v-2.262zm-7.945 2.696c-.006 1.37 1.142 2.314 2.707 2.32 1.57-.006 2.707-.95 2.707-2.32 0-1.366-1.137-2.303-2.707-2.309-1.565.006-2.713.943-2.707 2.309zm.902 0c-.006-.903.762-1.547 1.805-1.536 1.037-.011 1.81.633 1.805 1.536.005.914-.768 1.57-1.805 1.57-1.043 0-1.811-.656-1.805-1.57zm.399 3.843h5.73v1.102h-5.707v2.637h7.008v-.739h-6.106v-1.195h5.719v-2.543h-6.644v.738zm17.496-6.539h-.914v2.38h-2.086v.773h2.086v2.074h-2.168v.773h2.168v4.442h.914V78.53zm-8.262 1.711h3.68v2.192h-3.645v4.101h.774c1.664 0 3-.058 4.664-.316l-.082-.774c-1.582.246-2.877.305-4.442.305v-2.566h3.633V79.48h-4.582v.761zm18.422 3.305h-6.281v-3.281h6.175v-.762h-7.089v4.805h7.195v-.762zm-8.414 3.984h9.539v-.773h-9.539v.773zm18.996-9h-.914v2.38h-2.086v.773h2.086v2.074h-2.168v.773h2.168v4.442h.914V78.53zm-8.262 1.711h3.68v2.192h-3.645v4.101h.774c1.664 0 3-.058 4.664-.316l-.082-.774c-1.582.246-2.877.305-4.442.305v-2.566h3.633V79.48h-4.582v.761zm19.547 6.598h-2.367v-2.836c.861-.463 1.383-1.201 1.383-2.133 0-1.611-1.582-2.672-3.809-2.683-2.227.011-3.809 1.072-3.809 2.683 0 .95.54 1.7 1.43 2.162v2.807h-2.367v.773h9.539v-.773zm-7.711-4.969c-.006-1.166 1.207-1.933 2.918-1.922 1.693-.011 2.918.756 2.918 1.922s-1.225 1.945-2.918 1.945c-1.711 0-2.924-.779-2.918-1.945zm1.441 4.969v-2.473c.446.117.944.176 1.477.176.545 0 1.049-.065 1.5-.182v2.479h-2.977zm8.204 1.23a.758.758 0 0 0 .75-.761.748.748 0 0 0-.75-.75c-.411 0-.762.34-.75.75-.012.416.339.755.75.761z"/>
    </g>
    <defs>
        <filter id="keiwp0a13c" x="89.702" y="119.552" width="148.597" height="178.597" filterUnits="userSpaceOnUse" color-interpolation-filters="sRGB">
            <feFlood flood-opacity="0" result="BackgroundImageFix"/>
            <feColorMatrix in="SourceAlpha" values="0 0 0 0 0 0 0 0 0 0 0 0 0 0 0 0 0 0 127 0" result="hardAlpha"/>
            <feOffset dy="-2.149"/>
            <feGaussianBlur stdDeviation="2.149"/>
            <feComposite in2="hardAlpha" operator="out"/>
            <feColorMatrix values="0 0 0 0 0.516667 0 0 0 0 0.405583 0 0 0 0 0.331528 0 0 0 0.1 0"/>
            <feBlend in2="BackgroundImageFix" result="effect1_dropShadow_8359_173989"/>
            <feBlend in="SourceGraphic" in2="effect1_dropShadow_8359_173989" result="shape"/>
        </filter>
        <filter id="a7dxvo7lje" x="99.385" y="131.421" width="129.231" height="191.911" filterUnits="userSpaceOnUse" color-interpolation-filters="sRGB">
            <feFlood flood-opacity="0" result="BackgroundImageFix"/>
            <feBlend in="SourceGraphic" in2="BackgroundImageFix" result="shape"/>
            <feColorMatrix in="SourceAlpha" values="0 0 0 0 0 0 0 0 0 0 0 0 0 0 0 0 0 0 127 0" result="hardAlpha"/>
            <feOffset/>
            <feGaussianBlur stdDeviation=".806"/>
            <feComposite in2="hardAlpha" operator="arithmetic" k2="-1" k3="1"/>
            <feColorMatrix values="0 0 0 0 0 0 0 0 0 0 0 0 0 0 0 0 0 0 0.08 0"/>
            <feBlend in2="shape" result="effect1_innerShadow_8359_173989"/>
        </filter>
        <filter id="7chfsbb8vf" x="100.864" y="144.576" width="208.947" height="70.272" filterUnits="userSpaceOnUse" color-interpolation-filters="sRGB">
            <feFlood flood-opacity="0" result="BackgroundImageFix"/>
            <feColorMatrix in="SourceAlpha" values="0 0 0 0 0 0 0 0 0 0 0 0 0 0 0 0 0 0 127 0" result="hardAlpha"/>
            <feOffset dy="2.712"/>
            <feGaussianBlur stdDeviation="4.068"/>
            <feComposite in2="hardAlpha" operator="out"/>
            <feColorMatrix values="0 0 0 0 0 0 0 0 0 0 0 0 0 0 0 0 0 0 0.08 0"/>
            <feBlend in2="BackgroundImageFix" result="effect1_dropShadow_8359_173989"/>
            <feBlend in="SourceGraphic" in2="effect1_dropShadow_8359_173989" result="shape"/>
        </filter>
        <filter id="ze1uco4zuh" x="108.29" y="248.658" width="30.724" height="12.361" filterUnits="userSpaceOnUse" color-interpolation-filters="sRGB">
            <feFlood flood-opacity="0" result="BackgroundImageFix"/>
            <feBlend in="SourceGraphic" in2="BackgroundImageFix" result="shape"/>
            <feGaussianBlur stdDeviation="2" result="effect1_foregroundBlur_8359_173989"/>
        </filter>
        <filter id="rtyfw67l3j" x="188.29" y="248.658" width="30.724" height="12.361" filterUnits="userSpaceOnUse" color-interpolation-filters="sRGB">
            <feFlood flood-opacity="0" result="BackgroundImageFix"/>
            <feBlend in="SourceGraphic" in2="BackgroundImageFix" result="shape"/>
            <feGaussianBlur stdDeviation="2" result="effect1_foregroundBlur_8359_173989"/>
        </filter>
        <filter id="w9455jm0uk" x="123.407" y="213.539" width="78.009" height="71.572" filterUnits="userSpaceOnUse" color-interpolation-filters="sRGB">
            <feFlood flood-opacity="0" result="BackgroundImageFix"/>
            <feBlend in="SourceGraphic" in2="BackgroundImageFix" result="shape"/>
            <feGaussianBlur stdDeviation="2" result="effect1_foregroundBlur_8359_173989"/>
        </filter>
        <filter id="fsrlub9kem" x="128.438" y="211.954" width="68.511" height="22.175" filterUnits="userSpaceOnUse" color-interpolation-filters="sRGB">
            <feFlood flood-opacity="0" result="BackgroundImageFix"/>
            <feBlend in="SourceGraphic" in2="BackgroundImageFix" result="shape"/>
            <feGaussianBlur stdDeviation="2.793" result="effect1_foregroundBlur_8359_173989"/>
        </filter>
        <filter id="6lqri24oro" x="129.438" y="210.954" width="68.511" height="22.175" filterUnits="userSpaceOnUse" color-interpolation-filters="sRGB">
            <feFlood flood-opacity="0" result="BackgroundImageFix"/>
            <feBlend in="SourceGraphic" in2="BackgroundImageFix" result="shape"/>
            <feGaussianBlur stdDeviation="2.793" result="effect1_foregroundBlur_8359_173989"/>
        </filter>
        <filter id="hryn10nopp" x="193.092" y="116.106" width="55.032" height="57.073" filterUnits="userSpaceOnUse" color-interpolation-filters="sRGB">
            <feFlood flood-opacity="0" result="BackgroundImageFix"/>
            <feBlend in="SourceGraphic" in2="BackgroundImageFix" result="shape"/>
            <feGaussianBlur stdDeviation="2" result="effect1_foregroundBlur_8359_173989"/>
        </filter>
        <clipPath id="y9yt1dqvya">
            <rect width="327" height="296" rx="16" fill="#fff"/>
        </clipPath>
        <clipPath id="gkd7eqtv7b">
            <rect y="96" width="327" height="200" rx="16" fill="#fff"/>
        </clipPath>
    </defs>
</svg>
