<svg width="65" height="65" viewBox="0 0 65 65" fill="none" xmlns="http://www.w3.org/2000/svg">
    <circle cx="32.138" cy="32.114" r="32" fill="#F2778C"/>
    <path d="M18.475 27.775h-1.976l-.235-11.77h2.347l-.068 4.864h4.39l-.068-4.864h2.349l-.237 11.77H23l-.05-4.966h-4.424l-.052 4.966z" fill="#fff"/>
    <path d="M25.275 28.08h-2.572l-.05-4.964h-3.826l-.05 4.964h-2.575l-.247-12.377h2.963l-.068 4.863h3.775l-.068-4.863h2.966l-.25 12.377h.002zm-1.972-.608h1.377l.224-11.163h-1.73l.068 4.863h-5.005l.068-4.863h-1.732l.224 11.163h1.377l.05-4.964h5.025l.05 4.964h.004zM36.12 23.908c-.01 1.284-.417 2.291-1.215 3.023-.8.733-1.784 1.097-2.954 1.097-1.103 0-2.069-.348-2.896-1.047-.828-.697-1.253-1.762-1.274-3.191l-.337-7.768h2.449v7.768c0 .731.188 1.298.566 1.696.377.4.875.599 1.495.599.62 0 1.117-.198 1.496-.592.376-.394.566-.952.566-1.672v-7.797h2.449l-.337 7.886-.007-.002z" fill="#fff"/>
    <path d="M31.951 28.333c-1.172 0-2.212-.376-3.09-1.119-.895-.753-1.36-1.903-1.385-3.418l-.351-8.077h3.07v8.071c0 .65.162 1.15.481 1.49.321.339.737.506 1.275.506.538 0 .954-.164 1.276-.499.32-.333.483-.826.483-1.463V15.72h3.069l-.351 8.202c-.011 1.355-.454 2.447-1.314 3.234-.852.782-1.915 1.178-3.161 1.178M27.76 16.327l.325 7.452c.021 1.34.414 2.338 1.167 2.973.776.656 1.66.975 2.7.975 1.102 0 2.002-.333 2.75-1.018.742-.678 1.108-1.596 1.117-2.802l.324-7.58h-1.828v7.5c0 .797-.219 1.43-.651 1.88-.436.455-1.013.684-1.714.684-.7 0-1.28-.233-1.716-.693-.43-.456-.648-1.098-.648-1.906v-7.465h-1.83.004zM49.005 21.121c.123 1.058.073 1.995-.153 2.813-.226.817-.568 1.5-1.03 2.05a4.78 4.78 0 0 1-1.867 1.403 5.603 5.603 0 0 1-2.17.455c-1.643 0-2.995-.608-4.053-1.823-1.057-1.216-1.588-2.64-1.588-4.272 0-1.632.532-3.068 1.596-4.272 1.063-1.205 2.39-1.808 3.976-1.808.326 0 .792.05 1.402.153.608.102 1.239.434 1.891.997l-1.334 1.654a3.186 3.186 0 0 0-.87-.498 2.86 2.86 0 0 0-1.071-.212c-.992 0-1.797.406-2.415 1.216a4.42 4.42 0 0 0-.929 2.752c0 1.023.296 1.95.888 2.81.59.861 1.427 1.293 2.508 1.293.686 0 1.357-.24 2.01-.719.652-.478.996-1.18 1.029-2.102h-2.803v-1.892h4.983v.002z" fill="#fff"/>
    <path d="M43.787 28.145c-1.728 0-3.168-.649-4.28-1.927-1.103-1.267-1.663-2.771-1.663-4.471 0-1.7.563-3.218 1.673-4.473 1.119-1.267 2.533-1.91 4.204-1.91.344 0 .82.053 1.45.157.662.11 1.348.47 2.04 1.066l.223.192-1.714 2.125-.237-.201a2.877 2.877 0 0 0-.785-.448 2.592 2.592 0 0 0-.961-.19c-.898 0-1.61.358-2.173 1.097a4.129 4.129 0 0 0-.866 2.567c0 .952.282 1.834.834 2.64.536.782 1.275 1.16 2.257 1.16.618 0 1.233-.222 1.83-.66.504-.367.795-.878.88-1.553h-2.776v-2.5h5.555l.03.27c.128 1.093.074 2.077-.16 2.927-.235.855-.603 1.583-1.09 2.166a5.081 5.081 0 0 1-1.981 1.486 5.93 5.93 0 0 1-2.288.479m-.068-12.175c-1.51 0-2.738.557-3.749 1.705-1.01 1.142-1.52 2.512-1.52 4.071 0 1.56.51 2.92 1.513 4.073 1.008 1.157 2.257 1.72 3.824 1.72a5.31 5.31 0 0 0 2.053-.433 4.497 4.497 0 0 0 1.748-1.314c.433-.518.76-1.169.971-1.94.196-.704.253-1.52.17-2.428h-4.404v1.285h2.813l-.011.314c-.036 1.016-.425 1.803-1.155 2.336-.702.514-1.44.776-2.189.776-1.181 0-2.11-.479-2.757-1.424a5.192 5.192 0 0 1-.94-2.985c0-1.072.334-2.076.992-2.936.676-.886 1.57-1.336 2.655-1.336.398 0 .798.08 1.185.233.266.106.502.228.705.363l.962-1.193c-.527-.41-1.036-.66-1.516-.74-.59-.097-1.045-.147-1.352-.147" fill="#fff"/>
    <path d="M31.76 48.024c4.42 0 8.005-3.953 8.005-8.829 0-4.876-3.584-8.83-8.005-8.83-4.42 0-8.005 3.954-8.005 8.83 0 4.876 3.584 8.83 8.005 8.83z" fill="#F2778C"/>
    <path d="M21.027 48.408H19.17l.034-6.924-.068-.016-1.992 4.289h-1.486l-1.993-4.289-.067.016.033 6.924h-1.858l-.42-11.753h2.227l2.82 6.62 2.82-6.62h2.23l-.422 11.753z" fill="#fff"/>
    <path d="M21.32 48.71h-2.455l.03-6.001-1.558 3.352h-1.873l-1.558-3.352.028 6.002H11.48l-.444-12.36h2.744l2.62 6.15 2.619-6.15h2.745l-.445 12.36h.002zm-1.844-.605h1.26l.402-11.146h-1.714l-3.02 7.09-3.022-7.09H11.67l.401 11.146h1.259l-.035-6.857.542-.133 2.017 4.34h1.099l2.015-4.34.541.133-.032 6.857zM38.18 32.078c1.76 1.82 2.64 4.094 2.64 6.83 0 2.89-.03 6.922-1.79 8.743-1.758 1.82-4.705 1.05-7.143 1.05-2.439 0-4.862.668-6.605-1.152-1.74-1.82-2.327-5.751-2.327-8.64 0-2.89.875-5.033 2.625-6.844 1.75-1.812 3.85-2.716 6.307-2.716 2.456 0 4.535.909 6.294 2.73m-1.823 12.308c1.235-1.416 1.852-3.247 1.852-5.497 0-.855-.099-1.65-.294-2.382a6.977 6.977 0 0 0-1.556-2.903c-1.236-1.375-2.8 2.906-4.547 2.906-1.746 0-3.236-1.395-4.45 0-.726.834-1.211-1.084-1.504 0a9.073 9.073 0 0 0-.297 2.38c0 2.25.613 4.08 1.837 5.496 1.225 1.414 2.72 2.122 4.488 2.122 1.767 0 3.237-.708 4.472-2.122M52.138 48.408H50.28l.034-6.924-.066-.016-1.994 4.289h-1.486l-1.992-4.289-.068.016.034 6.924h-1.857l-.423-11.753h2.23l2.82 6.62 2.82-6.62h2.228l-.42 11.753z" fill="#fff"/>
    <path d="M52.431 48.71h-2.456l.029-6.001-1.556 3.352h-1.874l-1.558-3.352.03 6.002h-2.455l-.445-12.36h2.745l2.619 6.15 2.62-6.15h2.744l-.445 12.36h.002zm-1.845-.605h1.26l.4-11.146h-1.714l-3.02 7.09-3.021-7.09h-1.714l.402 11.146h1.26l-.034-6.857.543-.133 2.017 4.34h1.099l2.015-4.34.543.133-.032 6.857h-.004zM28.869 39.106a.49.49 0 0 1-.033-.029.268.268 0 0 0-.283-.037.562.562 0 0 0-.077.034c-.384.18-.339.747.095.826.215.038.362.025.57-.025.491-.118.712-.676.298-1.036-.244-.208-.519-.409-.857-.328-.262.06-.562.244-.572.554 0 .034 0 .063-.004.093-.041 1.094 1.578.9 1.285-.149a1.301 1.301 0 0 0-.024-.09c-.072.255-.14.508-.214.764a.613.613 0 0 0 .07-.04c-.16.04-.32.082-.484.125.072.021.143.046.213.066-.04-.332-.08-.665-.123-.993-.115.098-.22.213-.352.29.176.004.352.004.526.004-.013-.006-.026-.011-.034-.023M34.885 39.105l.032-.03a.268.268 0 0 1 .282-.03c.025.011.052.022.077.036.378.19.315.757-.12.821-.214.032-.36.015-.567-.043-.487-.132-.692-.695-.265-1.045.25-.2.529-.394.866-.303.26.068.554.26.556.57v.093c.008 1.096-1.603.854-1.28-.186.007-.03.02-.061.028-.09l.19.77c-.025-.015-.048-.027-.07-.044l.48.138-.212.061c.05-.33.1-.661.152-.99.113.103.211.221.342.302-.175 0-.351-.005-.525-.013.013-.005.027-.01.036-.021M27.501 40.57c-.342.226-.676.465-.82.863-.076.204.119.45.33.437.72-.043 1.173-.455 1.682-.912-.136-.104-.27-.21-.405-.314-.219.39-.574.678-.79 1.072-.158.285.148.54.417.418.49-.22.904-.628 1.436-.739l-.423-.425c-.034.158-.057.312-.108.463-.096.317.336.577.563.33.094-.106.138-.162.198-.29.091-.202-.054-.386-.271-.352a.981.981 0 0 0-.334.113c.164.127.33.252.492.38.055-.153.084-.305.123-.46.072-.272-.17-.465-.42-.422-.616.104-1.034.588-1.562.875.138.138.277.28.417.417.19-.407.518-.713.71-1.117.108-.229-.113-.489-.355-.354-.383.213-.928.579-1.366.625l.346.346c-.012-.297.158-.482.353-.687.13-.136-.04-.376-.21-.267M34.85 40.43c-.243.263-.496.529-.652.855-.115.247.079.635.396.514.427-.164.776-.439 1.113-.745l-.63-.486c-.124.211-.21.439-.304.663-.116.285.169.525.42.549.473.044.74-.237 1.102-.484-.215-.22-.432-.434-.652-.653-.142.307-.339.58-.525.86-.284.43.256.876.665.664.365-.194.625-.344.785-.728.068-.167-.074-.405-.244-.434-.434-.075-.663.108-1.03.325.222.22.442.44.663.663.172-.29.369-.561.509-.871.174-.384-.22-.952-.653-.647-.161.11-.421.423-.622.435.14.185.278.368.418.55.041-.175.075-.328.16-.487.202-.396-.3-.825-.632-.488-.25.26-.521.463-.815.676l.527.301c.02-.31.204-.507.376-.744.161-.222-.197-.489-.376-.288M31.886 44.867c-.76 0-1.407-.33-1.923-.98a3.307 3.307 0 0 1-.554-1.044c-.036-.109.036-.224.16-.256.121-.03.252.032.288.142.113.346.276.654.486.92.43.54.934.804 1.543.804.61 0 1.105-.263 1.538-.805.214-.265.379-.579.492-.928.034-.11.165-.172.288-.142.124.032.196.145.16.255a3.261 3.261 0 0 1-.561 1.056c-.52.648-1.166.978-1.917.978z" fill="#fff"/>
</svg>
