<svg width="65" height="65" viewBox="0 0 65 65" fill="none" xmlns="http://www.w3.org/2000/svg">
    <circle cx="32.138" cy="32.229" r="32" fill="#007DFE"/>
    <g clip-path="url(#l91d9sagwa)">
        <path fill-rule="evenodd" clip-rule="evenodd" d="M21.95 37.537v-6.255h-5.442l.383 2.366h2.257v2.288c-.528.28-1.034.413-1.751.413-2.24 0-3.368-1.7-3.368-4.115s1.089-4.043 3.33-4.043c1.339 0 2.484.484 3.462 1.1l.434-2.772c-1.034-.578-2.374-.952-3.975-.952-4.013-.005-6.475 2.69-6.475 6.678s2.279 6.65 6.398 6.65c1.79 0 3.39-.484 4.74-1.358h.006zM32.532 34.78c0-2.046-1.128-3.014-3.946-4.042-1.617-.61-1.979-.93-1.979-1.584 0-.594.473-1.002 1.45-1.002.98 0 2.219.37 3.386 1.04l.49-2.679c-1.135-.539-2.224-.858-3.914-.858-2.485 0-4.441 1.32-4.441 3.801 0 2.123 1.128 2.965 3.724 3.95 1.829.693 2.201 1.028 2.201 1.754 0 .765-.64 1.155-1.562 1.155-1.295 0-2.785-.484-4.119-1.188l-.466 2.717c1.317.595 2.784.969 4.535.969 2.58 0 4.647-1.227 4.647-4.021l-.005-.011z" fill="#fff"/>
        <path d="M39.097 34.176c1.501-.974 3.535-2.244 3.535-4.659 0-2.651-2.267-3.856-4.38-3.856-3.146 0-4.413 2.475-4.59 2.86l2.428 1.122c.15-.269.828-1.336 1.957-1.336.728 0 1.44.594 1.44 1.513 0 .742-.846 1.303-1.896 2.013-1.668 1.122-3.74 2.525-3.74 5.401 0 .38.044.798.133 1.315h8.654v-2.574h-5.342c0-.567.829-1.166 1.801-1.799z" fill="#00D4EC"/>
        <path d="M49.386 32.157a1.24 1.24 0 0 1-1.245-1.232c0-.677.561-1.232 1.245-1.232.683 0 1.245.555 1.245 1.232 0 .677-.562 1.232-1.245 1.232z" fill="#fff"/>
        <path d="M50.148 29.577a2.564 2.564 0 0 0-.762-.132c-.828 0-1.495.666-1.495 1.48 0 .555.3 1.034.767 1.293.206.115.734.275.884.352.628.335 1.056.99 1.056 1.743a1.99 1.99 0 0 1-2.001 1.98 1.99 1.99 0 0 1-1.99-1.81l-2.68.578a4.806 4.806 0 0 0 4.725 3.84c2.663 0 4.82-2.135 4.82-4.77a4.8 4.8 0 0 0-3.324-4.554zm-.762 2.333a.989.989 0 0 1-.995-.985c0-.545.445-.985.995-.985s.995.44.995.985a.989.989 0 0 1-.995.985z" fill="#00D4EC"/>
        <path d="m44.761 25.837-.528 5.951h2.696l.345-3.382h3.096c1.829 0 2.496-1.469 2.496-2.57H44.76z" fill="#00D4EC"/>
    </g>
    <defs>
        <clipPath id="l91d9sagwa">
            <path fill="#fff" transform="translate(10.805 25.562)" d="M0 0h42.667v13.333H0z"/>
        </clipPath>
    </defs>
</svg>
