<svg width="65" height="65" viewBox="0 0 65 65" fill="none" xmlns="http://www.w3.org/2000/svg">
<circle cx="32.1377" cy="32.1143" r="32" fill="#0068B6"/>
<g clip-path="url(#clip0_5310_117197)">
<path d="M13.7756 36.855C10.7171 36.855 9.02686 34.9484 9.02686 32.1287C9.02686 29.309 10.8575 27.3735 13.8325 27.3735C15.0194 27.3735 16.0102 27.6373 16.7798 28.0493L16.4592 30.0224C15.732 29.5866 14.8803 29.2437 13.8882 29.2437C12.2258 29.2437 11.4178 30.408 11.4178 32.1162C11.4178 33.8243 12.2549 35.0439 13.916 35.0439C14.4472 35.0439 14.8247 34.9509 15.2154 34.7512V33.1222H13.5398L13.2603 31.4404H17.2977V35.8904C16.291 36.5146 15.1042 36.8563 13.7782 36.8563" fill="white"/>
<path d="M21.8766 36.7898C20.5771 36.7898 19.4883 36.5261 18.5107 36.1015L18.8591 34.1673C19.8499 34.671 20.9546 35.0151 21.9176 35.0151C22.6025 35.0151 23.0767 34.7363 23.0767 34.1937C23.0767 33.6511 22.7972 33.4376 21.4421 32.9477C19.5148 32.2456 18.6763 31.6503 18.6763 30.1406C18.6763 28.3797 20.1281 27.439 21.9719 27.439C23.2316 27.439 24.041 27.665 24.8781 28.0481L24.5152 29.9547C23.6515 29.4774 22.7415 29.2137 22.0011 29.2137C21.2606 29.2137 20.9255 29.5038 20.9255 29.9283C20.9255 30.3918 21.1904 30.6166 22.3918 31.0537C24.49 31.7809 25.3259 32.4705 25.3259 33.9274C25.3259 35.9144 23.7893 36.7886 21.8752 36.7886" fill="white"/>
<path d="M35.805 27.6069H34.7705V32.1134H35.805V30.2031H37.0449V29.3214H35.805V27.6069Z" fill="white"/>
<path d="M33.3558 27.8028H28.4706V28.6845H32.0749C32.002 29.0035 31.8855 29.2962 31.7252 29.565H28.4693V30.3876H31.0033C30.3012 30.9528 29.2786 31.3296 27.9209 31.5042L28.3249 32.2478C30.8032 31.9338 33.1491 30.6602 33.3544 27.8003L33.3558 27.8028Z" fill="white"/>
<path d="M30.4327 34.9244H35.8053V32.5054H29.3491V33.3582H34.7707V34.1218H29.3995V36.1302C29.3995 36.3939 29.6366 36.62 29.9147 36.62H35.8543V35.7672H30.4313V34.9244H30.4327Z" fill="white"/>
<path d="M45.5833 27.6069H44.5806V32.602H45.5833V27.6069Z" fill="white"/>
<path d="M43.8267 32.602V27.6069H42.824V29.5361H41.5537V30.4178H42.824V32.602H43.8267Z" fill="white"/>
<path d="M41.8942 31.3584H38.9722V30.3888H41.1419V29.5661H38.9722V28.6556H41.5538V27.8027H37.939V31.7214C37.939 31.9839 38.1774 32.21 38.4556 32.21H41.8942V31.3572V31.3584Z" fill="white"/>
<path d="M38.9722 33.8756H44.5488V36.6187H45.582V32.9951H38.9722V33.8756Z" fill="white"/>
<path d="M50.4764 27.7051V28.843C50.4764 30.8011 48.8856 31.9566 47.0576 32.2706L47.512 33.0443C48.8763 32.8182 50.1863 32.0646 51.0129 30.889C51.8408 32.0646 53.1508 32.8182 54.5152 33.0443L54.9695 32.2706C53.1415 31.9566 51.5507 30.8011 51.5507 28.843V27.7051H50.4764Z" fill="white"/>
<path d="M55.2487 34.854H46.7778V35.737H55.2487V34.854Z" fill="white"/>
</g>
<defs>
<clipPath id="clip0_5310_117197">
<rect width="46.2222" height="9.48148" fill="white" transform="translate(9.02686 27.3735)"/>
</clipPath>
</defs>
</svg>
