<svg width="65" height="65" viewBox="0 0 65 65" fill="none" xmlns="http://www.w3.org/2000/svg">
    <circle cx="32" cy="32.229" r="32" fill="#10CFC9"/>
    <path d="M16.892 20.129h-1.858v-2.265h-1.7v8.156h5.258v-8.156h-1.7v2.265zm-1.858 4.079v-2.265h1.858v2.265h-1.858zM22.939 16.68v4.1h-1.344v-4.1h-1.7v11.822h1.7v-5.91h1.344v5.91h1.7V16.681h-1.7zM50.486 16.68H48.56v7.83h1.926v-7.83zM46.574 22.591v-5.33h-5.97v5.92h5.97v-.59zm-4.27-3.636h2.57v2.533h-2.57v-2.533zM43.756 27.043v-2.457h-1.778v4.151h8.688v-1.694h-6.91z" fill="#fff"/>
    <path d="m37.629 28.17-1.482-8.467-.608-.155-.557.626.869 1.241-1.246.808.812 1.832.434 1.752-.058.062-1.404 1.514-.273 1.83v.02l1.316 1.196c1.737-.558 2.83-1.294 2.83-1.294-.515-.078-.633-.966-.633-.966z" fill="#D2B6A1"/>
    <path d="M30.361 28.482v1.204l3.752-.473.274-1.83 1.404-1.514c-1.264-.052-3.86-.17-3.86-.17l-1.572 2.783h.002z" fill="#EDD5BA"/>
    <path d="m34.113 29.21.274-1.83-.274 1.83z" fill="#F5E3CD"/>
    <path d="m34.114 29.21-3.752.473.567 1.336c1.718.105 3.272-.197 4.5-.593l-1.318-1.196v-.02h.003z" fill="#E5CEB4"/>
    <path d="m34.11 29.231.003-.021-.002.021z" fill="#E5CEB4"/>
    <path d="m34.605 22.223 1.246-.808-.869-1.241.558-.626-2.73-.693-4.583.218-2.488.906-1.166 1.318c-.233 1.467-.022 4.777 1.512 7.115l4.282 1.27V28.48l1.572-2.782s2.596.117 3.86.17l.057-.063-.434-1.752-.811-1.831-.005.002z" fill="#F5E3CD"/>
    <path d="M26.18 28.562c.79 1.139 1.91 2.022 3.466 2.305.437.08.864.127 1.283.155l-.567-1.336-1.351-.223-2.83-.901z" fill="#E5CEB4"/>
    <path d="m26.18 28.562 2.83.9 1.352.223-4.282-1.27c.033.05.068.1.1.15v-.003z" fill="#F5E3CD"/>
    <path d="m23.883 41.046.306-2.98-1.642-.54H22c.045 0-.357 3.323-.357 3.323l.18.2h2.06v-.003z" fill="#9D806B"/>
    <path d="m17.909 44.097-.555 1.95s2.838-2.954 2.75-2.954c-.088 0-2.192 1.004-2.192 1.004h-.003z" fill="#231815"/>
    <path d="M27.215 35.434c0 .598-.487 1.083-1.087 1.083s-1.087-.485-1.087-1.083.487-1.084 1.087-1.084 1.087.486 1.087 1.084z" fill="#421C2C"/>
    <path d="M26.128 36.35c.507 0 .919-.41.919-.916a.917.917 0 0 0-.92-.916c-.507 0-.918.41-.918.916 0 .505.411.915.919.915z" fill="#8F795C"/>
    <path d="M35.261 30.479c-.894.273-1.946.495-3.104.55v5.233h4.026l1.077-2.165-2.002-3.616.003-.002z" fill="#3FB8BB"/>
    <path d="M37.006 29.81c-.432.2-.964.421-1.577.616l-.168.053 2.001 3.616-1.077 2.164h2.019l-.515-2.127-.68-4.324-.003.003z" fill="#31879F"/>
    <path d="M37.747 29.488c-.012-.01-.03-.018-.045-.025a12.45 12.45 0 0 1-.696.35l.68 4.324.516 2.127h1.047c.04-3.503-1.502-6.771-1.502-6.771v-.005z" fill="#1F8A8A"/>
    <path d="M32.895 20.982c-1.368 0-2.403.823-2.629 2.017a2.416 2.416 0 0 0-.776.07c-.346-.81-1.107-1.309-2.104-1.309-1.339 0-2.202.929-2.202 2.367 0 1.44.853 2.408 2.174 2.408s2.343-.989 2.343-2.402c0-.173-.015-.338-.04-.496.138-.035.341-.068.567-.05.04 1.519 1.083 2.613 2.512 2.613 1.526 0 2.772-1.212 2.772-2.698 0-1.487-1.097-2.52-2.61-2.52h-.007z" fill="url(#s4lds1x8ta)"/>
    <path d="M35 23.502c0 1.216-1.047 2.195-2.268 2.195-1.22 0-2.011-.986-2.011-2.2 0-1.213.954-2.012 2.172-2.012 1.218 0 2.104.804 2.104 2.017H35z" fill="url(#mudpb3usub)"/>
    <path d="M29.191 24.133c0 1.214-.838 1.9-1.838 1.9s-1.67-.691-1.67-1.905.698-1.867 1.7-1.867 1.808.656 1.808 1.872z" fill="url(#ufgy0plbkc)"/>
    <path d="M29.422 27.146s1.349 0 2.386-.814" stroke="#605B34" stroke-width="1.253" stroke-linecap="round" stroke-linejoin="round"/>
    <path d="M30.852 20.804s-.327-.087.108-.325c.434-.235 1.097-.718 1.777-.443.681.275.377.355-.113.378-.49.025-.848.102-1.451.335 0 0-.128.068-.321.053v.002zM26.698 20.95s-.251-.06-.076-.208c.179-.148.445-.28 1.06-.2.616.082 1.69.405 1.208.488-.482.082-.859-.236-2.192-.08z" fill="#2C2D11"/>
    <path opacity=".5" d="M37.677 24.988 36.49 19.2l-2.845-.65h-4.801l-3.666 1.18-1.166 1.625-.148 2.402 1.125 3.651 1.286 1.912.899.803.404-.122c-2.893-2.057-3.31-6.854-3.013-8.706l1.165-1.319 2.489-.906 4.582-.217 2.73.693.608.155 1.481 8.466s.118.885.633.965l-.12.078h.83l.091-.095-.8-.493-.583-3.634h.005z" fill="#1A8282"/>
    <path d="m39.465 20.382-.277-2.157.261-1.089-.022-.032H38.09l-2.587.678.987 1.419.902 4.394.987-1.216 1.084-1.997z" fill="#259797"/>
    <path d="M41.559 22.066c-.018-.17-.07-.508-.136-.903l-.515-1.962-1.458-2.065-.26 1.089.277 2.154-1.087 2s-.5.64-.982 1.241l.281 1.366.583 3.634.8.493 1.056-1.104 1.185-2.442s.316-2.913.256-3.503v.002z" fill="#1F8A8A"/>
    <path d="m37.393 23.595.005.027c.482-.602.981-1.24.981-1.24l-.986 1.213z" fill="#2EADAD"/>
    <path d="M41.006 18.855s-.929-1.91-1.976-2.933-3.182-1.791-3.182-1.791l-2.099-.276-.073 1.26 4.181 2.049.236-.063h1.334l1.481 2.097.515 1.962c-.166-.978-.417-2.307-.417-2.307v.002z" fill="#2AA3A3"/>
    <path d="M26.939 15.785s2.117-.866 2.252-.866c.136 0 1.15-.866 1.15-.866l2.512-.313-.164-.02-1.125-.158-2.37.296-3.508 2.342-1.886 3.07-.435 1.252-.077 3.628 1.202 3.156 1.03 1.338.76.681-1.285-1.912-1.125-3.65.148-2.403 1.165-1.624 1.618-.52-1.284-.661 1.422-2.765v-.005z" fill="#2EADAD"/>
    <path d="m37.857 17.166-4.181-2.05.073-1.258-.897-.118-2.511.313s-1.012.866-1.15.866c-.138 0-2.253.866-2.253.866l-1.42 2.765 1.282.66 2.047-.66h4.801l2.845.65-.986-1.418 2.352-.619-.002.003z" fill="#2CA8A8"/>
    <path d="M40.163 27.919c-.134-.01-.282-.018-.447-.025a.332.332 0 0 1-.244-.115c-.249-.27-.274-.924-.264-1.131v-.045c-.311-3.166-.984-5.979-1.336-7.142-.43-1.432-1.373-1.847-1.411-1.864l-2.986-.734h-4.74l-4.162 1.812-.783.613-.36 1.031 1.45-1.133 3.977-1.732h4.546l2.84.693c.118.06.74.42 1.06 1.481.34 1.142 1.001 3.897 1.31 7.01-.007.18-.015 1.056.417 1.534.168.185.387.29.635.308l.45-.471.045-.093.003.003z" fill="#fff"/>
    <path d="m35.113 33.627-.859.265-2.86.53s-1.878.453-3.111.746l.02.145v.433h1.303l3.812-.966 1.7-.55 1.976-1.89.169-.685-2.15 1.97v.002z" fill="#497278"/>
    <path d="M31.243 33.302h-2.574l-.613.233.013.067.213 1.567c1.062-.253 2.6-.623 3.009-.721v-1.146h-.048z" fill="#9BD1CE"/>
    <path d="m37.044 31.858-.859-.919-2.406.356-1.007 1.15 3.687-.052.585-.535z" fill="#93C4D1"/>
    <path d="m32.773 32.446-1.53.855h.048v1.146l.103-.025 2.86-.53.859-.265 1.346-1.234-3.687.053z" fill="#7AB6C1"/>
    <path d="m37.293 31.535-.513-.748-2.074-.098-1.441.333-1.464 1.224-.708.255s-3.024.217-3.122.61l.088.426.613-.233h2.574l1.529-.856 1.007-1.15 2.406-.354.858.919.219-.2.03-.123-.002-.005z" fill="#D7EDEE"/>
    <path d="m28.021 33.369-.582-.068c-1.022-.535-2.89-.35-3.571.773-.68 1.122.306 1.557.306 1.557h.633l.198-.178.04.01v-.03c0-.598.488-1.083 1.088-1.083.6 0 1.087.485 1.087 1.083 0 .2-.055.386-.15.548.494.05 1.335-.508 1.335-.508l-.381-2.102-.003-.002z" fill="#F3D2B9"/>
    <path d="m23.986 43.359-.43-.53c-1.489-.364-3.206.36-4.429.975-.005.005-1.158.809-1.472 1.692-.276.773-.296.75-.296.733-.005.105-.06 1.907.884 3.243.974 1.38 1.389 1.457 3.621 1.417 2.233-.04 3.081-.749 3.714-1.675.41-.6.62-1.548.718-2.139-.766-1.159-2.307-3.716-2.307-3.716h-.003zm.384 4.086s-.929 2.067-2.727 1.694c0 0-2.134-.197-2.212-2.224 0 0-.098-1.99 1.72-2.265 1.818-.275 2.785.376 3.22 1.97v.825z" fill="url(#nm1mib2m9d)"/>
    <path d="M21.15 44.648c-1.817.275-1.72 2.264-1.72 2.264.079 2.027 2.213 2.225 2.213 2.225 1.798.375 2.727-1.694 2.727-1.694v-.826c-.434-1.594-1.404-2.244-3.22-1.97z" fill="#C1ADBE"/>
    <path d="M46.109 46.682c-.133-.428-.517-1.094-.726-1.431-.208-.34-.889-1.121-.889-1.121l-2.948-.046s-2.489 2.983-2.727 3.354a1.545 1.545 0 0 1-.226.267c-.008.29.043.691.316 1.092.505.738 1.437 1.904 2.534 2.009 1.098.102 2.682 0 2.682 0s2.278-.706 2.353-3.523c-.163-.083-.276-.3-.37-.596v-.005z" fill="url(#ke29dxai2e)"/>
    <path d="M41.175 45.809s-.578.383-.52 1.136c.06.753.532 1.904 1.333 2.184.801.28 2.044.266 2.637-1.166.593-1.431-.37-2.127-1.23-2.495-.86-.368-1.69-.015-2.223.34h.003z" fill="#C1ADBE"/>
    <path d="m34.003 41.96-.25 2.905-.536.693.565.789.455-.018.374-4.284-.608-.085z" fill="#9B7C6F" opacity=".5"/>
    <path d="m39.249 42.045-5.899-.355-.22 2.898s-.712.853-.727.928c-.015.073-3.467-.2-3.467-.2s-.088.097-.533-.803c-.444-.901-1.353-2.393-1.353-2.393s-.07.34 0-1.15c.07-1.492.51-5.421.51-5.421l-1.156.438-.178.528c.306-.028.575-.18.756-.406 0 0-.728 5.333-.851 5.866-.123.53.256.989.256.989l2.549 3.588 4.846-.2-.565-.788.532-.694.252-2.905.607.083 4.626.242.015-.242v-.003z" fill="#4B1810"/>
    <path d="m34.611 42.045-.374 4.284 3.588-.15 1.27-1.462.139-2.43-4.623-.242z" fill="#572E24"/>
    <path d="M33.716 40.14h4.94l.61-.367-.032-.063-.327-.235-.517.28-5.382.178-.088 1.401.43.356.354.022-.442-.41.454-1.161z" fill="#4B1810"/>
    <path d="m39.266 39.773-.61.365h-4.94l-.454 1.161.442.41 5.545.334s.281-.088.324-.083c.045.005.088-1.379.088-1.379l-.397-.808h.002z" fill="#9B7C6F" opacity=".5"/>
    <path d="m38.59 42.856 1.784-1.387h7.912v.49l-1.087.601-5.964-.057-2.14 2.214-.504-1.861z" fill="#572E24"/>
    <path d="M47.199 44.115v-.654h-1.85c.082.063.162.13.24.2l.89.083.72.37z" fill="#BAAEAF" opacity=".5"/>
    <path d="m46.478 43.742-.889-.083c.352.318.643.696.862 1.026l.748-.138v-.435l-.72-.37z" fill="#624F3E" opacity=".5"/>
    <path d="m40.996 40.909-.718.613.008.015.088-.068h7.912l.098-.08-.748-.48h-6.64z" fill="#2F7F85" opacity=".5"/>
    <path d="m47.636 33.907.354 1.264v.578l-.354 5.16.748.48.11-.087.199-.255.138-.453.216-6.5v-.187h-1.411z" fill="#5681BC" opacity=".5"/>
    <path d="m40.278 32.849.806-.66-.464-.269-.068.028-.673.913-.118 7.435.073.323.328-2.725.116-5.045z" fill="#007178"/>
    <path d="m41.056 39.475.385-1.204v-5.878l-.357-.205-.806.66-.115 5.046-.33 2.725.066.29.379.613.718-.613h.118l.133-.315-.19-1.119z" fill="#C1DFEE"/>
    <path d="m43.13 32.113-1.752.242.063.038v5.878l-.384 1.204.19 1.118-.133.316h6.522l.354-5.16v-.578l-.354-1.264-3.111-1.514-1.394-.28z" fill="#6FC6D4"/>
    <path d="m49.047 33.702-.296-.57-.296-.27-4.05-1.072h-2.838l-.483.398.294.168 1.753-.243 1.394.28 3.111 1.514h1.411v-.205zM41.566 31.79h-.64l-.306.13.464.268.482-.398z" fill="#B1DAEB"/>
    <path d="m30.653 44.587 1.253-.4.153-.548.417-.033-.145-.277-2.587.092-.899.118-.367.43-.015.158.44.235 1.748.225h.002z" fill="#958D81"/>
    <path d="M32.479 43.606c-.216.02-.417.033-.417.033l-.153.548-1.253.4-1.748-.225-.44-.235-.04.43 1.858.258 2.394.138-.048-1.064-.15-.283h-.003z" fill="#473F2A"/>
    <path d="m30.166 39.772-.98-1.12v.142l.385 2.918.178 1.749 1.037.078-.133-2.493-.487-1.274z" fill="#9E9299"/>
    <path d="m31.648 37.408 1.273-.148 1.132-1H32.63l-2.375.572-1.068 1.151v.669l.98 1.12.193.511-.075-1.221 1.364-1.654z" fill="#C8C1CB"/>
    <path d="M39.249 36.26H36.33l1.034 2.011-1.778.38-1.534-.18-.274.516s-.919-.235-1.007-.235c-.087 0-.904.385-.949.398-.045.015-.384.925-.384.925s.06 1.985.06 2.042c0 .04.201.954.322 1.497l.537.04.271.235.048-3.814.334-.142 5.379-.178.517-.28s.445-.035.342-3.213v-.003z" fill="#372F2B"/>
    <path d="m35.542 37.053.158-.794h-1.647l-1.135.999-1.273.147-1.364 1.654.078 1.222.294.763.133 2.49 1.032.075c-.12-.54-.321-1.454-.321-1.497 0-.06-.06-2.042-.06-2.042s.34-.91.384-.925c.045-.016.858-.398.949-.398.09 0 1.007.235 1.007.235l.273-.516.272.033.384-.578.834-.871.002.003z" fill="#7C6D67"/>
    <path d="m37.365 38.271-1.034-2.012h-.628l-.16.794-.832.87-.387.578 1.263.15 1.778-.38z" fill="#604F4D"/>
    <path d="M28.428 44.525h-.012l.01.015.002-.015zM30.284 44.815l-1.846-.255.497.753 3.466.2.276-.372v-.188l-2.393-.138z" fill="#9D806B"/>
    <path d="m21.977 37.896-.153-.045s-.209-.073-.52.163c0 0-.608.87-.296 1.861.15.48.422.696.66.791.063-.528.244-2.06.312-2.77h-.003z" fill="#F7F17F"/>
    <path d="M43.769 34.628a2.529 2.529 0 0 1 1.645.265 2.435 2.435 0 0 1 1.22 1.604c.17.733-.005 1.552-.492 2.135-.678.843-1.939 1.138-2.923.693a2.481 2.481 0 0 1-1.404-1.64c-.16-.64-.073-1.343.279-1.904a2.479 2.479 0 0 1 1.675-1.153zm-.309 1.541v1.795c.093 0 .186 0 .279.002v-.908h.166c0 .295 0 .59-.008.888.095.01.183.018.271.025v-1.807c-.09.003-.183.01-.271.013.008.195.01.388.008.583h-.166v-.593h-.279v.002zm2.167-.017v1.17h.301v-1.17h-.301zm-3.141.165c-.003.415 0 .826 0 1.236h.806c.002-.41 0-.823.002-1.231-.065 0-.203 0-.268-.005v.345c-.093 0-.189.005-.282.005v-.348h-.26l.002-.002zm1.95-.048c0 .296-.004.596 0 .894h.928v-.894h-.927zm.22 1.074c-.006.208-.006.415 0 .623.424.002.856.002 1.285 0 0-.093 0-.188.003-.28h-1.012v-.346h-.277v.003z" fill="#B4DBDA"/>
    <path d="M44.718 36.532h.359v.36h-.364c0-.12 0-.242.005-.36zM42.744 36.962h.284c-.005.106-.01.211-.01.317-.093-.003-.18-.003-.271-.003 0-.103-.005-.208-.005-.314h.002z" fill="#B4DBDA"/>
    <path d="M43.458 36.17h.278v.593h.166c0-.196 0-.388-.008-.584.09-.005.184-.01.272-.012v1.807c-.09-.008-.179-.018-.271-.025.01-.296.01-.593.007-.889h-.166v.909c-.093-.003-.186-.003-.278-.003V36.17zM45.625 36.152h.298v1.171h-.3v-1.171h.002zM42.483 36.317h.261v.348c.093 0 .186-.005.281-.005v-.345c.066.005.204.005.269.005-.002.41 0 .82-.002 1.23h-.807c0-.41-.002-.823 0-1.235l-.002.002zm.261.646c0 .105.005.21.005.312.088 0 .178 0 .271.003 0-.105.005-.21.01-.315h-.286zM44.434 36.267h.927v.893h-.927c-.005-.295 0-.596 0-.893zm.284.265c-.005.118-.005.243-.005.36h.364v-.36h-.359zM44.65 37.34h.276v.346h1.012c-.002.092-.002.185-.002.28-.43.002-.861.002-1.286 0a12.69 12.69 0 0 1 0-.623v-.003z" fill="#26A7A3"/>
    <path d="M20.656 42.045s1.067-.375 2.627-.333l1.56.043v-2.28l1.17-1.634.137-1.324h-.022c-.59 0-1.07-.468-1.085-1.053l-.04-.01-.199.177h-.366l-.573 5.573s-3.794-1.063-7.084 2.718c0 0-.281.28-.118.65.045.105.11.168.206.193.74-.76 1.416-1.431 1.416-1.431l2.371-1.284v-.005z" fill="#2CA8A8"/>
    <path d="M46.895 45.471s-1.155-2.555-2.89-2.48l-3.378-.03-2.8 3.218-8.891.37-2.55-3.588s-.378-.458-.255-.988.85-5.866.85-5.866c-.192.243-.489.403-.825.41l-.138 1.324-1.17 1.634v2.28l-1.56-.043c-1.562-.042-2.627.333-2.627.333l-2.37 1.284s-.676.673-1.416 1.431c.236.06.665-.132 1.514-.575 1.185-.62 3.35-1.802 5.17-1.36l.43.531s2.207 3.661 2.651 4.21c.445.545.49.9 1.186.9.695 0 4.919-.222 6.757-.235a49.878 49.878 0 0 0 3.513-.163s.49-.265.726-.635c.239-.37 2.727-3.353 2.727-3.353l2.948.045s.68.783.89 1.12c.208.341.592 1.004.725 1.432.133.428.311.693.623.62.311-.074.786-.37.163-1.831l-.003.005z" fill="#259797"/>
    <defs>
        <linearGradient id="s4lds1x8ta" x1="25.201" y1="23.757" x2="35.751" y2="23.757" gradientUnits="userSpaceOnUse">
            <stop stop-color="#8A7851"/>
            <stop offset=".26" stop-color="#84724E"/>
            <stop offset=".58" stop-color="#746248"/>
            <stop offset=".94" stop-color="#5A483D"/>
            <stop offset="1" stop-color="#56443C"/>
        </linearGradient>
        <linearGradient id="mudpb3usub" x1="23.571" y1="20.056" x2="42.995" y2="27.504" gradientUnits="userSpaceOnUse">
            <stop stop-color="#fff"/>
            <stop offset="1" stop-color="#C8BDB0"/>
        </linearGradient>
        <linearGradient id="ufgy0plbkc" x1="22.687" y1="22.359" x2="42.114" y2="29.806" gradientUnits="userSpaceOnUse">
            <stop stop-color="#fff"/>
            <stop offset="1" stop-color="#C8BDB0"/>
        </linearGradient>
        <linearGradient id="nm1mib2m9d" x1="21.824" y1="40.849" x2="21.824" y2="52.735" gradientUnits="userSpaceOnUse">
            <stop stop-color="#D5D5D6"/>
            <stop offset=".05" stop-color="#C1BFC0"/>
            <stop offset=".17" stop-color="#9A9493"/>
            <stop offset=".29" stop-color="#79706C"/>
            <stop offset=".41" stop-color="#5D514D"/>
            <stop offset=".54" stop-color="#483A34"/>
            <stop offset=".67" stop-color="#392923"/>
            <stop offset=".82" stop-color="#302019"/>
            <stop offset=".99" stop-color="#2E1D16"/>
        </linearGradient>
        <linearGradient id="ke29dxai2e" x1="46.29" y1="51.136" x2="39.561" y2="44.384" gradientUnits="userSpaceOnUse">
            <stop stop-color="#D5D5D6"/>
            <stop offset=".05" stop-color="#C1BFC0"/>
            <stop offset=".17" stop-color="#9A9493"/>
            <stop offset=".29" stop-color="#79706C"/>
            <stop offset=".41" stop-color="#5D514D"/>
            <stop offset=".54" stop-color="#483A34"/>
            <stop offset=".67" stop-color="#392923"/>
            <stop offset=".82" stop-color="#302019"/>
            <stop offset=".99" stop-color="#2E1D16"/>
        </linearGradient>
    </defs>
</svg>
