<svg width="65" height="64" viewBox="0 0 65 64" fill="none" xmlns="http://www.w3.org/2000/svg">
    <circle cx="32.069" cy="32" r="32" fill="#F50"/>
    <g clip-path="url(#v5nrhav9ea)">
        <path d="M10.595 28.822H9.086v7.333h4.528v-1.1h-3.019v-6.233zM31.346 29.922h3.018v6.233h1.51v-7.333h-4.528v1.1zM45.305 28.822h-1.51v7.333h4.528v-1.1h-3.018v-6.233zM18.519 28.822h-1.887l-2.64 7.333H15.5l.521-1.466h3.113l.52 1.466h1.51l-2.645-7.333zm-2.11 4.767 1.166-3.3 1.166 3.3h-2.335.004zM27.385 34.689l-1.32-5.867h-1.51l-1.32 5.867-2.075-5.867h-1.51l2.641 7.333h1.887l1.132-4.4 1.131 4.4h1.887l2.64-7.333H29.46l-2.075 5.867zM39.835 28.822h-.944l-2.64 7.333h1.509l.52-1.466h3.113l.52 1.466h1.51l-2.645-7.333h-.943zm-1.166 4.767 1.166-3.3 1.165 3.3h-2.335.004zM54.737 36.155l-3.584-3.666 3.207-3.667h-1.886l-2.264 2.585v-2.585H48.7v7.333h1.51v-2.702l2.64 2.702h1.887z" fill="#fff"/>
        <path d="M37.228 29.944c.364 0 .66-.287.66-.642a.651.651 0 0 0-.66-.641.651.651 0 0 0-.66.641c0 .355.295.642.66.642z" fill="#F50"/>
    </g>
    <defs>
        <clipPath id="v5nrhav9ea">
            <path fill="#fff" transform="translate(9.086 28.66)" d="M0 0h45.651v7.495H0z"/>
        </clipPath>
    </defs>
</svg>
