<svg width="170" height="30" viewBox="0 0 170 30" fill="none" xmlns="http://www.w3.org/2000/svg">
    <g clip-path="url(#o24pz8ij4a)">
        <g filter="url(#a9fuvmqmab)">
            <path fill-rule="evenodd" clip-rule="evenodd" d="M-163-2.906h327v3.913c-5.864 2.373-10 8.122-10 14.837 0 6.714 4.136 12.463 10 14.837v1.003h-327v-.003c5.864-2.374 10-8.123 10-14.837 0-6.715-4.136-12.464-10-14.837v-4.913z" fill="#000" fill-opacity=".08"/>
            <path stroke="#BABABA" stroke-dasharray="4 4" d="M-139 15.344h279"/>
        </g>
        <path fill-rule="evenodd" clip-rule="evenodd" d="M164 29.993c-5.864-2.398-10-8.208-10-14.995 0-6.786 4.136-12.596 10-14.995V0h-327v.007c5.864 2.399 10 8.209 10 14.995s-4.136 12.596-10 14.995V30h327v-.007z" fill="#fff"/>
    </g>
    <defs>
        <clipPath id="o24pz8ij4a">
            <path fill="#fff" d="M0 0h169.5v30H0z"/>
        </clipPath>
        <filter id="a9fuvmqmab" x="-169" y="-8.906" width="339" height="46.59" filterUnits="userSpaceOnUse" color-interpolation-filters="sRGB">
            <feFlood flood-opacity="0" result="BackgroundImageFix"/>
            <feBlend in="SourceGraphic" in2="BackgroundImageFix" result="shape"/>
            <feGaussianBlur stdDeviation="3" result="effect1_foregroundBlur_5965_147521"/>
        </filter>
    </defs>
</svg>
