<svg width="339" height="30" viewBox="0 0 339 30" fill="none" xmlns="http://www.w3.org/2000/svg">
    <g clip-path="url(#iyw4kbidea)">
        <g filter="url(#cm1ukhf2vb)">
            <path fill-rule="evenodd" clip-rule="evenodd" d="M6-2.906h327v3.913c-5.864 2.373-10 8.122-10 14.837 0 6.714 4.136 12.463 10 14.837v1.003H6v-.003c5.864-2.374 10-8.123 10-14.837C16 10.129 11.864 4.38 6 2.007v-4.913z" fill="#000" fill-opacity=".08"/>
            <path stroke="#BABABA" stroke-dasharray="4 4" d="M30 15.344h279"/>
        </g>
        <path fill-rule="evenodd" clip-rule="evenodd" d="M333 29.993c-5.864-2.398-10-8.208-10-14.995 0-6.786 4.136-12.596 10-14.995V0H6v.007c5.864 2.399 10 8.209 10 14.995S11.864 27.598 6 29.997V30h327v-.007z" fill="#fff"/>
    </g>
    <defs>
        <clipPath id="iyw4kbidea">
            <path fill="#fff" d="M0 0h339v30H0z"/>
        </clipPath>
        <filter id="cm1ukhf2vb" x="0" y="-8.906" width="339" height="46.59" filterUnits="userSpaceOnUse" color-interpolation-filters="sRGB">
            <feFlood flood-opacity="0" result="BackgroundImageFix"/>
            <feBlend in="SourceGraphic" in2="BackgroundImageFix" result="shape"/>
            <feGaussianBlur stdDeviation="3" result="effect1_foregroundBlur_5902_141224"/>
        </filter>
    </defs>
</svg>
