<svg width="171" height="84" viewBox="0 0 171 84" fill="none" xmlns="http://www.w3.org/2000/svg">
    <path fill-rule="evenodd" clip-rule="evenodd" d="M2.616 0v52H.252V0h2.364zm3.66 52V0H5.1v52h1.177zm4.255-52v52H9.354V0h1.177zm4.245 52V0h-1.177v52h1.177zm4.546-52v52h-1.77V0h1.77zm3.952 52V0h-1.177v52h1.177zm4.254-52v52H26.35V0h1.177zm4.244 52V0h-1.177v52h1.177zm3.43-52v52h-1.77V0h1.77zm3.58 52V0h-1.176v52h1.177zM45.29 0v52h-3.54V0h3.54zm3.479 52V0h-1.177v52h1.177zm4.255-52v52h-1.177V0h1.177zm4.254 52V0H56.1v52h1.177zm4.245-52v52h-1.177V0h1.177zm4.254 52V0H64.6v52h1.177zM70.02 0v52h-1.177V0h1.177zm4.254 52V0h-1.177v52h1.177zm5.431-52v52h-3.54V0h3.54zm3.068 52V0h-1.177v52h1.177zM87.32 0v52h-1.77V0h1.77zm2.957 52V0h-.825v52h.825zm2.887-52v52h-1.177V0h1.177zm4.244 52V0H96.23v52h1.177zm4.847-52v52h-2.363V0h2.363zm3.661 52V0h-1.177v52h1.177zm4.245-52v52h-1.177V0h1.177zm4.546 0v52h-1.771V0h1.771zm28.886 0h-1.176v52h2.231V0h-1.055zm-4.254 0v52h-1.176V0h1.176zm-3.952 52V0h-1.77v52h1.77zM130.84 0v52h-1.176V0h1.176zm-4.243 52V0h-1.177v52h1.177zm-4.255-52v52h-1.176V0h1.176zm-3.662 52V0h-2.363v52h2.363zm29.045-52v52h1.177V0h-1.177zm3.952 52V0h1.77v52h-1.77zm4.547-52v52h1.177V0h-1.177zm4.243 52V0h1.177v52h-1.177zm4.255-52v52h1.177V0h-1.177zm3.662 52V0h2.364v52h-2.364z" fill="#494949"/>
    <path d="M15.935 78.16c2.432 0 4.224-1.392 4.224-3.296 0-1.424-.896-2.448-2.496-2.656v-.096c1.232-.256 2.08-1.168 2.048-2.432.032-1.744-1.456-3.152-3.744-3.136-2.224-.016-3.952 1.296-4 3.2h1.952c.048-.96.96-1.552 2.016-1.568 1.104.016 1.824.656 1.824 1.6 0 .992-.832 1.664-2.048 1.664h-.992v1.568h.992c1.488 0 2.352.72 2.368 1.76-.016.992-.912 1.68-2.144 1.664-1.184.016-2.096-.592-2.144-1.504h-2.048c.048 1.92 1.776 3.232 4.192 3.232zm7.513-.16.944-2.784h4.272L29.592 78h2.176L27.8 66.672h-2.528L21.304 78h2.144zm1.504-4.448 1.536-4.544h.096l1.52 4.544h-3.152zm9.894-6.88H32.51l3.52 5.664L32.446 78h2.368l2.528-4.128h.064L39.934 78h2.368l-3.552-5.664 3.52-5.664h-2.336l-2.528 4.16h-.064l-2.496-4.16zm16.076 3.84h2.048c-.352-2.528-2.288-3.984-4.768-3.968-2.976-.016-5.184 2.144-5.184 5.792 0 3.648 2.176 5.824 5.184 5.824 2.672 0 4.464-1.744 4.768-3.904h-2.048c-.272 1.328-1.36 2.064-2.72 2.08-1.824-.016-3.152-1.392-3.136-4-.016-2.544 1.296-3.984 3.168-3.968 1.36-.016 2.448.768 2.688 2.144zm7.966 7.648c2.432 0 4.224-1.392 4.224-3.296 0-1.424-.896-2.448-2.496-2.656v-.096c1.232-.256 2.08-1.168 2.048-2.432.032-1.744-1.456-3.152-3.744-3.136-2.224-.016-3.952 1.296-4 3.2h1.952c.048-.96.96-1.552 2.016-1.568 1.104.016 1.824.656 1.824 1.6 0 .992-.832 1.664-2.048 1.664h-.992v1.568h.992c1.488 0 2.352.72 2.368 1.76-.016.992-.912 1.68-2.144 1.664-1.184.016-2.096-.592-2.144-1.504h-2.048c.048 1.92 1.776 3.232 4.192 3.232zm10.202 0c2.495 0 4.287-1.344 4.287-3.2 0-1.424-1.087-2.592-2.431-2.816v-.064c1.168-.256 1.984-1.28 1.984-2.528 0-1.744-1.633-3.024-3.84-3.008-2.24-.016-3.873 1.264-3.873 3.008 0 1.248.8 2.272 1.984 2.528v.064c-1.36.224-2.431 1.392-2.431 2.816 0 1.856 1.791 3.2 4.32 3.2zM66.88 74.8c-.016-1.088.928-1.872 2.209-1.856 1.263-.016 2.191.768 2.175 1.856.016 1.024-.847 1.744-2.175 1.76-1.36-.016-2.225-.736-2.209-1.76zm.32-5.056c0-.96.753-1.616 1.889-1.632 1.103.016 1.871.672 1.855 1.632.017.992-.783 1.68-1.855 1.664-1.105.016-1.889-.672-1.889-1.664zM75.26 78h2.016v-3.36l1.28-1.504L81.947 78h2.432l-4.416-6.24 4.384-5.088h-2.496l-4.416 5.216h-.16v-5.216H75.26V78zm11.814 0 .944-2.784h4.272L93.217 78h2.176l-3.968-11.328h-2.528L84.93 78h2.144zm1.504-4.448 1.536-4.544h.096l1.52 4.544h-3.152zm11.859.64 1.552 2.032c-.272.08-.56.112-.848.112-1.84-.016-3.153-1.408-3.136-4-.017-2.576 1.295-3.984 3.136-3.968 1.856-.016 3.152 1.392 3.136 3.968.016 1.392-.368 2.448-1.009 3.12l-.975-1.264h-1.856zm-4.48-1.856c0 3.648 2.207 5.824 5.184 5.824.72 0 1.392-.128 2-.368l.944 1.2h1.984L104.5 76.96c1.136-.992 1.84-2.576 1.824-4.624.016-3.648-2.224-5.808-5.184-5.792-2.977-.016-5.184 2.144-5.184 5.792zM109.078 78h2.112l4.928-9.568v-1.76h-7.808V68.4h5.696v.064L109.078 78zm10.809-11.328h-2.208L121.647 78h2.528l3.968-11.328h-2.24l-2.944 8.928h-.096l-2.976-8.928zM129.525 78h2.016v-4.16h2.112l2.24 4.16h2.272l-2.464-4.48c1.344-.528 2.048-1.68 2.048-3.232 0-2.144-1.392-3.6-4-3.616h-4.224V78zm2.016-5.824V68.4h1.92c1.52-.016 2.208.704 2.208 1.888 0 1.216-.688 1.872-2.208 1.888h-1.92zm15.584-1.664h2.048c-.352-2.528-2.288-3.984-4.768-3.968-2.976-.016-5.184 2.144-5.184 5.792 0 3.648 2.176 5.824 5.184 5.824 2.672 0 4.464-1.744 4.768-3.904h-2.048c-.272 1.328-1.36 2.064-2.72 2.08-1.824-.016-3.152-1.392-3.136-4-.016-2.544 1.296-3.984 3.168-3.968 1.36-.016 2.448.768 2.688 2.144zM150.931 78h2.016v-3.36l1.28-1.504L157.619 78h2.432l-4.416-6.24 4.384-5.088h-2.496l-4.416 5.216h-.16v-5.216h-2.016V78z" fill="#202020"/>
</svg>
