<svg width="57" height="56" viewBox="0 0 57 56" fill="none" xmlns="http://www.w3.org/2000/svg">
    <path d="M10.167 11.666h36.666a4.667 4.667 0 0 1 4.667 4.667v7a4.666 4.666 0 1 0 0 9.334v7a4.667 4.667 0 0 1-4.667 4.666H10.167A4.667 4.667 0 0 1 5.5 39.667v-7a4.667 4.667 0 0 0 0-9.334v-7a4.667 4.667 0 0 1 4.667-4.666z" fill="#F2F2F2"/>
    <path fill-rule="evenodd" clip-rule="evenodd" d="m31.485 28.54.149-.09c1.645-.997 2.716-2.243 2.741-4.286-.025-3.115-2.567-4.81-6.08-4.784-2.562-.02-4.76 1.005-5.584 3.238-.377 1.021.548 1.945 1.637 1.945.763 0 1.4-.535 2.022-1.058.24-.202.478-.403.72-.57.335-.23.739-.356 1.155-.366 1.072.025 1.894.723 1.894 1.794 0 .982-.723 1.635-1.697 2.308-.13.09-.254.189-.376.29l-.123.1c-.595.48-1.464 1.183-1.751 3.038-.15.964.679 1.749 1.654 1.76 1.015.012 1.755-.849 2.14-1.788.349-.846.948-1.204 1.498-1.532zm-3.49 8.887c-1.22 0-2.217-.997-2.192-2.193-.025-1.22.972-2.192 2.193-2.192 1.17 0 2.193.971 2.193 2.192 0 1.196-1.022 2.193-2.193 2.193z" fill="#D9D9D9"/>
</svg>
