<svg width="56" height="56" viewBox="0 0 56 56" fill="none" xmlns="http://www.w3.org/2000/svg">
    <path d="M9.044 10.936c-.213 0-.426-.006-.639-.02l.095-1.82a8.774 8.774 0 0 0 2.66-.242l.369 1.777c-.817.202-1.65.305-2.485.305z" fill="#5BCEC5"/>
    <path d="m4.58 34.444-.03-.003c-.642-.108-1.257-.436-1.775-.815a4.067 4.067 0 0 1-.368-.306 4.979 4.979 0 0 1-.455-.485c-.54-.673-.866-1.5-.795-2.39.005-.088.016-.175.03-.265.014-.073.027-.148.044-.224.009-.028.013-.073.015-.08-.055.193-.115.387-.168.583a4.127 4.127 0 0 0-.128.657 3.358 3.358 0 0 0 .518 2.121 4.1 4.1 0 0 0 .993 1.083c.518.398 1.132.75 1.783.877.021.003.038.009.059.012.097-.258.22-.505.278-.77l-.001.005z" fill="#FFC02E"/>
    <path d="M1.245 29.882c.092-.312.207-.608.362-.891a3.93 3.93 0 0 1 1.056-1.233c.06.169.137.33.226.487a3.848 3.848 0 0 0-1.109.945 4.332 4.332 0 0 0-.534.864 2.51 2.51 0 0 0-.056.13c.014-.074.027-.148.044-.224.008-.028.013-.074.015-.08l-.004.002zM2.823 25.376c.161-.478.517-.897.98-1.106.394-.176.832-.242 1.258-.287 1.038-.108 2.087-.06 3.13-.104.435-.021.878-.052 1.302-.163.19-.048.393-.123.554-.243.02.038.03.075.043.116.008.034.013.07.012.104v.09a.84.84 0 0 1-.035.167.295.295 0 0 1-.021.05c-.003.012-.013.021-.016.033-.133.253-.43.377-.691.454-.412.124-.852.153-1.276.173-.52.029-1.042.03-1.565.035-.523.006-1.044.016-1.568.066-.433.04-.878.104-1.283.267a1.819 1.819 0 0 0-.922.865 1.641 1.641 0 0 1 .047-.298c.019-.072.034-.143.059-.213l-.008-.006zM8.23 28.752s-.018.039-.03.06c-.022.04-.046.076-.07.113-.014.017-.027.038-.038.054a1.076 1.076 0 0 0-.047-.224c-.088-.273-.367-.464-.605-.596-.368-.206-.787-.327-1.206-.405-.915-.173-1.888-.113-2.76.217a3.377 3.377 0 0 1-.368-.511c.856-.485 1.88-.639 2.853-.554.456.039.916.138 1.345.306.307.12.627.288.838.55.213.264.193.595.122.91l-.016.042c-.007.014-.01.025-.016.042l-.002-.004z" fill="#FFDF87"/>
    <path d="M2.764 25.59c-.01.044-.016.085-.026.129a2.776 2.776 0 0 0-.02.169c-.002.015-.002.034-.003.049-.009.162 0 .325.024.485a2.97 2.97 0 0 0 .367 1.038c.105.188.228.357.368.512.31.357.697.643 1.117.883.616.356 1.312.622 2.029.656.465.02.967-.07 1.327-.382a1.49 1.49 0 0 0 .142-.148c.014-.017.029-.034.038-.053.024-.037.047-.073.069-.114l.03-.059a.212.212 0 0 0 .016-.042c.005-.017.013-.03.016-.042-.017.076-.037.154-.056.226-.009.038-.023.075-.031.113-.066.254-.128.522-.287.736-.12.16-.286.282-.465.367-.48.238-1.058.215-1.568.11-.752-.155-1.5-.526-2.104-.994a3.327 3.327 0 0 1-1.142-1.65c-.14-.46-.117-.91-.024-1.355.001-.006.001-.016.003-.021.017-.067.076-.27.18-.613zM10.29 23.129a.615.615 0 0 0-.044-.47c-.15-.273-.444-.447-.712-.591-.393-.207-.814-.36-1.237-.508a35.303 35.303 0 0 0-.755-.249l-.218.777c.572.183 1.14.369 1.682.615.314.14.654.302.888.56.056.062.109.134.145.21.02.038.03.075.042.116.009.034.014.07.013.104v.09l-.006.052c-.004.011-.005.026-.009.038l.211-.744z" fill="#FFC02E"/>
    <path d="M49.74 24.082c.292.255.68.502 1.098.76.019.015.04.024.059.039l.258-2.29s-.04-.023-.059-.038c-.41-.256-.806-.506-1.097-.76-.264-.233-.422-.47-.399-.682l-.258 2.29c-.024.212.135.449.398.68zM50.878 19.368c.17.114.351.229.537.341.418.258.838.51 1.172.769.314.239.541.481.592.701l.253-2.287c-.048-.227-.277-.462-.59-.701-.34-.258-.756-.51-1.173-.77a12.79 12.79 0 0 1-.537-.34l-.259 2.29.005-.003z" fill="#FFDF87"/>
    <path d="M53.43 18.94c-.024.213-.233.407-.543.575-.338.186-.778.341-1.236.498-.467.16-.927.312-1.315.491-.355.16-.633.348-.729.557-.04.337-.22 1.952-.258 2.29.096-.21.375-.394.729-.557.385-.172.847-.33 1.315-.492.462-.159.902-.314 1.235-.497.31-.168.52-.363.544-.575.039-.337.22-1.952.258-2.29z" fill="#FFC02E"/>
    <path d="M51.835 33.256s1.379 2.441 3.151 1.953L56 34.265s-3.167-.911-3.293-1.595l-.872.586z" fill="#FF5C00"/>
    <path d="M46.79 14.08a5.74 5.74 0 0 0-1.26-2.197l1.544-.927a7.212 7.212 0 0 1 1.58 2.757l-1.864.366z" fill="#FF558E"/>
    <path d="m29.946 7.539-.78-1.827c1.181-.664 2.101-1.927 2.46-3.379l1.705.555c-.494 1.999-1.76 3.737-3.385 4.65z" fill="#86ABF3"/>
    <path d="M40.493 13.134a5.024 5.024 0 0 0-7.097 0c-.047.047-2.588 3.09-4.056 6.149-1.468-3.06-4.009-6.102-4.056-6.149a5.024 5.024 0 0 0-7.097 0 5.024 5.024 0 0 0 0 7.098c.076.077 8.023 6.703 11.153 4.687 3.136 2.01 11.076-4.61 11.153-4.687a5.024 5.024 0 0 0 0-7.098zm-20.226 5.017a2.074 2.074 0 0 1 0-2.93 2.074 2.074 0 0 1 2.93 0c1.25 1.25 3.809 5.412 4.198 7.133-1.716-.389-5.884-2.947-7.133-4.197l.005-.006zm18.14 0c-1.25 1.25-5.412 3.808-7.134 4.197.39-1.721 2.948-5.883 4.198-7.133a2.074 2.074 0 0 1 2.93 0 2.074 2.074 0 0 1 0 2.93l.005.006z" fill="#FF5C00"/>
    <path d="M13.105 31.45H45.57v14.016a4.964 4.964 0 0 1-4.964 4.963H18.07a4.964 4.964 0 0 1-4.964-4.963V31.45z" fill="#FFC14D"/>
    <path d="M47.013 31.61H11.667v-5.801a3.06 3.06 0 0 1 3.06-3.06h29.22a3.06 3.06 0 0 1 3.06 3.06v5.8h.006z" fill="#FFC14D"/>
    <path fill="#EDAC34" d="M13.105 31.5H45.5v3.423H13.105z"/>
    <path d="M33.092 22.613h-7.23V50.73h7.23V22.613z" fill="#FF5C00"/>
</svg>
