<svg width="65" height="64" viewBox="0 0 65 64" fill="none" xmlns="http://www.w3.org/2000/svg">
    <circle opacity=".5" cx="32.755" cy="32.01" r="29.714" transform="rotate(-15 32.755 32.01)" fill="#fff"/>
    <mask id="irkuvb0j6b" style="mask-type:alpha" maskUnits="userSpaceOnUse" x="-5" y="0" width="78" height="71">
        <mask id="1rekpwu7da" fill="#fff">
            <path fill-rule="evenodd" clip-rule="evenodd" d="M38.353 22.507 33.645 4.938 36.682.367l-20 1.95-21.511 7.178L.623 32.617l-1.174.314L9.514 70.494l63.045-16.893-10.064-37.563-24.142 6.469z"/>
        </mask>
        <path fill-rule="evenodd" clip-rule="evenodd" d="M38.353 22.507 33.645 4.938 36.682.367l-20 1.95-21.511 7.178L.623 32.617l-1.174.314L9.514 70.494l63.045-16.893-10.064-37.563-24.142 6.469z" fill="#D9D9D9"/>
        <path d="m38.353 22.507-1.104.296.296 1.104 1.103-.296-.295-1.104zM33.645 4.938l-.952-.632-.285.43.133.498 1.104-.296zM36.682.367l.952.632 1.33-2.003-2.393.233.11 1.138zm-20 1.95-.11-1.137-.129.012-.122.04.361 1.085zM-4.829 9.495l-.362-1.084-.99.33.24 1.016 1.112-.262zM.623 32.617l.296 1.104 1.07-.287-.254-1.08-1.112.263zm-1.174.314-.296-1.104-1.104.296.296 1.104 1.104-.296zM9.514 70.494l-1.104.296.296 1.104 1.104-.296-.296-1.104zm63.045-16.893.296 1.104 1.104-.296-.296-1.104-1.103.296zM62.495 16.038l1.104-.296-.296-1.104-1.104.296.296 1.104zm-23.038 6.173L34.749 4.643l-2.208.591 4.708 17.569 2.208-.592zm-4.86-16.64L37.634.999 35.73-.265l-3.037 4.571 1.904 1.265zm1.974-6.342-20 1.95.222 2.275 20-1.95L36.57-.77zM16.32 1.233-5.191 8.41l.724 2.168L17.044 3.4l-.723-2.168zM-5.941 9.757-.49 32.879l2.224-.525-5.452-23.122-2.224.525zM.327 31.513l-1.174.314.592 2.208 1.174-.314-.592-2.208zm-1.982 1.714L8.41 70.79l2.208-.592L.553 32.635l-2.208.592zM9.81 71.598l63.045-16.893-.591-2.208L9.218 69.39l.592 2.208zm63.853-18.293L63.6 15.742l-2.208.592 10.065 37.563 2.207-.592zM62.2 14.935l-24.142 6.468.591 2.208 24.142-6.469-.591-2.208z" fill="#F60" mask="url(#1rekpwu7da)"/>
    </mask>
    <g mask="url(#irkuvb0j6b)">
        <circle cx="32.502" cy="32.01" r="29.714" transform="rotate(-15 32.502 32.01)" stroke="#666" stroke-width="1.6"/>
    </g>
    <mask id="so0ms6jztd" style="mask-type:alpha" maskUnits="userSpaceOnUse" x="-2" y="1" width="69" height="67">
        <mask id="1ip521et5c" fill="#fff">
            <path fill-rule="evenodd" clip-rule="evenodd" d="M36.625 21.44 3.64 30.276l-5.324-19.87L31.3 1.569l5.324 19.87zm30.061 32.172L13.698 67.811 8.374 47.94l52.988-14.198 5.324 19.87z"/>
        </mask>
        <path fill-rule="evenodd" clip-rule="evenodd" d="M36.625 21.44 3.64 30.276l-5.324-19.87L31.3 1.569l5.324 19.87zm30.061 32.172L13.698 67.811 8.374 47.94l52.988-14.198 5.324 19.87z" fill="#D9D9D9"/>
        <path d="m3.641 30.277-1.104.296.296 1.104 1.104-.296-.296-1.104zm32.984-8.838.296 1.104 1.104-.296-.296-1.103-1.104.295zM-1.683 10.407l-.296-1.104-1.104.296.296 1.104 1.104-.296zM31.3 1.569l1.104-.296L32.109.17l-1.104.296.296 1.104zM13.698 67.81l-1.104.295.296 1.104 1.104-.296-.296-1.103zm52.988-14.199.296 1.104 1.104-.296-.296-1.103-1.104.295zM8.374 47.94l-.296-1.104-1.104.296.296 1.104 1.104-.296zm52.988-14.198 1.104-.296-.296-1.104-1.104.296.296 1.104zm-57.425-2.36 32.984-8.839-.592-2.208-32.984 8.838.592 2.208zm-6.724-20.68 5.324 19.871 2.208-.591-5.324-19.87-2.208.59zM31.005.466-1.98 9.303l.592 2.208 32.983-8.838-.591-2.208zm6.724 20.679-5.324-19.87-2.208.59 5.324 19.871 2.208-.591zm-23.735 47.77 52.988-14.198-.592-2.208-52.988 14.199.592 2.207zM7.27 48.236l5.324 19.87 2.208-.591-5.324-19.87-2.208.59zm53.796-15.598L8.078 46.836l.592 2.208 52.988-14.198-.592-2.208zm6.724 20.679-5.324-19.87-2.208.59 5.324 19.871 2.208-.591z" fill="#F60" mask="url(#1ip521et5c)"/>
    </mask>
    <g mask="url(#so0ms6jztd)">
        <circle cx="32.502" cy="32.01" r="25.143" transform="rotate(-15 32.502 32.01)" stroke="#666" stroke-width="1.2"/>
    </g>
    <path d="m17.105 29.69-1.22.327 1.585 5.915 1.22-.327-.673-2.508 1.665-.446-.267-.998-1.665.446-.645-2.409zm-4.245 1.668.417 1.555-3.012.808-.417-1.556-1.202.322 1.342 5.008 5.42-1.453-1.341-5.008-1.207.324zm-1.93 4.844-.414-1.543 3.012-.807.414 1.543-3.012.807zm8.67 2.8-.777-2.898-7.434 1.992.257.962 6.224-1.668.277 1.035-6.196 1.66.797 2.976 7.798-2.09-.263-.98-6.6 1.769-.293-1.093 6.21-1.664zm5.645-9.12c1.07 1.07 2.914 1.528 4.812 1.336l.228-1.092c-2.3.305-4.443-.487-4.837-1.957l-.13-.485-1.234.33.13.486c.389 1.451-1.07 3.228-3.197 4.109l.707.841c1.758-.787 3.127-2.102 3.521-3.569zm1.091 1.657-1.197.32.43 1.606-4.631 1.241.262.98L31.68 32.88l-.263-.98-4.65 1.245-.43-1.605zm.317 3.595c-2.495.669-3.793 1.794-3.448 3.083.344 1.283 2.028 1.596 4.522.927 2.49-.667 3.774-1.774 3.44-3.06-.355-1.286-2.024-1.617-4.514-.95zm.824 3.076c-1.767.483-2.858.367-3.033-.325-.197-.696.693-1.333 2.462-1.807 1.755-.47 2.848-.365 3.045.331.175.692-.716 1.34-2.474 1.8zm12.346-14.598-1.216.326 2.356 8.791 1.216-.325-1.063-3.965L42.754 28l-.275-1.025-1.637.439-1.019-3.802zm-.377 6.286c-.915.396-1.916.761-2.916 1.092l-.276-1.03c1.279-.56 1.943-1.658 1.638-2.83-.376-1.368-1.807-1.971-3.49-1.52-1.683.45-2.62 1.689-2.244 3.056.31 1.19 1.457 1.807 2.878 1.63l.288 1.076c-1.047.32-2.053.594-2.91.823l.4.953c1.97-.528 4.671-1.296 6.968-2.378l-.336-.872zm-6.154-1.536c-.231-.828.35-1.547 1.36-1.823 1.026-.27 1.861.07 2.093.898.21.82-.343 1.536-1.365 1.82-1.014.261-1.878-.076-2.088-.895zm1.245 5.262.863 3.221 7.848-2.103-.269-1.002-6.623 1.774-.594-2.218-1.225.328zm17.247-5.651 1.742-.467-.268-.998-7.008 1.878-.446-1.665 6.74-1.806-.96-3.588-7.975 2.136.266.994 6.772-1.815.43 1.602-6.75 1.808.98 3.656 1.592-.426.545 2.036-2.871.77.271 1.011 10.52-2.818-.272-1.012-2.762.74-.546-2.036zm-1.198.32.546 2.037-2.504.671-.545-2.037 2.503-.67z" fill="#666"/>
    <path d="M38.676 14.468a7.246 7.246 0 0 1 3.942-4.686 7.246 7.246 0 0 1 6.124-.007M48.734 9.757a7.246 7.246 0 0 0 6.124-.006 7.246 7.246 0 0 0 3.941-4.687M41.245 18.738a7.246 7.246 0 0 1 3.942-4.686 7.246 7.246 0 0 1 6.123-.007M51.301 14.028a7.246 7.246 0 0 0 6.124-.007 7.246 7.246 0 0 0 3.942-4.687M36.12 10.196a7.246 7.246 0 0 1 3.942-4.687 7.246 7.246 0 0 1 6.123-.007M46.175 5.485A7.246 7.246 0 0 0 52.3 5.48 7.246 7.246 0 0 0 56.241.792" stroke="#666" stroke-width="1.281"/>
</svg>
