<svg width="80" height="80" viewBox="0 0 80 80" fill="none" xmlns="http://www.w3.org/2000/svg">
    <circle opacity=".5" cx="40.411" cy="40.499" r="37.143" fill="#fff"/>
    <path d="M21.893 8.403C4.128 18.66-1.96 41.376 8.297 59.141 18.554 76.906 41.27 82.993 59.036 72.737 70.94 65.863 77.6 53.394 77.613 40.57" stroke="#666" stroke-width="2"/>
    <path d="M77.607 40.57c0-20.514-16.63-37.143-37.143-37.143" stroke="#666" stroke-width="2" stroke-linecap="square" stroke-dasharray="4.29 4.29"/>
    <mask id="0qpcyn5rla" style="mask-type:alpha" maskUnits="userSpaceOnUse" x="-7" y="-5" width="90" height="90">
        <path fill-rule="evenodd" clip-rule="evenodd" d="M70.229 20.142-.28 39.034l-6.655-24.838L63.574-4.696l6.655 24.838zM82.8 67.058 16.566 84.806 9.91 59.968 76.145 42.22 82.8 67.058z" fill="#D9D9D9"/>
    </mask>
    <g mask="url(#0qpcyn5rla)">
        <circle cx="40" cy="40" r="31.429" transform="rotate(-15 40 40)" stroke="#666" stroke-width="1.5"/>
    </g>
    <path d="m12.563 5.898 9.388 2.516c-.53.323-1.959 1.098-2.582 1.56" stroke="#666" stroke-width="2" stroke-linecap="square"/>
    <path d="m21.61 37.464-1.543.414 3.846 14.352 1.543-.414-3.845-14.352zm-9.006 13.678 1.155 1.027c4.293-3.684 5.106-7.81 3.996-12.017l-6.831 1.83.326 1.215 5.27-1.412c.603 3.429-.558 6.52-3.916 9.357zm22.542-17.304-1.544.413 2.799 10.444 1.543-.414-1.32-4.926 2.07-.554-.344-1.281-2.07.554-1.134-4.236zm-9.247 10.679.95 1.048c3.86-2.407 5.691-5.82 4.679-9.596L24.73 37.79l.343 1.28 5.156-1.38c.334 2.427-1.253 4.911-4.33 6.827zm3.883 5.823 9.721-2.605-.325-1.215L31 48.711l-.933-3.48-1.543.413 1.258 4.696zm15.883-17.984-6.732 1.804 1.804 6.733 6.732-1.804-1.804-6.733zm-3.776 6.926-1.144-4.27 3.744-1.003 1.144 4.27-3.744 1.003zm2.118 7.247 9.72-2.605-.325-1.215-8.21 2.2-.898-3.35-1.51.405 1.223 4.565zm6.636-5.58 1.51-.405-1.328-4.959 2.069-.554-.335-1.248-2.069.554-1.153-4.302-1.51.405 2.816 10.509zm17.803-3.855-3.481.933-.678-2.53 2.2-.589-.334-1.248-8.769 2.35-.554-2.07 8.44-2.26-1.205-4.5-9.984 2.675.334 1.248 8.474-2.27.536 2.003-8.44 2.262 1.223 4.565 1.97-.528.678 2.528-3.58.96.344 1.28 13.17-3.528-.344-1.281zm-8.112 2.173-.678-2.528 3.153-.845.678 2.529-3.153.844z" fill="#666"/>
</svg>
