<svg width="64" height="64" viewBox="0 0 64 64" fill="none" xmlns="http://www.w3.org/2000/svg">
    <circle opacity=".5" cx="32.256" cy="32.01" r="29.714" transform="rotate(-15 32.256 32.01)" fill="#fff"/>
    <mask id="44789plw6b" style="mask-type:alpha" maskUnits="userSpaceOnUse" x="-6" y="0" width="79" height="71">
        <mask id="9lklg4ztra" fill="#fff">
            <path fill-rule="evenodd" clip-rule="evenodd" d="M37.856 22.507 33.148 4.938 36.185.367l-20 1.95-21.511 7.178L.126 32.617l-1.174.314L9.017 70.494l63.046-16.893-10.065-37.563-24.142 6.469z"/>
        </mask>
        <path fill-rule="evenodd" clip-rule="evenodd" d="M37.856 22.507 33.148 4.938 36.185.367l-20 1.95-21.511 7.178L.126 32.617l-1.174.314L9.017 70.494l63.046-16.893-10.065-37.563-24.142 6.469z" fill="#D9D9D9"/>
        <path d="m37.856 22.507-1.104.296.295 1.104 1.104-.296-.295-1.104zM33.148 4.938l-.952-.632-.285.43.133.498 1.104-.296zM36.185.367l.952.632 1.33-2.003-2.393.233.11 1.138zm-20 1.95-.11-1.137-.13.012-.122.04.362 1.085zM-5.326 9.495l-.362-1.085-.99.33.24 1.017 1.112-.262zM.126 32.617l.296 1.104 1.07-.287-.254-1.08-1.112.263zm-1.174.314-.296-1.104-1.103.296.295 1.104 1.104-.296zM9.017 70.494l-1.104.296.296 1.104 1.104-.296-.296-1.104zm63.046-16.893.296 1.104 1.104-.296-.296-1.104-1.104.296zM61.998 16.038l1.104-.296-.296-1.104-1.104.296.296 1.104zM38.96 22.211 34.252 4.643l-2.208.591 4.708 17.569 2.207-.592zM34.1 5.571 37.137.999 35.233-.265l-3.037 4.571L34.1 5.571zm1.974-6.342-20 1.95.222 2.275 20-1.95-.222-2.275zm-20.25 2.004L-5.689 8.41l.723 2.169L16.547 3.4l-.724-2.168zM-6.44 9.757l5.452 23.122 2.225-.525-5.452-23.122-2.225.525zM-.17 31.513l-1.174.314.592 2.208 1.174-.314-.592-2.208zm-1.982 1.714L7.913 70.79l2.208-.592L.056 32.635l-2.208.592zm11.465 38.37 63.046-16.892-.592-2.208L8.721 69.39l.592 2.208zm63.854-18.292L63.102 15.742l-2.208.592 10.065 37.563 2.208-.592zm-11.465-38.37L37.56 21.402l.591 2.208 24.143-6.469-.592-2.208z" fill="#F60" mask="url(#9lklg4ztra)"/>
    </mask>
    <g mask="url(#44789plw6b)">
        <circle cx="32.004" cy="32.01" r="29.714" transform="rotate(-15 32.004 32.01)" stroke="#666" stroke-width="1.6"/>
    </g>
    <mask id="ze3evv7zgd" style="mask-type:alpha" maskUnits="userSpaceOnUse" x="-3" y="1" width="70" height="67">
        <mask id="dxb27xmjhc" fill="#fff">
            <path fill-rule="evenodd" clip-rule="evenodd" d="M36.129 21.44 3.145 30.276l-5.324-19.87 32.984-8.838 5.324 19.87zm30.06 32.172L13.202 67.811 7.876 47.94l52.988-14.199 5.324 19.87z"/>
        </mask>
        <path fill-rule="evenodd" clip-rule="evenodd" d="M36.129 21.44 3.145 30.276l-5.324-19.87 32.984-8.838 5.324 19.87zm30.06 32.172L13.202 67.811 7.876 47.94l52.988-14.199 5.324 19.87z" fill="#D9D9D9"/>
        <path d="m3.145 30.277-1.104.296.296 1.104 1.104-.296-.296-1.104zM36.13 21.44l.296 1.104 1.104-.296-.296-1.103-1.104.295zM-2.179 10.407l-.296-1.104-1.104.296.296 1.104 1.104-.296zm32.984-8.838 1.104-.296L31.613.17l-1.104.296.296 1.104zM13.2 67.811l-1.103.295.295 1.104 1.104-.295-.296-1.104zM66.19 53.612l.295 1.104 1.104-.295-.296-1.104-1.104.295zM7.876 47.94l-.296-1.104-1.103.296.295 1.104 1.104-.296zm52.988-14.198 1.104-.296-.296-1.104-1.104.296.296 1.104zm-57.424-2.36 32.984-8.839-.592-2.207L2.85 29.173l.592 2.207zm-6.724-20.68 5.324 19.871 2.208-.591-5.324-19.87-2.208.59zM30.51.466-2.475 9.303l.592 2.208L31.1 2.673 30.51.465zm6.724 20.679-5.324-19.87-2.208.59 5.324 19.871 2.208-.591zm-23.736 47.77 52.988-14.198-.591-2.207-52.988 14.198.591 2.208zM6.773 48.237l5.325 19.87 2.207-.591-5.324-19.87-2.208.59zM60.57 32.638 7.581 46.836l.592 2.208 52.988-14.198-.592-2.208zm6.724 20.679-5.324-19.87-2.208.59 5.324 19.871 2.208-.591z" fill="#F60" mask="url(#dxb27xmjhc)"/>
    </mask>
    <g mask="url(#ze3evv7zgd)">
        <circle cx="32.005" cy="32.01" r="25.143" transform="rotate(-15 32.005 32.01)" stroke="#666" stroke-width="1.2"/>
    </g>
    <path d="m16.606 29.69-1.22.327 1.585 5.915 1.22-.327-.672-2.508 1.665-.446-.268-.998-1.665.446-.645-2.409zm-4.245 1.668.417 1.555-3.012.808-.417-1.556-1.202.322 1.342 5.008 5.42-1.453-1.341-5.008-1.207.324zm-1.93 4.844-.413-1.543 3.012-.807.413 1.543-3.012.807zm8.67 2.8-.776-2.898-7.435 1.992.258.962 6.223-1.668.277 1.035-6.196 1.66.797 2.976 7.798-2.09-.263-.98-6.6 1.769-.293-1.093 6.21-1.664zm5.646-9.12c1.07 1.07 2.913 1.528 4.811 1.336l.228-1.092c-2.3.305-4.443-.487-4.837-1.957l-.13-.485-1.234.33.13.486c.39 1.451-1.07 3.228-3.197 4.109l.707.841c1.758-.787 3.127-2.102 3.522-3.569zm1.09 1.657-1.197.32.43 1.606-4.631 1.241.262.98L31.18 32.88l-.263-.98-4.65 1.245-.43-1.605zm.317 3.595c-2.495.669-3.793 1.794-3.447 3.083.344 1.283 2.027 1.596 4.522.927 2.49-.667 3.773-1.774 3.439-3.06-.355-1.286-2.023-1.617-4.514-.95zm.824 3.076c-1.766.483-2.857.367-3.033-.325-.196-.696.693-1.333 2.462-1.807 1.756-.47 2.849-.365 3.045.331.175.692-.716 1.34-2.474 1.8zm12.346-14.598-1.215.326 2.355 8.791 1.216-.325-1.063-3.965L42.255 28l-.275-1.025-1.637.439-1.019-3.802zm-.377 6.286a35.72 35.72 0 0 1-2.916 1.092l-.276-1.03c1.279-.56 1.943-1.658 1.638-2.83-.376-1.368-1.806-1.971-3.49-1.52-1.682.45-2.62 1.689-2.243 3.056.31 1.19 1.456 1.807 2.877 1.63l.288 1.076c-1.047.32-2.053.594-2.91.823l.401.953c1.969-.528 4.67-1.296 6.967-2.378l-.336-.872zm-6.153-1.536c-.232-.828.349-1.547 1.359-1.823 1.026-.27 1.861.07 2.093.898.21.82-.342 1.536-1.365 1.82-1.014.261-1.878-.076-2.087-.895zm1.245 5.262.862 3.221 7.848-2.103-.269-1.002-6.622 1.774-.595-2.218-1.224.328zm17.246-5.651 1.742-.467-.267-.998-7.009 1.878-.446-1.665 6.741-1.806-.962-3.588-7.974 2.136.266.994 6.773-1.815.429 1.602-6.75 1.808.98 3.656 1.592-.426.546 2.036-2.872.77.271 1.011 10.52-2.818-.272-1.012-2.762.74-.546-2.036zm-1.197.32.545 2.037-2.504.671-.545-2.037 2.504-.67z" fill="#666"/>
    <path d="M38.18 14.468a7.246 7.246 0 0 1 3.94-4.686 7.246 7.246 0 0 1 6.125-.007M48.237 9.757a7.246 7.246 0 0 0 6.124-.006 7.246 7.246 0 0 0 3.941-4.687M40.748 18.738a7.246 7.246 0 0 1 3.94-4.686 7.246 7.246 0 0 1 6.125-.007M50.803 14.028a7.246 7.246 0 0 0 6.124-.007 7.246 7.246 0 0 0 3.942-4.687M35.623 10.196a7.246 7.246 0 0 1 3.94-4.687 7.246 7.246 0 0 1 6.125-.007M45.678 5.485a7.246 7.246 0 0 0 6.124-.006A7.246 7.246 0 0 0 55.744.792" stroke="#666" stroke-width="1.281"/>
</svg>
