<svg width="72" height="72" viewBox="0 0 72 72" fill="none" xmlns="http://www.w3.org/2000/svg">
    <circle opacity=".5" cx="36.001" cy="35.999" r="33.429" transform="rotate(-15 36.001 35.999)" fill="#fff" stroke="#666" stroke-width="1.8"/>
    <circle cx="36.001" cy="35.999" r="33.429" transform="rotate(-15 36.001 35.999)" stroke="#666" stroke-width="1.8"/>
    <mask id="xzue63y11a" style="mask-type:alpha" maskUnits="userSpaceOnUse" x="-3" y="-5" width="78" height="82">
        <path fill-rule="evenodd" clip-rule="evenodd" d="M63.143 18.075 3.532 34.048l-5.99-22.355L57.153-4.279l5.99 22.354zm11.314 42.224L14.846 76.272l-5.99-22.354 59.612-15.973 5.99 22.354z" fill="#D9D9D9"/>
    </mask>
    <g mask="url(#xzue63y11a)">
        <circle cx="36" cy="35.997" r="28.286" transform="rotate(-15 36 35.997)" stroke="#666" stroke-width="1.35"/>
    </g>
    <path d="m23.154 43.35-5.29 1.417-.8-2.985 3.872-1.037-1.648-6.148-9.074 2.431 1.648 6.148 3.842-1.03.8 2.986-5.202 1.394.309 1.152 11.852-3.175-.309-1.153zm-10.247-1.595-1.07-3.99 6.385-1.71 1.07 3.99-6.385 1.71zm20.063-6.833-7.36 1.972-.776-2.896 7.212-1.933-.3-1.123-8.602 2.305 1.37 5.113 8.75-2.344-.294-1.094zm-9.331 6.556 5.202-1.394 1.164 4.345 1.33-.357-1.164-4.345 5.291-1.417-.301-1.124-11.823 3.168.301 1.124zm25.06-4.973-5.32 1.425-.823-3.073-1.36.364.824 3.074-5.173 1.386.301 1.123 11.853-3.176-.301-1.123zm-12.507-.925.9.994c1.973-.972 3.527-2.798 3.909-4.801 1.332 1.543 3.602 2.33 5.815 2.195l.282-1.31c-2.604.27-5.365-1.05-5.93-3.1l-.262-.976-1.419.38.262.976c.52 2.062-1.181 4.577-3.557 5.642zm16.212-8.083-.15-.561 2.837-.76-.293-1.094-7.123 1.909.293 1.093 2.897-.776.15.562c.475 1.773-.315 3.79-2.142 5.009l1.002.903c1.39-.958 2.242-2.39 2.442-3.949.94 1.142 2.337 1.861 3.96 1.949l.416-1.284c-2.172-.067-3.837-1.316-4.289-3zm.157 10.634 8.838-2.368-.293-1.093-7.479 2.003-.8-2.985-1.359.364 1.093 4.08zm6.238-5.093 1.36-.364-2.534-9.458-1.36.364 2.534 9.458z" fill="#666"/>
</svg>
