<svg width="65" height="64" viewBox="0 0 65 64" fill="none" xmlns="http://www.w3.org/2000/svg">
    <circle opacity=".5" cx="32.5" cy="32" r="29.714" transform="rotate(-15 32.5 32)" fill="#fff" stroke="#666" stroke-width="1.6"/>
    <circle cx="32.5" cy="32" r="29.714" transform="rotate(-15 32.5 32)" stroke="#666" stroke-width="1.6"/>
    <mask id="wqbx59iqna" style="mask-type:alpha" maskUnits="userSpaceOnUse" x="-2" y="-4" width="69" height="72">
        <path fill-rule="evenodd" clip-rule="evenodd" d="M56.627 16.07 3.64 30.268l-5.324-19.87L51.303-3.802l5.324 19.87zm10.057 37.533L13.696 67.8 8.372 47.93 61.36 33.731l5.324 19.87z" fill="#D9D9D9"/>
    </mask>
    <g mask="url(#wqbx59iqna)">
        <circle cx="32.5" cy="32" r="25.143" transform="rotate(-15 32.5 32)" stroke="#666" stroke-width="1.2"/>
    </g>
    <path d="m18.255 34.287-1.229-4.586-1.22.327 3.08 11.495 1.22-.327-1.572-5.87 1.841-.493-.278-1.04-1.842.494zm-5.944-2.296-1.21.324.527 1.969c.556 2.111-.048 4.631-1.584 5.957l1.02.776c1.124-1.03 1.763-2.674 1.838-4.445.914 1.399 2.23 2.427 3.66 2.739l.488-1.176c-1.93-.378-3.676-2.141-4.211-4.176l-.528-1.969zM28.454 31c.792-.602 1.14-1.317.936-2.08-.366-1.365-2.162-1.735-4.68-1.064-2.526.681-3.897 1.9-3.53 3.265.203.762.863 1.207 1.848 1.327l.413 1.543-2.513.673.265.989 10.478-2.808-.265-.989-2.54.681L28.454 31zm-3.49-2.196c1.777-.477 2.972-.32 3.178.45.207.772-.754 1.486-2.532 1.963-1.787.479-2.968.338-3.165-.436-.216-.768.73-1.498 2.518-1.977zm-.624 3.643c.467-.053.976-.15 1.52-.296a9.804 9.804 0 0 0 1.468-.51l.327 1.22-2.99.801-.325-1.215zm2.29 2.595c-2.497.66-3.794 1.79-3.442 3.105.355 1.325 2.042 1.65 4.537.982 2.477-.664 3.77-1.788 3.424-3.115-.361-1.313-2.045-1.645-4.52-.972zm.845 3.153c-1.753.479-2.865.34-3.048-.38-.2-.71.698-1.368 2.45-1.848 1.74-.456 2.857-.337 3.057.373.182.719-.72 1.398-2.46 1.855zm12.347-14.593-1.216.326 2.356 8.79 1.215-.325-1.062-3.965 1.638-.438-.275-1.026-1.638.44-1.018-3.802zm-.377 6.285c-.915.396-1.916.761-2.916 1.093l-.276-1.03c1.279-.561 1.942-1.658 1.638-2.831-.376-1.367-1.807-1.971-3.49-1.52-1.683.45-2.62 1.689-2.244 3.056.31 1.191 1.457 1.808 2.878 1.631l.288 1.075c-1.047.32-2.053.594-2.91.824l.4.952c1.97-.527 4.67-1.295 6.968-2.377l-.336-.873zm-6.154-1.536c-.231-.827.349-1.547 1.36-1.822 1.026-.27 1.86.07 2.092.897.21.82-.342 1.536-1.365 1.82-1.014.262-1.877-.076-2.087-.895zm1.245 5.263.863 3.22 7.847-2.102-.268-1.003-6.623 1.775-.594-2.218-1.225.328zm17.247-5.652 1.742-.467-.268-.998-7.008 1.878-.446-1.665 6.74-1.806-.96-3.588-7.975 2.137.266.993 6.772-1.814.43 1.6-6.75 1.81.98 3.656 1.591-.427.546 2.037-2.871.77.27 1.01 10.52-2.818-.271-1.012-2.763.74-.545-2.036zm-1.198.32.546 2.038-2.504.67-.546-2.036 2.504-.671z" fill="#666"/>
</svg>
